<svg width="14" height="19" viewBox="0 0 14 19" fill="none" xmlns="http://www.w3.org/2000/svg">
<g clip-path="url(#clip0_9642_327)">
<path d="M7.86406 18.3059C9.73438 16.0488 14 10.5785 14 7.50586C14 3.7793 10.8646 0.755859 7 0.755859C3.13542 0.755859 0 3.7793 0 7.50586C0 10.5785 4.26562 16.0488 6.13594 18.3059C6.58437 18.8438 7.41562 18.8438 7.86406 18.3059ZM7 9.75586C5.71302 9.75586 4.66667 8.74687 4.66667 7.50586C4.66667 6.26484 5.71302 5.25586 7 5.25586C8.28698 5.25586 9.33333 6.26484 9.33333 7.50586C9.33333 8.74687 8.28698 9.75586 7 9.75586Z" fill="#BCBCBC"/>
</g>
<defs>
<clipPath id="clip0_9642_327">
<rect width="14" height="18" fill="white" transform="translate(0 0.755859)"/>
</clipPath>
</defs>
</svg>
