<svg width="189" height="25" viewBox="0 0 189 25" fill="none" xmlns="http://www.w3.org/2000/svg">
<path d="M11.0489 3.68291C11.3483 2.7616 12.6517 2.7616 12.9511 3.68291L14.4697 8.35667C14.6035 8.76869 14.9875 9.04766 15.4207 9.04766H20.335C21.3037 9.04766 21.7065 10.2873 20.9228 10.8567L16.947 13.7452C16.5966 13.9999 16.4499 14.4512 16.5838 14.8632L18.1024 19.537C18.4017 20.4583 17.3472 21.2244 16.5635 20.655L12.5878 17.7665C12.2373 17.5119 11.7627 17.5119 11.4122 17.7665L7.43648 20.655C6.65276 21.2244 5.59828 20.4583 5.89763 19.537L7.41623 14.8633C7.5501 14.4512 7.40345 13.9999 7.05296 13.7452L3.07722 10.8567C2.29351 10.2873 2.69628 9.04766 3.66501 9.04766H8.57929C9.01252 9.04766 9.39647 8.76869 9.53035 8.35667L11.0489 3.68291Z" fill="#6DBBDA"/>
<path d="M35.0489 3.68291C35.3483 2.7616 36.6517 2.7616 36.9511 3.68291L38.4697 8.35667C38.6035 8.76869 38.9875 9.04766 39.4207 9.04766H44.335C45.3037 9.04766 45.7065 10.2873 44.9228 10.8567L40.947 13.7452C40.5966 13.9999 40.4499 14.4512 40.5838 14.8632L42.1024 19.537C42.4017 20.4583 41.3472 21.2244 40.5635 20.655L36.5878 17.7665C36.2373 17.5119 35.7627 17.5119 35.4122 17.7665L31.4365 20.655C30.6528 21.2244 29.5983 20.4583 29.8976 19.537L31.4162 14.8633C31.5501 14.4512 31.4034 13.9999 31.053 13.7452L27.0772 10.8567C26.2935 10.2873 26.6963 9.04766 27.665 9.04766H32.5793C33.0125 9.04766 33.3965 8.76869 33.5303 8.35667L35.0489 3.68291Z" fill="#6DBBDA"/>
<path d="M59.0489 3.68291C59.3483 2.7616 60.6517 2.7616 60.9511 3.68291L62.4697 8.35667C62.6035 8.76869 62.9875 9.04766 63.4207 9.04766H68.335C69.3037 9.04766 69.7065 10.2873 68.9228 10.8567L64.947 13.7452C64.5966 13.9999 64.4499 14.4512 64.5838 14.8632L66.1024 19.537C66.4017 20.4583 65.3472 21.2244 64.5635 20.655L60.5878 17.7665C60.2373 17.5119 59.7627 17.5119 59.4122 17.7665L55.4365 20.655C54.6528 21.2244 53.5983 20.4583 53.8976 19.537L55.4162 14.8633C55.5501 14.4512 55.4034 13.9999 55.053 13.7452L51.0772 10.8567C50.2935 10.2873 50.6963 9.04766 51.665 9.04766H56.5793C57.0125 9.04766 57.3965 8.76869 57.5303 8.35667L59.0489 3.68291Z" fill="#6DBBDA"/>
<path d="M83.0489 3.68291C83.3483 2.7616 84.6517 2.7616 84.9511 3.68291L86.4697 8.35667C86.6035 8.76869 86.9875 9.04766 87.4207 9.04766H92.335C93.3037 9.04766 93.7065 10.2873 92.9228 10.8567L88.947 13.7452C88.5966 13.9999 88.4499 14.4512 88.5838 14.8632L90.1024 19.537C90.4017 20.4583 89.3472 21.2244 88.5635 20.655L84.5878 17.7665C84.2373 17.5119 83.7627 17.5119 83.4122 17.7665L79.4365 20.655C78.6528 21.2244 77.5983 20.4583 77.8976 19.537L79.4162 14.8633C79.5501 14.4512 79.4034 13.9999 79.053 13.7452L75.0772 10.8567C74.2935 10.2873 74.6963 9.04766 75.665 9.04766H80.5793C81.0125 9.04766 81.3965 8.76869 81.5303 8.35667L83.0489 3.68291Z" fill="#6DBBDA"/>
<path d="M107.049 3.68291C107.348 2.7616 108.652 2.7616 108.951 3.68291L110.47 8.35667C110.604 8.76869 110.987 9.04766 111.421 9.04766H116.335C117.304 9.04766 117.706 10.2873 116.923 10.8567L112.947 13.7452C112.597 13.9999 112.45 14.4512 112.584 14.8632L114.102 19.537C114.402 20.4583 113.347 21.2244 112.564 20.655L108.588 17.7665C108.237 17.5119 107.763 17.5119 107.412 17.7665L103.436 20.655C102.653 21.2244 101.598 20.4583 101.898 19.537L103.416 14.8633C103.55 14.4512 103.403 13.9999 103.053 13.7452L99.0772 10.8567C98.2935 10.2873 98.6963 9.04766 99.665 9.04766H104.579C105.013 9.04766 105.396 8.76869 105.53 8.35667L107.049 3.68291Z" fill="#6DBBDA"/>
<g clip-path="url(#clip0_342_19)">
<path d="M143.637 4.69922L146.387 4.69922V20.8124H143.637V4.69922ZM156.013 15.7113C156.013 18.1404 153.778 18.3832 153.176 18.3832C151.544 18.3832 151.2 16.9258 151.2 16.0351V9.88135H148.45V16.0351C148.45 17.5736 148.965 18.7881 149.825 19.6789C150.598 20.4075 151.801 20.8124 153.091 20.8124C154.036 20.8124 155.325 20.5695 155.927 19.9217V20.8124H158.677V9.88135H155.927L156.013 15.7113ZM164.177 5.99476H161.427V9.88135H159.364V12.4724H161.427V20.8124H164.177V12.4724H166.24V9.88135H164.177V5.99476ZM174.834 17.5736C174.233 18.0594 173.459 18.3832 172.6 18.3832C170.709 18.3832 169.334 17.0877 169.334 15.2254C169.334 13.3631 170.709 12.1485 172.6 12.1485C173.459 12.1485 174.233 12.3915 174.834 12.9583L175.264 13.2821L177.069 11.5817L176.639 11.1769C175.522 10.2862 174.147 9.71942 172.6 9.71942C169.162 9.63845 166.67 11.9866 166.67 15.2254C166.67 18.3832 169.248 20.8124 172.6 20.8124C174.147 20.8124 175.608 20.3266 176.725 19.355L177.155 18.9501L175.264 17.1688L174.834 17.5736ZM186.952 10.853C186.179 10.1243 185.234 9.71942 183.944 9.71942C182.999 9.71942 181.968 9.96232 181.28 10.6101V4.69922L178.53 4.69922V20.8124H181.28V14.7396C181.28 12.3105 183.171 12.0676 183.773 12.0676C185.405 12.0676 185.405 13.525 185.405 14.4157V20.8124H188.156V14.4157C188.156 12.9583 187.812 11.6627 186.952 10.853Z" fill="white"/>
<path d="M172.48 16.7842C173.314 16.7842 173.99 16.1078 173.99 15.2736C173.99 14.4393 173.314 13.7629 172.48 13.7629C171.645 13.7629 170.969 14.4393 170.969 15.2736C170.969 16.1078 171.645 16.7842 172.48 16.7842Z" fill="#FF3D2E"/>
<path d="M139.86 16.7642C138.829 17.7358 137.368 18.3025 135.907 18.3025C132.813 18.3025 130.578 16.0354 130.578 12.9585C130.578 9.88161 132.813 7.61443 135.821 7.61443C137.282 7.61443 138.657 8.18123 139.774 9.15288L140.204 9.55773L142.009 7.85734L141.579 7.45248C140.032 5.99501 137.969 5.1853 135.821 5.1853C131.352 5.1853 128 8.5051 128 12.9585C128 17.4119 131.352 20.7317 135.907 20.7317C138.141 20.7317 140.204 19.922 141.665 18.4645L142.095 18.0597L140.29 16.2784L139.86 16.7642Z" fill="white"/>
</g>
<defs>
<clipPath id="clip0_342_19">
<rect width="61" height="16.1132" fill="white" transform="translate(128 4.69922)"/>
</clipPath>
</defs>
</svg>
