<svg width="141" height="44" viewBox="0 0 141 44" fill="none" xmlns="http://www.w3.org/2000/svg">
<g id="clutch logo">
<g id="Group">
<path id="Vector" d="M38.2772 2.56519H44.2459V39.3181H38.2772V2.56519Z" fill="#17313B"/>
<path id="Vector_2" d="M65.0076 27.6717C65.0076 33.3658 60.3364 33.8834 58.7793 33.8834C55.1462 33.8834 54.6272 30.5187 54.6272 28.707V14.4717H48.6585V28.4481C48.6585 31.8129 49.6965 34.9187 51.7726 36.7305C53.5892 38.5423 55.9247 39.3187 58.7793 39.3187C60.8554 39.3187 63.4505 38.8011 65.0076 37.2481V39.3187H70.9763V14.4717H65.0076V27.6717Z" fill="#17313B"/>
<path id="Vector_3" d="M82.6536 5.41187H76.6849V14.4707H72.2732V20.1648H76.6849V39.3177H82.6536V20.1648H87.0652V14.4707H82.6536V5.41187Z" fill="#17313B"/>
<path id="Vector_4" d="M105.75 31.8107C104.453 32.846 102.636 33.6225 100.819 33.6225C96.6673 33.6225 93.8127 30.5166 93.8127 26.3754C93.8127 22.2343 96.6673 19.3872 100.819 19.3872C102.636 19.3872 104.453 19.9048 105.75 21.199L106.529 21.9754L110.681 18.0931L109.643 17.3166C107.307 15.246 104.193 13.9519 100.819 13.9519C93.5532 13.9519 88.1035 19.3872 88.1035 26.6343C88.1035 33.8813 93.5532 39.3166 100.819 39.3166C104.193 39.3166 107.307 38.0225 109.643 35.9519L110.681 35.1754L106.529 31.0343L105.75 31.8107Z" fill="#17313B"/>
<path id="Vector_5" d="M131.7 16.5417C129.884 14.7299 128.067 13.9534 125.212 13.9534C123.136 13.9534 121.06 14.4711 119.503 16.024V2.56519H113.534V39.3181H119.503V25.6005C119.503 19.9064 123.396 19.3887 124.953 19.3887C128.586 19.3887 128.326 22.7534 128.326 24.5652V39.0593H134.295V24.824C134.295 21.4593 133.517 18.3534 131.7 16.5417Z" fill="#17313B"/>
<path id="Vector_6" d="M100.56 30.7765C102.854 30.7765 104.713 28.9224 104.713 26.6353C104.713 24.3482 102.854 22.4941 100.56 22.4941C98.2672 22.4941 96.4083 24.3482 96.4083 26.6353C96.4083 28.9224 98.2672 30.7765 100.56 30.7765Z" fill="#EF4335"/>
<path id="Vector_7" d="M29.9737 30.2583C27.8976 32.3289 24.7835 33.623 21.4099 33.623C14.9222 33.623 10.251 28.4466 10.251 21.4583C10.251 14.4701 14.9222 9.29363 21.6694 9.29363C24.7835 9.29363 27.8976 10.5877 30.2332 12.9172L31.0117 13.6936L34.9044 9.81128L34.1259 9.03481C30.7522 5.6701 26.3406 3.85834 21.6694 3.85834C11.8081 3.59951 4.54181 11.3642 4.54181 21.4583C4.54181 31.5525 11.8081 39.3172 21.4099 39.3172C26.0811 39.3172 30.7522 37.5054 33.8663 34.1407L34.6449 33.3642L30.7522 29.4819L29.9737 30.2583Z" fill="#17313B"/>
</g>
</g>
</svg>
