<?xml version="1.0" encoding="UTF-8"?>
<svg xmlns="http://www.w3.org/2000/svg" width="79" height="48" viewBox="0 0 79 48" fill="none">
  <g clip-path="url(#clip0_9555_31421)">
    <g clip-path="url(#clip1_9555_31421)">
      <g style="mix-blend-mode:luminosity">
        <path fill-rule="evenodd" clip-rule="evenodd" d="M65.3454 47.5579C65.3454 47.5579 65.3454 47.6102 65.3454 37.3203H61.1211C61.1211 47.6093 61.1211 47.5579 61.1211 47.5579H65.3454Z" fill="black"></path>
        <path fill-rule="evenodd" clip-rule="evenodd" d="M42.979 43.3091V37.4775H38.884V41.9355C38.884 43.2313 38.8317 43.5943 38.7546 43.9317C38.4695 44.8651 37.4846 45.2796 36.4741 45.2796C35.0749 45.2796 34.4266 44.7357 34.168 43.8802C34.09 43.5951 34.0644 43.2842 34.0386 42.9733C34.013 42.6368 34.0386 42.2737 34.0386 41.885V37.4775H29.8906V43.3349C29.8906 44.657 30.3316 45.6418 31.057 46.3157C32.3012 47.5334 34.4002 47.8965 36.344 47.8965C38.7023 47.8965 40.5169 47.56 41.8126 46.2901C42.4865 45.6418 42.979 44.7864 42.979 43.3091Z" fill="black"></path>
        <path fill-rule="evenodd" clip-rule="evenodd" d="M22.867 42.5825C22.7376 42.5568 22.5039 42.5303 22.2452 42.5303H17.5798C17.3469 42.5303 17.0874 42.5559 16.9582 42.5825C17.0361 42.5045 17.1911 42.3495 17.3469 42.1416L19.4466 38.6682C19.7319 38.2016 19.8611 37.8907 19.9133 37.7613C19.9656 37.8907 20.0948 38.2016 20.3801 38.6939L22.5312 42.193C22.6332 42.3495 22.789 42.5054 22.867 42.5825ZM30.6939 47.5587L21.3633 33.5635H16.1275L17.5011 35.1966C17.5269 35.2222 17.5791 35.2479 17.6305 35.2744C17.5791 35.3002 17.5269 35.3266 17.5011 35.3524L9.36328 47.5587H14.0801L15.35 45.459C15.4014 45.3554 15.4279 45.2517 15.4279 45.1995C15.4801 45.1995 15.6095 45.2517 15.7388 45.2517H24.1617C24.2911 45.2517 24.3947 45.226 24.447 45.1995C24.447 45.2517 24.447 45.3289 24.4992 45.4067L25.8213 47.5579H30.6939V47.5587Z" fill="black"></path>
        <path fill-rule="evenodd" clip-rule="evenodd" d="M59.9798 42.2973C59.9798 41.1567 59.5131 39.8353 58.0616 37.9951L54.5626 33.5635H49.69L52.4629 36.6738C52.9296 37.1918 53.5256 37.6585 53.5256 37.6585C52.8516 37.2698 51.9961 37.1139 51.3223 37.1139C49.715 37.1139 48.0827 37.4504 46.6312 38.2545C45.076 39.11 44.0391 40.535 44.0391 42.4275C44.0391 43.879 44.6873 44.9931 45.5163 45.8486C47.3823 47.7145 50.7777 47.896 52.0219 47.896C53.8621 47.896 56.7387 47.4816 58.3716 46.0044C59.3316 45.1223 59.9798 43.9046 59.9798 42.2973ZM55.937 42.4275C55.937 43.4902 55.2374 44.2935 54.3561 44.7344C53.6308 45.1232 52.7753 45.2268 52.0234 45.2268C51.2716 45.2268 50.3905 45.071 49.6651 44.708C48.7839 44.2677 48.11 43.4122 48.11 42.4789C48.11 41.364 48.9655 40.4827 49.976 40.0426C50.5977 39.7575 51.3496 39.6538 51.9456 39.6538C52.5159 39.6538 53.3448 39.7317 53.993 39.9904C55.1594 40.4836 55.937 41.4162 55.937 42.4275Z" fill="black"></path>
        <path fill-rule="evenodd" clip-rule="evenodd" d="M64.004 0.197754C60.8456 0.197754 57.9449 1.28296 55.6453 3.10154C53.3472 1.28296 50.4449 0.197754 47.2865 0.197754C44.1288 0.197754 41.2259 1.28376 38.9278 3.10154C36.6296 1.28296 33.7274 0.197754 30.5689 0.197754C27.4113 0.197754 24.5084 1.28376 22.2102 3.10154C19.9113 1.28296 17.0099 0.197754 13.8514 0.197754C6.4052 0.197754 0.371094 6.23184 0.371094 13.678C0.371094 21.1242 6.4052 27.1584 13.8514 27.1584C17.0099 27.1584 19.9121 26.0732 22.2102 24.2546C24.5075 26.0732 27.4113 27.1584 30.5689 27.1584C33.7274 27.1584 36.6296 26.0732 38.9278 24.2546C41.2259 26.0732 44.1288 27.1584 47.2865 27.1584C50.4449 27.1584 53.3472 26.0732 55.6453 24.2546C57.9434 26.0732 60.8456 27.1584 64.004 27.1584C71.4502 27.1584 77.4844 21.1242 77.4844 13.678C77.4844 6.23184 71.4502 0.197754 64.004 0.197754ZM20.0044 22.0521C18.287 23.3051 16.1407 24.0707 13.8514 24.0707C8.10732 24.0707 3.45884 19.4222 3.45884 13.678C3.45884 7.93396 8.10732 3.28549 13.8514 3.28549C16.1407 3.28549 18.2855 4.05019 20.0044 5.30408C18.1763 7.60542 17.0886 10.5108 17.0886 13.678C17.0886 16.8333 18.1891 19.7555 20.0044 22.0521ZM22.2102 19.8527C20.9306 18.125 20.1764 15.9931 20.1764 13.678C20.1764 11.3607 20.9282 9.23202 22.2102 7.50341C23.4914 9.23282 24.2441 11.3607 24.2441 13.678C24.2441 15.9931 23.4898 18.125 22.2102 19.8527ZM36.7219 22.0521C34.9974 23.3212 32.8671 24.0675 30.5618 24.0675C28.2572 24.0675 26.1398 23.3212 24.4159 22.0521C26.2313 19.7547 27.3326 16.8324 27.3326 13.678C27.3326 10.5108 26.2451 7.60461 24.4159 5.30408C26.1398 4.03492 28.2572 3.28869 30.5618 3.28869C32.8671 3.28869 34.9974 4.03412 36.7219 5.30408C34.8938 7.60542 33.8061 10.5108 33.8061 13.678C33.8061 16.8333 34.9066 19.7555 36.7219 22.0521ZM38.9278 19.8527C37.6481 18.125 36.8939 15.9931 36.8939 13.678C36.8939 11.3607 37.6457 9.23202 38.9278 7.50341C40.2098 9.23282 40.9616 11.3607 40.9616 13.678C40.9616 15.9931 40.2073 18.125 38.9278 19.8527ZM53.4394 22.0521C51.7149 23.3212 49.5846 24.0675 47.2793 24.0675C44.9747 24.0675 42.8573 23.3212 41.1335 22.0521C42.9489 19.7547 44.0501 16.8324 44.0501 13.678C44.0501 10.5108 42.9625 7.60461 41.1335 5.30408C42.8573 4.03492 44.9747 3.28869 47.2793 3.28869C49.5846 3.28869 51.7149 4.03412 53.4394 5.30408C51.6113 7.60542 50.5228 10.5108 50.5228 13.678C50.5228 16.8333 51.6242 19.7555 53.4394 22.0521ZM55.6453 19.8527C54.3656 18.125 53.6114 15.9931 53.6114 13.678C53.6114 11.3607 54.3633 9.23202 55.6453 7.50341C56.9265 9.23282 57.6791 11.3607 57.6791 13.678C57.6791 15.9931 56.9248 18.125 55.6453 19.8527ZM64.004 24.0707C61.7147 24.0707 59.5692 23.306 57.851 22.0521C59.6664 19.7547 60.7676 16.8324 60.7676 13.678C60.7676 10.5108 59.6801 7.60461 57.851 5.30408C59.5707 4.051 61.7147 3.28549 64.004 3.28549C69.7482 3.28549 74.3967 7.93396 74.3967 13.678C74.3967 19.4222 69.7482 24.0707 64.004 24.0707Z" fill="black"></path>
      </g>
    </g>
  </g>
  <defs>
    <clipPath id="clip0_9555_31421">
      <rect width="77.2727" height="48" fill="black" transform="translate(0.761719)"></rect>
    </clipPath>
    <clipPath id="clip1_9555_31421">
      <rect width="77.5102" height="47.6984" fill="black" transform="translate(0.367188 0.197754)"></rect>
    </clipPath>
  </defs>
</svg>
