<?xml version="1.0" encoding="UTF-8"?> <svg xmlns="http://www.w3.org/2000/svg" width="190" height="88" viewBox="0 0 190 88" fill="none"><g opacity="0.9"><path d="M64.0876 48.0003C65.6323 52.2567 63.4696 55.9982 57.8747 55.9982H53.3756L45 33H49.531C55.1606 33 58.0438 34.3732 59.2109 37.5999C59.9638 39.6571 59.4512 41.6501 58.25 42.9562C60.8928 43.6755 63.0555 45.1854 64.0876 48.0003ZM52.9638 42.4737C54.4366 42.4737 56.1557 41.2365 55.3321 39.0067C54.6457 37.1192 52.7918 36.3639 50.8011 36.5347L52.9638 42.4737ZM56.6706 52.5C59.2109 52.5342 60.3779 51.0584 59.4854 48.8274C58.5587 46.5298 56.4991 45.566 54.0277 45.566L56.6706 52.5ZM72.941 44.5333L81.2135 55.9982H76.0292L69.8174 46.9705L73.1472 55.9982H68.6162L60.2406 33H64.7027C70.5385 33 73.3875 34.7509 74.5546 37.8055C75.5496 40.2769 74.726 43.0917 72.941 44.5333ZM68.4471 43.0575C70.1639 43.0575 71.6396 41.6843 70.7818 39.316C70.092 37.4626 68.3417 36.3297 66.0759 36.5347L68.4471 43.0575ZM86.2252 52.2225H91.8548L93.2275 55.9982H83.0674L74.6919 33H85.4728L86.8803 36.7757H80.5955L82.6898 42.5438H87.976L89.3145 46.1822H84.0283L86.2252 52.2225ZM90.3443 33H96.8317L109.395 55.9982H104.452L101.569 50.3692H97.5528L98.5826 55.9982H94.3945L90.3443 33ZM96.8317 46.5929H99.6118L94.9784 37.3254L96.8317 46.5929ZM115.231 33L114.372 42.9562L124.43 56H119.246L111.934 46.4562L115.435 56H110.938L102.565 33H107.094L110.354 42.0619L111.041 33H115.231ZM117.565 33H122.096L130.471 55.9982H125.94L117.565 33ZM134.007 36.7757L141.009 55.9982H136.478L129.476 36.7757H125.46L124.119 33H137.404L138.743 36.7757H134.007Z" fill="#FF5557"></path></g></svg> 