<svg width="139" height="18" viewBox="0 0 139 18" fill="none" xmlns="http://www.w3.org/2000/svg">
<g id="Frame 8859">
<path id="Path" fill-rule="evenodd" clip-rule="evenodd" d="M60.1525 12.7059C60.1525 10.5882 59.3518 9.52941 57.9506 9.02521C59.4519 8.11765 60.0023 6.65546 60.0023 5.04202C60.0023 3.98319 59.552 2.82353 58.7513 1.91597C57.9006 1.0084 56.6996 0.352941 54.3977 0.352941H40.9365C40.5862 0.352941 40.3359 0.605042 40.3359 0.957983V2.52101C40.3359 2.87395 40.5862 3.12605 40.9365 3.12605H44.3893H46.0407H54.1475C55.2984 3.12605 55.949 3.52941 56.3993 4.03361C56.7496 4.48739 56.8998 4.94118 56.8998 5.4958C56.8998 6.05042 56.7496 6.5042 56.3993 6.95798C55.949 7.56302 55.3485 7.96639 54.1475 7.96639H48.0424C48.0424 7.96639 45.24 7.96639 42.6379 8.01681C41.3368 8.01681 40.2859 9.07563 40.2859 10.3866V14.3697C40.2859 14.7731 39.9356 15.126 39.5353 15.126C39.235 15.126 38.9848 14.9748 38.8847 14.7227L32.8797 2.57143C31.979 0.806723 30.778 0 28.7263 0C26.4744 0 25.3234 1.0084 24.2225 3.32773L18.6679 14.8739H17.7671H12.1625H9.36014C7.1583 14.8739 5.70709 14.2185 4.70626 13.1092C3.70543 12.1008 3.10493 10.6891 3.10493 9.12605C3.10493 7.31092 3.85555 5.69748 5.15664 4.63866C6.15747 3.83193 7.35847 3.32773 9.41018 3.32773H17.4169C17.7671 3.32773 18.0174 3.07563 18.0174 2.72269V0.907563C18.0174 0.554622 17.7671 0.302521 17.4169 0.302521H9.96064C6.50776 0.302521 4.60618 0.957983 2.75463 2.67227C1.10326 4.23529 0.152466 6.30252 0.152466 8.97479C0.152466 11.5966 1.10326 13.7647 2.75463 15.2773C4.60618 16.9916 6.50776 17.6471 9.96064 17.6471H12.1625H17.7671H22.7213H30.4777C30.9281 17.6471 31.1783 17.1933 31.0282 16.7899L30.2275 15.126C30.1274 14.9244 29.9273 14.7731 29.6771 14.7731H22.1208L27.3251 3.73109C27.7254 2.97479 28.0757 2.72269 28.7763 2.72269C29.4269 2.72269 29.8772 3.07563 30.2275 3.73109L36.3326 16.3361C36.833 17.3445 37.8839 18 38.9848 18H40.3359C41.9873 18 43.2884 16.6891 43.2884 15.0252V11.1429C43.2884 10.7899 43.5386 10.5378 43.8889 10.5378H54.4977C56.049 10.5378 57.0999 11.2941 57.0999 13.1597V16.2857C57.0999 16.5378 57.0999 16.7899 57.0999 17.0924C57.0999 17.395 57.4002 17.6471 57.7004 17.6471H59.5019C59.8522 17.6471 60.1024 17.3445 60.1024 17.042C60.1024 16.7395 60.1024 16.437 60.1024 16.0336V12.7059H60.1525Z" fill="black"/>
<path id="Path_2" fill-rule="evenodd" clip-rule="evenodd" d="M137.501 0.401114H135.696C135.345 0.401114 135.094 0.651811 135.094 1.00279V14.39C135.094 14.7409 134.794 15.0418 134.443 15.0418C134.142 15.0418 133.891 14.9415 133.64 14.6908L123.463 1.55432C122.561 0.350975 121.608 0 119.954 0C117.898 0 116.595 1.05292 116.595 3.20891V7.57103H97.093V3.91086C97.093 3.50975 97.2935 3.30919 97.6946 3.30919H111.682C112.033 3.30919 112.283 3.0585 112.283 2.70752V1.00279C112.283 0.651811 112.033 0.401114 111.682 0.401114H96.5916C94.9372 0.401114 94.1351 1.1532 94.1351 2.70752V7.57103H89.8236V4.16156C89.8236 1.20334 88.4198 0 85.9633 0C84.2086 0 83.3062 0.752089 82.6545 2.20613L77.1398 14.4401C76.9392 14.9415 76.7387 14.9916 76.488 14.9916C76.1872 14.9916 76.0368 14.8914 75.8363 14.4401L70.3216 2.20613C69.6197 0.752089 68.7173 0 67.0128 0C64.6063 0 63.1525 1.20334 63.1525 4.16156V17.0474C63.1525 17.3983 63.4031 17.649 63.7541 17.649H65.5589C65.9098 17.649 66.1605 17.3983 66.1605 17.0474V3.76045C66.1605 2.95822 66.5114 2.8078 66.8624 2.8078C67.1632 2.8078 67.3637 2.85794 67.6645 3.50975L73.1291 15.4429C74.0816 17.5487 74.7835 18 76.488 18C78.1926 18 78.8944 17.5487 79.847 15.4429L85.3116 3.50975C85.6124 2.85794 85.8129 2.8078 86.1137 2.8078C86.5148 2.8078 86.8156 3.00836 86.8156 3.76045V17.0474C86.8156 17.3983 87.0662 17.649 87.4172 17.649H89.222C89.5729 17.649 89.8236 17.3983 89.8236 17.0474V10.3788H94.1852V15.2423C94.1852 16.8468 95.0375 17.649 96.5916 17.649H111.632C111.983 17.649 112.233 17.3983 112.233 17.0474V15.3928C112.233 15.0418 111.983 14.7911 111.632 14.7911H97.7447C97.3938 14.7911 97.1431 14.5404 97.1431 14.1894V10.429H116.645V17.0474C116.645 17.3983 116.896 17.649 117.247 17.649H118.901H119.052C119.402 17.649 119.653 17.3983 119.653 17.0474V3.76045C119.653 3.25905 120.054 3.00836 120.455 3.00836C120.756 3.00836 121.007 3.15877 121.157 3.35933L131.785 16.6964C132.487 17.5989 133.44 17.9499 134.994 17.9499C136.749 17.9499 138.152 16.7967 138.152 14.6407V1.00279C138.052 0.70195 137.802 0.401114 137.501 0.401114Z" fill="black"/>
</g>
</svg>
