<?xml version="1.0" encoding="UTF-8"?>
<svg xmlns="http://www.w3.org/2000/svg" width="188" height="141" viewBox="0 0 188 141" fill="none">
  <g clip-path="url(#clip0_9608_2968)">
    <g style="mix-blend-mode:luminosity">
      <path d="M52.1631 85.4011H37.8398C36.5523 85.4011 35.4258 86.5195 35.4258 87.7975C35.4258 89.0756 36.5523 90.1939 37.8398 90.1939H52.1631C53.4506 90.1939 54.5771 89.0756 54.5771 87.7975C54.7381 86.5195 53.6116 85.4011 52.1631 85.4011Z" fill="white"></path>
      <path d="M57.1562 64.6333C57.8 64.6333 58.4438 64.3138 58.9265 63.9942C59.2484 63.515 59.5703 62.876 59.5703 62.2369C59.5703 61.5979 59.4094 60.9589 58.9265 60.4796C58.4438 60.1601 57.8 59.8406 57.1562 59.8406C56.5126 59.8406 55.8688 60.0003 55.386 60.4796C55.0641 60.9589 54.7422 61.5979 54.7422 62.2369C54.7422 62.876 54.9032 63.515 55.386 63.9942C55.8688 64.3138 56.5126 64.6333 57.1562 64.6333Z" fill="white"></path>
      <path d="M57.7974 68.1472C56.5099 67.8277 55.0614 68.4667 54.7396 69.9045C53.9348 72.7801 52.0036 75.1765 49.2677 76.2948C44.2787 78.3717 38.485 76.135 36.3928 71.0228C34.1397 65.9106 36.3928 59.9996 41.3819 57.763C43.9569 56.6447 47.0147 56.8044 49.5896 58.0825C50.8771 58.7215 52.3255 58.2422 52.9693 56.9642C53.6129 55.6861 53.1302 54.0885 51.8426 53.4495C47.8193 51.5324 43.3131 51.3727 39.2897 53.13C31.8866 56.4849 28.507 65.4313 31.7257 73.0996C34.1397 78.8509 39.6116 82.2059 45.2444 82.2059C47.3365 82.2059 49.2677 81.7265 51.3599 81.0875C55.3833 79.1704 58.2801 75.6558 59.5677 71.3423C59.8894 69.9045 59.0848 68.4667 57.7974 68.1472Z" fill="white"></path>
      <path d="M78.7202 87.255V88.2774H70.7539V77.0945H78.4805V78.1169H71.9449V82.0949H77.7707V83.1014H71.9449V87.2566H78.7202V87.255Z" fill="white"></path>
      <path d="M83.3314 87.6384C82.4349 87.1479 81.7332 86.4705 81.2231 85.6031C80.7145 84.734 80.457 83.7643 80.457 82.6875C80.457 81.6123 80.7129 80.641 81.2231 79.7719C81.7316 78.9045 82.4382 78.2255 83.3378 77.7366C84.2406 77.2462 85.2481 77.0017 86.365 77.0017C87.2018 77.0017 87.9743 77.1391 88.6808 77.4171C89.389 77.6936 89.9893 78.0993 90.4834 78.6312L89.7269 79.3822C88.8466 78.4987 87.7361 78.0561 86.3955 78.0561C85.504 78.0561 84.6944 78.259 83.9654 78.6648C83.2348 79.0691 82.6635 79.6234 82.2515 80.3247C81.8379 81.0276 81.6318 81.8169 81.6318 82.6891C81.6318 83.5614 81.8379 84.3506 82.2515 85.0535C82.6651 85.7548 83.2348 86.3092 83.9654 86.7134C84.6944 87.1192 85.504 87.3221 86.3955 87.3221C87.7475 87.3221 88.8579 86.8748 89.7269 85.9785L90.4834 86.731C89.9893 87.263 89.3858 87.6703 88.6728 87.9531C87.9599 88.2359 87.1841 88.3764 86.3472 88.3764C85.2336 88.3733 84.2278 88.1288 83.3314 87.6384Z" fill="white"></path>
      <path d="M94.6755 87.6305C93.7695 87.1351 93.0598 86.4577 92.5512 85.5951C92.0426 84.7324 91.7852 83.7643 91.7852 82.6875C91.7852 81.6123 92.0411 80.6426 92.5512 79.7799C93.0613 78.9173 93.7695 78.2383 94.6755 77.7447C95.5801 77.2478 96.5923 77.0017 97.7092 77.0017C98.8261 77.0017 99.8304 77.2462 100.727 77.7366C101.623 78.2271 102.328 78.9045 102.841 79.7719C103.356 80.641 103.614 81.6123 103.614 82.6875C103.614 83.7643 103.356 84.734 102.841 85.6031C102.328 86.4705 101.622 87.1496 100.727 87.6384C99.8319 88.1272 98.8245 88.3733 97.7092 88.3733C96.5939 88.3733 95.5816 88.1272 94.6755 87.6305ZM100.123 86.7214C100.841 86.322 101.404 85.7677 101.813 85.0599C102.22 84.3522 102.425 83.5614 102.425 82.6875C102.425 81.8137 102.22 81.0229 101.813 80.3151C101.404 79.6074 100.841 79.053 100.123 78.6537C99.4038 78.2543 98.5992 78.0546 97.7092 78.0546C96.8176 78.0546 96.0098 78.2543 95.2871 78.6537C94.5629 79.053 93.9931 79.6074 93.5796 80.3151C93.166 81.0229 92.96 81.8137 92.96 82.6875C92.96 83.5614 93.166 84.3522 93.5796 85.0599C93.9931 85.7677 94.5612 86.322 95.2871 86.7214C96.0098 87.1207 96.8176 87.3204 97.7092 87.3204C98.5992 87.3204 99.4038 87.1207 100.123 86.7214Z" fill="white"></path>
      <path d="M115.704 77.0925V88.2755H114.722L107.48 79.2013V88.2755H106.289V77.0925H107.271L114.529 86.1667V77.0925H115.704Z" fill="white"></path>
      <path d="M121.261 87.6305C120.355 87.1351 119.646 86.4577 119.137 85.5951C118.629 84.7324 118.371 83.7643 118.371 82.6875C118.371 81.6123 118.627 80.6426 119.137 79.7799C119.647 78.9173 120.355 78.2383 121.261 77.7447C122.166 77.2478 123.178 77.0017 124.295 77.0017C125.412 77.0017 126.416 77.2462 127.313 77.7366C128.209 78.2271 128.914 78.9045 129.427 79.7719C129.942 80.641 130.2 81.6123 130.2 82.6875C130.2 83.7643 129.942 84.734 129.427 85.6031C128.914 86.4705 128.207 87.1496 127.313 87.6384C126.418 88.1272 125.41 88.3733 124.295 88.3733C123.18 88.3733 122.166 88.1272 121.261 87.6305ZM126.709 86.7214C127.427 86.322 127.99 85.7677 128.399 85.0599C128.806 84.3522 129.01 83.5614 129.01 82.6875C129.01 81.8137 128.806 81.0229 128.399 80.3151C127.99 79.6074 127.427 79.053 126.709 78.6537C125.99 78.2543 125.185 78.0546 124.295 78.0546C123.403 78.0546 122.596 78.2543 121.873 78.6537C121.149 79.053 120.579 79.6074 120.166 80.3151C119.752 81.0229 119.546 81.8137 119.546 82.6875C119.546 83.5614 119.752 84.3522 120.166 85.0599C120.579 85.7677 121.147 86.322 121.873 86.7214C122.596 87.1207 123.403 87.3204 124.295 87.3204C125.183 87.3204 125.988 87.1207 126.709 86.7214Z" fill="white"></path>
      <path d="M144.573 77.0942V88.2772H143.43V79.3307L139.004 86.8553H138.44L134.014 79.377V88.2755H132.871V77.0925H133.853L138.745 85.3839L143.59 77.0925H144.573V77.0942Z" fill="white"></path>
      <path d="M152.103 84.4094V88.2755H150.928V84.4094L146.422 77.0925H147.693L151.556 83.371L155.417 77.0925H156.607L152.103 84.4094Z" fill="white"></path>
      <path d="M74.1002 70.6459C72.8159 69.951 71.8101 68.9941 71.081 67.7718C70.352 66.5481 69.9883 65.1694 69.9883 63.6326C69.9883 62.0973 70.3568 60.7186 71.0923 59.4949C71.8278 58.2727 72.8385 57.3142 74.1227 56.6208C75.4086 55.9275 76.8458 55.5808 78.4391 55.5808C79.7314 55.5808 80.9094 55.8061 81.9764 56.2534C83.0417 56.6991 83.943 57.3493 84.6801 58.1992L82.7875 59.9645C81.6448 58.7424 80.2415 58.1321 78.5742 58.1321C77.4927 58.1321 76.5239 58.3654 75.6661 58.8351C74.8115 59.3047 74.142 59.9582 73.6625 60.7937C73.1813 61.6276 72.9414 62.575 72.9414 63.6326C72.9414 64.6917 73.1813 65.6391 73.6625 66.4731C74.142 67.307 74.8115 67.9604 75.6661 68.4301C76.5222 68.9014 77.4927 69.1347 78.5742 69.1347C80.2415 69.1347 81.6448 68.5164 82.7875 67.2783L84.6801 69.0675C83.943 69.9174 83.0385 70.566 81.965 71.0134C80.8917 71.4607 79.7088 71.6843 78.4165 71.6843C76.8232 71.686 75.3845 71.3393 74.1002 70.6459Z" fill="white"></path>
      <path d="M87.8125 55.8064H90.74V71.4625H87.8125V55.8064Z" fill="white"></path>
      <path d="M105.63 71.4625L102.408 66.8776C102.273 66.8936 102.07 66.8999 101.8 66.8999H98.2399V71.4625H95.3125V55.8064H101.8C103.168 55.8064 104.357 56.0301 105.373 56.4774C106.387 56.9247 107.162 57.5669 107.703 58.4008C108.244 59.2348 108.514 60.2285 108.514 61.3739C108.514 62.5529 108.224 63.5658 107.648 64.4157C107.071 65.2656 106.24 65.8999 105.157 66.3168L108.786 71.461H105.63V71.4625ZM104.573 59.0718C103.911 58.5351 102.943 58.2667 101.665 58.2667H98.2399V64.5067H101.665C102.943 64.5067 103.911 64.2336 104.573 63.6888C105.233 63.144 105.562 62.374 105.562 61.3739C105.562 60.3771 105.233 59.6086 104.573 59.0718Z" fill="white"></path>
      <path d="M115.081 70.6459C113.796 69.951 112.791 68.9941 112.062 67.7718C111.332 66.5481 110.969 65.1694 110.969 63.6326C110.969 62.0973 111.337 60.7186 112.073 59.4949C112.808 58.2727 113.819 57.3142 115.103 56.6208C116.389 55.9275 117.826 55.5808 119.42 55.5808C120.712 55.5808 121.89 55.8061 122.957 56.2534C124.022 56.6991 124.924 57.3493 125.661 58.1992L123.768 59.9645C122.625 58.7424 121.222 58.1321 119.555 58.1321C118.473 58.1321 117.504 58.3654 116.647 58.8351C115.792 59.3047 115.122 59.9582 114.643 60.7937C114.162 61.6276 113.922 62.575 113.922 63.6326C113.922 64.6917 114.162 65.6391 114.643 66.4731C115.122 67.307 115.792 67.9604 116.647 68.4301C117.503 68.9014 118.473 69.1347 119.555 69.1347C121.222 69.1347 122.625 68.5164 123.768 67.2783L125.661 69.0675C124.924 69.9174 124.019 70.566 122.944 71.0134C121.871 71.4607 120.688 71.6843 119.395 71.6843C117.802 71.686 116.365 71.3393 115.081 70.6459Z" fill="white"></path>
      <path d="M128.793 55.8064H131.72V69.0023H139.967V71.4625H128.793V55.8064Z" fill="white"></path>
      <path d="M154.434 69.0247V71.4625H142.605V55.8064H154.117V58.2427H145.533V62.3149H153.148V64.7081H145.533V69.0231H154.434V69.0247Z" fill="white"></path>
    </g>
  </g>
  <defs>
    <clipPath id="clip0_9608_2968">
      <rect width="127.892" height="37.9679" fill="white" transform="translate(29.8398 51.906)"></rect>
    </clipPath>
  </defs>
</svg>
