<?xml version="1.0" encoding="UTF-8"?> <svg xmlns="http://www.w3.org/2000/svg" width="154" height="88" viewBox="0 0 154 88" fill="none"><g opacity="0.9"><path d="M101.173 55.0711C101.219 54.9784 101.279 54.9115 101.351 54.8703C101.423 54.824 101.5 54.8008 101.583 54.8008C101.696 54.8008 101.796 54.8394 101.884 54.9166C101.976 54.9939 102.023 55.0866 102.023 55.1947C102.023 55.2616 102.005 55.3286 101.969 55.3955L100.424 58.3382C100.362 58.4515 100.28 58.539 100.177 58.6008C100.074 58.6626 99.9658 58.6935 99.8523 58.6935C99.734 58.6935 99.6258 58.6626 99.5282 58.6008C99.4355 58.5338 99.3658 58.4412 99.3195 58.3227L98.246 55.3723C98.2304 55.326 98.2227 55.2822 98.2227 55.241C98.2227 55.1174 98.2742 55.0145 98.3772 54.9321C98.4855 54.8445 98.6038 54.8008 98.7325 54.8008C98.82 54.8008 98.8972 54.824 98.9642 54.8703C99.0362 54.9166 99.0877 54.9861 99.1188 55.0788L99.9528 57.5195L101.173 55.0711Z" fill="#323844"></path><path d="M104.091 58.7013C103.71 58.7013 103.375 58.6266 103.087 58.4773C102.804 58.3229 102.583 58.1066 102.423 57.8286C102.269 57.5505 102.191 57.2287 102.191 56.8631C102.191 56.4409 102.274 56.0727 102.438 55.7586C102.603 55.4394 102.84 55.1948 103.149 55.0249C103.458 54.855 103.821 54.77 104.238 54.77C104.485 54.77 104.717 54.8009 104.933 54.8627C105.155 54.9193 105.335 54.9966 105.474 55.0944C105.587 55.1665 105.644 55.2798 105.644 55.4342C105.644 55.5424 105.613 55.6376 105.551 55.72C105.495 55.7973 105.42 55.8359 105.327 55.8359C105.275 55.8359 105.219 55.8204 105.157 55.7895C104.879 55.6145 104.586 55.5269 104.277 55.5269C103.932 55.5269 103.664 55.6428 103.473 55.8745C103.283 56.1062 103.188 56.4306 103.188 56.8477C103.188 57.1926 103.273 57.463 103.443 57.6586C103.618 57.8491 103.86 57.9444 104.169 57.9444C104.323 57.9444 104.464 57.9238 104.593 57.8826C104.722 57.8414 104.859 57.7771 105.003 57.6895C105.07 57.6535 105.132 57.6354 105.188 57.6354C105.275 57.6354 105.345 57.6689 105.397 57.7359C105.448 57.8028 105.474 57.8826 105.474 57.9753C105.474 58.0423 105.458 58.1092 105.427 58.1761C105.397 58.2379 105.35 58.292 105.288 58.3383C105.144 58.4464 104.964 58.534 104.748 58.6009C104.532 58.6678 104.313 58.7013 104.091 58.7013Z" fill="#323844"></path><path d="M106.426 58.6858C106.287 58.6858 106.174 58.6472 106.086 58.57C105.999 58.4928 105.96 58.3769 105.97 58.2224L106.217 55.2334C106.228 55.0841 106.282 54.9734 106.38 54.9013C106.478 54.8241 106.596 54.7854 106.735 54.7854C106.874 54.7854 106.985 54.8241 107.067 54.9013C107.155 54.9734 107.193 55.0841 107.183 55.2334L106.936 58.2224C106.926 58.3769 106.871 58.4928 106.774 58.57C106.676 58.6472 106.56 58.6858 106.426 58.6858ZM106.828 54.098C106.653 54.098 106.514 54.0517 106.411 53.959C106.308 53.8612 106.256 53.7351 106.256 53.5806C106.256 53.4261 106.308 53.3025 106.411 53.2098C106.514 53.1171 106.653 53.0708 106.828 53.0708C106.998 53.0708 107.134 53.1171 107.237 53.2098C107.345 53.3025 107.399 53.4261 107.399 53.5806C107.399 53.7351 107.348 53.8612 107.245 53.959C107.142 54.0517 107.003 54.098 106.828 54.098Z" fill="#323844"></path><path d="M109.341 57.2029C109.335 57.2338 109.333 57.2801 109.333 57.3419C109.333 57.5479 109.379 57.7049 109.472 57.8131C109.57 57.9212 109.706 57.9752 109.881 57.9752C109.928 57.9752 109.982 57.9727 110.043 57.9675C110.11 57.9572 110.165 57.9521 110.206 57.9521C110.278 57.9521 110.334 57.9804 110.376 58.0371C110.417 58.0937 110.437 58.1709 110.437 58.2687C110.437 58.4284 110.381 58.5391 110.267 58.6009C110.154 58.6626 109.956 58.6936 109.673 58.6936C109.256 58.6936 108.934 58.5828 108.707 58.3614C108.481 58.14 108.367 57.8259 108.367 57.4191C108.367 57.3265 108.37 57.257 108.375 57.2106L108.499 55.5887H108.12C107.992 55.5887 107.891 55.5603 107.819 55.5037C107.747 55.4419 107.711 55.3544 107.711 55.2411C107.711 54.9888 107.863 54.8626 108.167 54.8626H108.56L108.615 54.1521C108.625 54.0131 108.676 53.9049 108.769 53.8277C108.862 53.7453 108.983 53.7041 109.132 53.7041C109.281 53.7041 109.395 53.7453 109.472 53.8277C109.554 53.9049 109.59 54.0156 109.58 54.1598L109.526 54.8626H110.175C110.303 54.8626 110.401 54.8936 110.468 54.9553C110.54 55.012 110.576 55.0944 110.576 55.2025C110.576 55.4599 110.427 55.5887 110.128 55.5887H109.464L109.341 57.2029Z" fill="#323844"></path><path d="M112.623 54.77C113.132 54.77 113.513 54.8859 113.766 55.1176C114.018 55.3493 114.144 55.6994 114.144 56.168C114.144 56.2658 114.141 56.3405 114.137 56.392L113.99 58.2379C113.979 58.3821 113.93 58.4928 113.843 58.57C113.761 58.6473 113.647 58.6859 113.503 58.6859C113.369 58.6859 113.261 58.6447 113.179 58.5623C113.101 58.4748 113.068 58.364 113.078 58.2302L113.086 58.0834C112.983 58.2791 112.839 58.431 112.653 58.5391C112.468 58.6473 112.257 58.7013 112.02 58.7013C111.773 58.7013 111.549 58.655 111.348 58.5623C111.152 58.4645 110.998 58.3332 110.885 58.1684C110.772 57.9985 110.715 57.8079 110.715 57.5968C110.715 57.3085 110.787 57.0794 110.931 56.9094C111.08 56.7344 111.317 56.6082 111.642 56.531C111.966 56.4486 112.399 56.4074 112.939 56.4074H113.217L113.225 56.2607C113.246 56.0032 113.197 55.8127 113.078 55.6891C112.96 55.5655 112.772 55.5038 112.514 55.5038C112.211 55.5038 111.863 55.6042 111.472 55.805C111.405 55.8359 111.34 55.8513 111.279 55.8513C111.186 55.8513 111.109 55.8204 111.047 55.7586C110.985 55.6917 110.954 55.6119 110.954 55.5192C110.954 55.4523 110.975 55.3853 111.016 55.3184C111.057 55.2463 111.116 55.1871 111.194 55.1407C111.379 55.0275 111.598 54.9374 111.85 54.8704C112.102 54.8035 112.36 54.77 112.623 54.77ZM112.267 58.0062C112.509 58.0062 112.713 57.9212 112.877 57.7513C113.048 57.5763 113.143 57.3549 113.163 57.0871L113.179 56.9172H112.962C112.633 56.9172 112.373 56.9352 112.182 56.9712C111.997 57.0073 111.863 57.0691 111.781 57.1566C111.698 57.239 111.657 57.3523 111.657 57.4964C111.657 57.6509 111.711 57.7745 111.819 57.8672C111.933 57.9599 112.082 58.0062 112.267 58.0062Z" fill="#323844"></path><path fill-rule="evenodd" clip-rule="evenodd" d="M124.491 41.2267C123.168 41.6065 121.126 43.5437 120.635 44.5313C121.126 42.2523 121.542 38.4919 119.841 36.5927C119.312 35.9849 118.518 35.6431 117.686 35.4912C117.27 35.4152 116.854 35.4152 116.438 35.4532C116.022 35.4912 115.644 35.5671 115.266 35.6811C114.926 35.795 114.585 35.9849 114.321 36.1749C114.056 36.4028 113.867 36.6307 113.791 36.9345C113.754 37.0865 113.867 37.2384 114.056 37.2764C114.207 37.3144 114.359 36.9725 114.737 36.7446C114.926 36.6307 115.153 36.5167 115.455 36.4787C115.757 36.4408 116.136 36.5167 116.589 36.6687C116.967 36.8206 117.308 37.0485 117.572 37.3144C117.837 37.5803 118.026 37.9221 118.177 38.264C118.328 38.6058 118.442 39.0236 118.48 39.4795C118.518 39.8973 118.555 40.3531 118.518 40.8469C118.48 41.3407 118.442 41.8345 118.328 42.3283C118.215 42.822 118.102 43.3538 117.95 43.8856C117.912 43.9995 117.875 44.1515 117.837 44.2654C117.799 44.3794 117.761 44.5313 117.724 44.6452C117.686 44.7592 117.648 44.9111 117.61 45.0631C117.572 45.215 117.534 45.329 117.497 45.4809C117.459 45.6328 117.421 45.7468 117.345 45.8987C117.308 46.0507 117.27 46.1646 117.194 46.3166C117.156 46.4685 117.118 46.5824 117.043 46.6964C117.005 46.8103 116.967 46.9243 116.892 47.0382C116.816 47.2282 116.741 47.3801 116.665 47.532C116.665 47.532 116.627 47.608 116.627 47.684C116.589 47.7599 116.551 47.8739 116.514 48.0258C116.514 48.0258 116.514 48.0638 116.476 48.0638C116.4 48.1398 116.325 48.2537 116.249 48.3677C116.173 48.4816 116.06 48.6335 115.947 48.7855C115.833 48.9374 115.72 49.0894 115.606 49.2413C115.493 49.3932 115.379 49.5452 115.266 49.6971C115.153 49.8111 115.077 49.963 114.963 50.0769C114.888 50.1909 114.775 50.2669 114.699 50.3808C114.548 50.5327 114.396 50.6847 114.245 50.7986C114.132 50.8746 114.056 50.9506 113.943 51.0265C113.867 51.1025 113.754 51.1405 113.678 51.2165C113.527 51.3304 113.375 51.3684 113.224 51.4444C113.187 51.3684 113.149 51.2545 113.111 51.1405C113.111 51.0265 113.111 50.8366 113.111 50.6847C113.111 50.4948 113.149 50.3049 113.187 50.1149C113.224 50.001 113.224 49.925 113.262 49.8111C113.3 49.6971 113.3 49.5831 113.338 49.4692C113.375 49.3553 113.413 49.2413 113.451 49.1273C113.489 49.0134 113.527 48.8995 113.565 48.7855C113.602 48.6715 113.64 48.5576 113.678 48.4057C113.716 48.2917 113.754 48.1778 113.791 48.0258C113.867 47.8359 113.943 47.646 113.981 47.4561C114.056 47.2662 114.132 47.0762 114.207 46.8863C114.283 46.6964 114.359 46.5065 114.434 46.3166C114.51 46.1266 114.585 45.9747 114.623 45.7848C114.888 45.1011 115.077 44.5693 115.153 44.3034C115.19 44.0755 115.266 43.8096 115.304 43.5057C115.342 43.2019 115.379 42.936 115.342 42.6321C115.304 42.0624 115.077 41.5686 114.472 41.3787C114.056 41.2647 113.565 41.3787 113.111 41.6825C112.884 41.8345 112.62 42.0244 112.393 42.2143C112.166 42.4042 111.901 42.6701 111.674 42.898C111.372 43.2399 111.069 43.5437 110.842 43.8856C110.578 44.1895 110.351 44.4933 110.2 44.7212C110.011 44.9491 109.897 45.1011 109.822 45.177L110.124 43.5817C110.2 43.2019 110.2 42.7081 110.011 42.2903C109.859 41.8724 109.595 41.5686 109.141 41.4546C108.801 41.3787 108.498 41.4166 108.196 41.5306C107.893 41.6445 107.591 41.8724 107.326 42.1383C107.062 42.4042 106.759 42.7461 106.495 43.0879C106.23 43.4678 105.965 43.8476 105.738 44.2275C105.549 44.5313 105.36 44.8732 105.209 45.177C104.944 45.6328 104.718 46.0886 104.491 46.4305C104.264 46.7724 104.075 47.0762 103.886 47.2282C103.961 46.8483 104.075 46.4685 104.226 46.0507C104.34 45.6708 104.491 45.253 104.566 44.8352C104.793 44.0375 104.907 43.2019 104.718 42.5182C104.604 42.0624 104.188 41.6065 103.697 41.4546C103.167 41.3027 102.638 41.3787 102.26 41.4926C102.109 41.5306 101.769 41.6445 101.504 41.7965C101.05 42.0244 101.164 42.2523 101.579 42.2903C101.769 42.2903 101.958 42.3283 102.184 42.3662C102.411 42.4422 102.487 42.7461 102.525 43.0879C102.562 43.4298 102.525 43.8096 102.449 44.0375C102.373 44.3034 102.26 44.6452 102.109 45.0251C101.958 45.4049 101.769 45.7848 101.579 46.2026C101.391 46.6204 101.126 47.0762 100.899 47.532C100.634 47.9878 100.37 48.4436 100.105 48.8615C99.8403 49.2793 99.5377 49.6591 99.2732 50.001C99.0086 50.3428 98.7438 50.6467 98.4792 50.8366C98.1012 51.1405 97.345 51.6723 97.5341 50.6467C97.5718 50.3808 97.6852 50.0769 97.7987 49.7351C97.9121 49.3932 98.1012 49.0134 98.2524 48.5956C98.4035 48.1778 98.5549 47.7979 98.6683 47.3801C98.7818 47.0003 98.8572 46.6204 98.8952 46.2786C98.8952 45.9367 98.8572 45.6328 98.706 45.4049C98.5549 45.177 98.3281 44.9871 97.9498 44.8732C97.7609 44.8352 97.4207 44.7972 97.1181 44.7972C96.7778 44.7972 96.4753 44.8352 96.2484 44.9111C96.0973 44.9491 95.9082 44.9871 96.0596 45.139C96.3999 45.4429 96.5133 45.5948 96.173 46.2786C96.0216 46.6204 95.7193 47.1522 95.4167 47.646C95.1142 48.1398 94.7739 48.6335 94.5094 48.9374C94.1691 49.3173 92.9214 50.9506 92.43 50.7986C91.9383 50.6467 91.7872 50.039 91.7872 49.5831C91.7495 49.1273 91.8629 48.4057 92.0517 47.532C92.1652 47.1142 92.2786 46.6584 92.43 46.2026C92.5811 45.7468 92.7323 45.291 92.9214 44.8732C93.1106 44.4553 93.2994 44.0375 93.5262 43.6957C93.7531 43.3538 93.9799 43.012 94.2448 42.7841C94.5094 42.5182 94.7739 42.3283 95.0765 42.2523C95.379 42.1383 95.6813 42.1383 95.9839 42.2523C96.2107 42.3283 96.2107 42.822 96.135 43.0499C95.9839 43.5437 95.6436 43.5817 95.6436 43.6957C95.5679 43.9236 96.0216 44.0755 96.5887 44.1135C97.1558 44.1515 97.7987 44.0375 98.1766 43.8476C98.4415 43.6957 98.6303 43.5057 98.7438 43.2779C98.8572 43.0499 98.8195 42.7841 98.6303 42.4802C98.4035 42.1383 98.1012 41.8724 97.7609 41.6825C97.4207 41.4926 97.0424 41.3787 96.6267 41.3407C96.2107 41.3027 95.757 41.3407 95.3033 41.4166C94.8496 41.4926 94.3959 41.6445 93.9422 41.7965C93.4885 41.9864 93.0726 42.2143 92.6946 42.4422C92.3166 42.7081 91.9383 43.012 91.636 43.3158C91.3712 43.5817 91.0309 43.9615 90.7664 44.2654C90.5395 44.5313 90.2369 44.9871 89.9724 45.5189C89.7078 46.0127 89.443 46.5824 89.3296 47.0003C89.1784 47.532 88.9893 48.4816 88.9516 49.0514C88.9516 49.2793 88.8004 49.6211 88.6113 49.963C88.3844 50.3049 88.0819 50.6847 87.7796 51.0265C87.4393 51.3684 87.0611 51.6343 86.7208 51.8242C86.3428 52.0141 86.0025 52.0901 85.738 51.9761C85.1709 51.7862 85.2843 51.3304 85.322 50.9126C85.322 50.6847 85.3597 50.4188 85.4354 50.1149C85.5111 49.8111 85.5866 49.5072 85.7 49.1653C85.8134 48.8235 85.9268 48.4436 86.0403 48.1018C86.1537 47.722 86.3051 47.3421 86.4562 46.9623C87.0234 45.4429 87.7039 43.9236 88.0819 43.012C88.1576 42.86 88.1576 42.822 88.1953 42.822C88.4222 42.7841 88.7624 42.7461 89.1407 42.6701C89.5187 42.5941 89.9347 42.4802 90.3504 42.3283C90.7664 42.1763 91.1823 41.9864 91.5226 41.6825C91.8629 41.4166 92.1652 41.0748 92.3543 40.619C92.5054 40.2392 91.636 40.581 91.4469 40.6569C90.9555 40.8089 90.5395 40.7709 90.1235 40.7329C89.7078 40.6949 89.3296 40.581 88.9893 40.6569C89.1407 39.9353 89.6321 38.5678 89.481 37.9601C89.1407 36.5547 87.4771 35.757 86.4939 36.1369C86.1917 36.4787 86.3051 36.3648 86.6454 36.6307C87.0611 36.9725 86.7588 38.3779 86.6454 38.7958C86.6074 38.9477 86.2294 40.3911 86.2294 40.4291C84.4523 40.3151 82.7132 41.3027 81.7681 42.822C81.6167 43.0879 81.9193 43.1259 82.0327 42.974C82.0704 42.936 82.0704 42.898 82.1461 42.86C82.7889 42.4042 84.4146 42.2523 85.4731 42.5941C85.1329 43.7337 84.4903 45.4429 83.9609 46.9243C83.8098 47.3041 83.6963 47.646 83.5829 47.9878C83.4695 48.3297 83.3938 48.5956 83.3181 48.8615C83.2046 49.2033 83.0912 49.6971 83.0912 50.1529C83.0535 50.6087 83.0912 51.1025 83.2426 51.3684C83.3938 51.7103 83.6583 52.0141 83.9609 52.28C84.3012 52.5079 84.7172 52.6978 85.2086 52.6978C85.6246 52.6978 86.0025 52.6599 86.3428 52.5839C86.6831 52.5079 86.9856 52.394 87.2502 52.242C87.5148 52.0901 87.7796 51.9382 88.0065 51.7862C88.2333 51.6343 88.4222 51.4444 88.5736 51.2545C88.9139 50.9126 89.1407 50.5707 89.3296 50.3808C89.4053 50.7227 89.6698 51.1785 90.0101 51.5583C90.3884 51.9382 90.8041 52.2041 91.2201 52.2041C93.2994 52.0901 94.5094 50.1529 95.6813 48.6715C95.4925 49.2033 95.1899 50.039 95.1142 50.7986C95.0765 51.1785 95.1142 51.5203 95.2276 51.8242C95.341 52.1281 95.5679 52.356 95.9462 52.4699C96.2107 52.5459 96.5887 52.5079 96.967 52.4319C97.345 52.356 97.6852 52.242 97.9121 52.1281C98.1012 52.0521 98.2901 51.9002 98.5169 51.7103C98.7438 51.5203 98.9706 51.2924 99.2355 51.0265C99.5 50.7607 99.7269 50.4948 99.9914 50.1909C100.256 49.887 100.483 49.5831 100.71 49.2413C100.937 48.9374 101.164 48.5956 101.353 48.3297C101.542 48.0258 101.693 47.7599 101.806 47.532C101.806 47.7979 101.579 48.3297 101.353 48.9374C101.239 49.2413 101.126 49.5831 101.05 49.925C100.975 50.2669 100.937 50.6087 100.937 50.9126C100.937 51.2165 101.012 51.5203 101.201 51.7482C101.353 51.9761 101.617 52.2041 101.995 52.318C102.373 52.4319 103.13 52.6599 103.281 52.2041C103.319 52.0141 102.865 51.6343 103.054 50.9886C103.167 50.6467 103.356 50.2669 103.508 49.887C103.697 49.5072 103.886 49.1273 104.037 48.8235C104.188 48.5196 104.34 48.2158 104.491 47.9499C104.642 47.684 104.793 47.4181 104.944 47.1902C105.096 46.9623 105.247 46.6964 105.398 46.4685C105.549 46.2406 105.701 46.0127 105.852 45.7848C106.003 45.5569 106.154 45.329 106.305 45.1011C106.457 44.8732 106.608 44.6452 106.759 44.3794C106.986 43.9616 107.213 43.7716 107.364 43.8096C107.515 43.8476 107.553 44.1135 107.515 44.6832C107.477 45.0631 107.364 45.4809 107.326 45.7848C107.289 46.1266 107.175 46.5444 107.062 46.9243C106.948 47.3421 106.835 47.722 106.721 48.0258C106.721 48.0258 106.57 48.5576 106.381 49.0894C106.23 49.6211 106.041 50.1909 106.041 50.1909C105.889 50.6847 105.927 51.1785 106.154 51.5963C106.381 51.9761 106.721 52.28 107.175 52.356C107.931 52.4699 108.12 52.5459 107.969 51.7103C107.931 51.4444 107.969 51.1405 108.045 50.8366C108.12 50.5327 108.234 50.2289 108.347 49.963C108.461 49.6591 108.612 49.3553 108.725 49.0514C108.839 48.7855 108.952 48.4816 109.103 48.2158C109.217 47.9119 109.368 47.646 109.519 47.3421C109.67 47.0382 109.822 46.7724 109.973 46.4685C110.124 46.1646 110.275 45.8987 110.464 45.6328C110.616 45.367 110.805 45.1011 110.956 44.8352C111.107 44.5693 111.296 44.3414 111.485 44.1515C112.166 43.3538 112.506 43.3918 112.62 43.7716C112.657 43.9615 112.657 44.2654 112.62 44.5693C112.582 44.8732 112.506 45.215 112.393 45.5189C112.204 46.0507 112.014 46.5824 111.826 47.0003C111.674 47.4181 111.523 47.722 111.485 47.7979C111.372 48.0638 111.258 48.3677 111.183 48.6715C111.069 48.9754 110.956 49.3173 110.88 49.6591C110.805 50.001 110.729 50.3428 110.729 50.6467C110.729 50.9886 110.729 51.2924 110.842 51.5583C110.994 51.9382 111.183 52.2041 111.447 52.356C111.712 52.5079 112.052 52.5839 112.468 52.5459C112.695 52.5459 112.997 52.4319 113.338 52.28C113.489 52.2041 113.678 52.1281 113.829 52.0141C113.905 51.9761 114.018 51.9002 114.094 51.8622C114.169 51.7862 114.283 51.7482 114.359 51.6723C114.434 51.5963 114.548 51.5203 114.661 51.4444C114.775 51.3684 114.85 51.2545 114.963 51.1785C115.077 51.0645 115.19 50.9506 115.304 50.8366C115.417 50.6847 115.569 50.5327 115.682 50.3808C115.795 50.2289 115.909 50.0769 116.06 49.925C116.098 49.8491 116.173 49.8111 116.211 49.7351H116.249C116.136 50.039 116.022 50.3428 115.909 50.6847C115.795 51.0265 115.72 51.3684 115.606 51.7482C115.531 52.1281 115.455 52.5079 115.379 52.9257C115.304 53.3436 115.266 53.7614 115.228 54.1792C115.19 54.597 115.19 55.0148 115.19 55.4327C115.19 55.8505 115.228 56.2683 115.266 56.6482C115.304 57.028 115.379 57.4078 115.455 57.7497C115.531 58.0915 115.644 58.4334 115.795 58.7753C116.287 59.9527 117.005 60.8644 117.421 59.9148C117.459 59.7248 117.118 59.4589 117.043 59.1551C116.967 58.8892 116.967 58.5473 116.967 58.1675C117.005 57.7877 117.043 57.4078 117.156 56.99C117.232 56.5722 117.345 56.1544 117.459 55.7365C117.572 55.3187 117.686 54.9389 117.761 54.635C117.761 54.635 117.837 54.4071 117.95 54.0652C118.064 53.7234 118.215 53.3056 118.328 52.8498C118.48 52.4319 118.593 52.0141 118.706 51.7103C118.82 51.4064 118.858 51.2165 118.858 51.2165C119.085 51.3304 119.425 51.6343 120.03 51.7103C120.484 51.7862 120.937 51.7862 121.353 51.7103C121.731 51.6723 122.109 51.5583 122.449 51.4064C122.79 51.2924 123.168 51.1025 123.47 50.9126C123.811 50.7227 124.113 50.4948 124.416 50.2289C124.718 49.963 125.02 49.6591 125.285 49.3553C125.55 49.0134 125.814 48.6715 126.079 48.2917C126.306 47.9119 126.533 47.532 126.722 47.1522C127.1 46.3925 127.402 45.6328 127.554 44.9491C128.007 42.4042 127.176 40.467 124.491 41.2267ZM124.378 45.5189C124.264 46.0127 124.075 46.5065 123.886 46.9623C123.697 47.4181 123.47 47.8359 123.243 48.1398C123.13 48.3297 122.979 48.4816 122.903 48.6335C122.79 48.8235 122.639 49.0514 122.449 49.2413C122.261 49.4692 122.034 49.6591 121.807 49.8491C121.58 50.039 121.315 50.2289 121.051 50.3808C120.786 50.5327 120.483 50.6467 120.219 50.7227C119.841 50.7986 119.463 50.7986 119.122 50.6847C118.858 50.5707 118.933 50.3428 119.009 50.1909C119.085 49.925 119.16 49.6211 119.274 49.2793C119.387 48.9374 119.5 48.5956 119.614 48.2537C119.727 47.9119 119.879 47.57 119.992 47.2282C120.143 46.8863 120.294 46.5444 120.446 46.2786C120.597 45.9747 120.937 45.4429 121.315 44.9111C122.109 43.8476 123.206 42.7081 124.075 42.936C124.794 43.1259 124.567 44.7972 124.378 45.5189Z" fill="#323844"></path><path fill-rule="evenodd" clip-rule="evenodd" d="M74.0899 38.8336C73.2583 41.6065 75.2619 42.9359 76.8498 44.6072C77.5304 45.3289 78.3243 46.4304 78.816 47.266C79.1183 47.7598 79.3074 48.1776 79.3832 48.8234C79.7611 51.4443 74.8082 53.3055 72.9934 50.4567C72.4643 49.659 72.3886 49.0513 72.7288 47.9498C72.9934 47.0381 74.3168 46.2405 75.3376 46.5064C75.5267 46.5444 75.6022 46.6583 75.6779 46.8482C75.867 47.266 76.1316 47.1521 76.0939 46.7722C75.9047 45.025 70.1578 45.4808 69.3261 48.2536C68.0407 52.4698 76.2827 54.9008 80.0637 50.8745C81.5759 49.2792 82.3699 47.0381 81.1222 45.1389C79.8746 43.2018 77.3792 40.8847 76.661 39.4414C76.5096 39.1755 76.2827 38.3398 76.3961 37.96C77.0767 35.681 81.5759 35.2252 80.7443 37.922V38.074C80.2906 39.5933 79.0049 39.3274 78.8538 39.7073C78.816 39.7452 79.0049 40.0111 79.194 40.0871C79.2697 40.1251 79.4586 40.1251 79.6854 40.0871C80.1014 40.0491 80.6685 39.8972 80.8197 39.8592C81.4248 39.6693 82.2188 39.2894 82.6345 38.7577C84.9409 35.7569 79.6854 34.5035 76.8878 35.9848C76.0939 36.4027 74.4679 37.6941 74.0899 38.8336Z" fill="#323844"></path><path fill-rule="evenodd" clip-rule="evenodd" d="M53.5237 45.9368C53.675 46.1647 53.8262 46.3926 54.0152 46.6205C54.1665 46.8484 54.3555 47.0383 54.5446 47.2662C54.7336 47.4941 54.8849 47.684 55.0738 47.9119C55.2629 48.1398 55.414 48.3677 55.6032 48.6336C56.0569 49.3933 56.5863 50.7227 55.1872 50.9507C53.6372 51.1026 52.881 48.3677 53.5237 48.3297C53.6372 48.1398 53.4859 47.8739 53.1456 47.9119C52.7676 47.9879 52.4273 48.1778 52.1248 48.4437C51.8224 48.7096 51.5577 49.0515 51.4065 49.3933C51.2553 49.6212 50.8394 50.039 50.3479 50.4189C49.8563 50.7987 49.327 51.1026 49.0246 51.0266C49.138 50.6847 49.2892 50.3809 49.4026 50.077C49.5161 49.7731 49.6673 49.5073 49.7807 49.2414C49.8942 48.9755 50.0454 48.7096 50.1588 48.4437C50.2722 48.1778 50.4235 47.9119 50.5369 47.684C50.6503 47.4181 50.8016 47.1523 50.9528 46.8864C51.0284 46.7344 51.104 46.6205 51.1796 46.4686C51.2553 46.3166 51.3309 46.2027 51.4065 46.0507C51.4821 45.8608 51.5955 45.6709 51.709 45.405C51.7468 45.291 51.8224 45.1771 51.8602 45.0252C51.898 44.9112 51.9736 44.7593 52.0114 44.6453C52.0492 44.5314 52.1248 44.3794 52.1627 44.2655C52.2004 44.1515 52.2382 43.9996 52.2761 43.8856C52.3517 43.6198 52.4273 43.3918 52.4651 43.164C52.5029 42.8981 52.5407 42.7081 52.5029 42.5182C52.5029 42.3283 52.4273 42.1764 52.3517 42.0244C52.2761 41.8725 52.1248 41.7585 51.9736 41.6446C51.7846 41.5306 51.5955 41.4167 51.3309 41.3407C51.2553 41.3407 51.104 41.3027 50.915 41.3027C50.7259 41.3027 50.4613 41.3027 50.2344 41.3407C49.9698 41.3787 49.7051 41.4167 49.4783 41.4926C49.2514 41.5686 49.0624 41.6066 48.9868 41.6446C48.7977 41.7206 48.7977 41.7965 48.9111 41.8345C49.138 41.9105 49.4026 41.7965 49.5917 42.0244C49.6673 42.1004 49.6673 42.2144 49.6673 42.3283C49.6673 42.4422 49.6295 42.5942 49.5539 42.7841C49.5539 42.7841 49.5161 42.8601 49.4783 43.05C49.4405 43.2019 49.327 43.4678 49.2514 43.7717C49.2136 43.9236 49.138 44.1136 49.1002 44.2655C49.0246 44.4554 48.9868 44.6453 48.9111 44.8352C48.8355 45.0252 48.7599 45.2151 48.7221 45.405C48.6465 45.5949 48.5709 45.7848 48.5331 45.9368C48.4575 46.0887 48.4197 46.2406 48.344 46.3926C48.2684 46.5445 48.2306 46.6964 48.155 46.8484C48.0416 47.1523 47.9281 47.4561 47.8147 47.76C47.7013 48.0639 47.5879 48.3297 47.4744 48.6336C47.2476 49.2034 47.0586 49.6972 46.8695 50.039C46.7183 50.4189 46.6049 50.6088 46.6049 50.6088C46.4158 51.1026 46.2646 51.5584 46.3402 51.9003C46.378 52.2421 46.6049 52.508 47.1342 52.6219C47.4744 52.6979 47.8525 52.6599 48.2306 52.508C48.6087 52.356 48.9868 52.1661 49.3648 51.9382C49.7429 51.7103 50.0832 51.4444 50.3857 51.2165C50.6881 50.9886 50.9528 50.7607 51.1796 50.6088C51.3309 51.0646 51.5199 51.4444 51.7846 51.7483C52.0492 52.0142 52.3517 52.2421 52.6919 52.356C53.0322 52.47 53.4103 52.546 53.7884 52.508C55.6789 52.432 57.8339 50.7227 57.9474 48.5577C57.9474 48.2538 57.9094 47.9879 57.8717 47.722C57.7959 47.4561 57.7205 47.1902 57.6071 46.9623C57.3803 46.4685 57.04 46.0507 56.7374 45.6709C56.4349 45.329 56.0192 44.8732 55.7543 44.4174C55.6032 44.1895 55.4898 43.9236 55.452 43.6577C55.414 43.3918 55.452 43.126 55.5655 42.8601C55.7543 42.4422 56.1703 42.2903 56.5483 42.3283C56.9266 42.3663 57.3045 42.6322 57.4557 43.012C57.5691 43.2779 57.7205 43.6198 57.6448 43.8476C57.5691 44.1136 57.3423 44.3414 57.5314 44.5694C57.6825 44.7593 58.0985 44.6833 58.5145 44.5314C58.9302 44.3794 59.3462 44.1136 59.4973 43.8856C59.6487 43.6577 59.7242 43.3918 59.6864 43.126C59.6864 42.8601 59.573 42.5942 59.4596 42.4422C59.2328 42.1384 58.9682 41.9105 58.6279 41.7585C58.2876 41.6066 57.9094 41.5306 57.5314 41.5306C57.1534 41.5306 56.624 41.4167 56.246 41.5306C55.83 41.6446 55.452 41.7965 55.0738 41.9864C54.8849 42.1004 54.7336 42.2144 54.5446 42.3283C54.3933 42.4422 54.2421 42.5942 54.0909 42.7081C53.9396 42.8601 53.8262 42.974 53.7128 43.126C53.5993 43.2779 53.4859 43.4298 53.4103 43.6198C53.3347 43.8097 53.2591 43.9616 53.2213 44.1515C53.1835 44.3414 53.1456 44.5314 53.1456 44.7213C53.1456 44.9112 53.1835 45.1011 53.2213 45.329C53.2969 45.5569 53.4103 45.7468 53.5237 45.9368Z" fill="#323844"></path><path fill-rule="evenodd" clip-rule="evenodd" d="M69.2908 48.7479C69.6688 48.3681 70.009 47.9502 70.3493 47.4944C70.2736 47.4185 70.1602 47.3805 70.0467 47.4185C69.9333 47.4564 69.8579 47.5324 69.7822 47.6084C68.5722 48.8998 67.1734 50.0013 65.6232 50.875C64.9049 51.2928 63.9598 51.5967 63.0901 51.3688C61.5779 50.913 61.6913 48.9758 61.9182 48.1401C63.2413 48.482 64.9049 48.0642 66.0392 47.3805C71.6727 43.886 66.6063 38.3783 61.9559 43.1642C60.2923 44.8735 58.5532 47.3805 59.158 49.8874C59.574 51.7486 61.1619 52.5842 63.1279 52.3943C63.8084 52.3184 64.5269 52.0145 65.1318 51.7486C65.8123 51.4447 66.4552 51.0649 67.06 50.6091C67.8917 50.0773 68.6102 49.4316 69.2908 48.7479ZM64.2244 42.8984C64.5647 42.5185 65.1318 42.1767 65.5855 42.4046C66.9466 43.1263 65.0941 46.127 64.4135 46.8487C63.695 47.4944 63.1279 47.5704 62.107 47.3805C62.5607 45.4813 63.0901 44.5317 64.2244 42.8984Z" fill="#323844"></path><path fill-rule="evenodd" clip-rule="evenodd" d="M50.9921 35.1494C50.8409 35.2254 50.7274 35.3773 50.9165 35.5293C51.3323 35.8711 51.1433 35.2254 51.786 35.7192C52.0507 35.9091 52.2019 36.251 52.1641 36.5548C52.0129 37.6564 51.5214 38.606 50.9543 39.5175C50.8409 39.6695 50.7274 39.7835 50.7652 39.9734C50.8409 40.2013 50.9165 40.2393 51.1055 40.0873C52.1641 39.3276 52.9959 38.9478 54.1302 37.8843C54.6217 37.3905 55.0376 36.7827 54.5839 36.137C54.2058 35.6432 53.6008 35.3773 52.9203 35.2254C52.4288 35.0735 51.4458 34.9215 50.9921 35.1494Z" fill="#323844"></path><path fill-rule="evenodd" clip-rule="evenodd" d="M41.6903 37.6944C45.4333 37.1627 43.8454 42.5564 43.2783 44.6835C42.9002 46.0129 40.4049 51.4066 38.8926 51.7105C37.7583 51.9384 38.2876 49.9252 38.4389 49.3555C38.8547 47.8741 39.4975 46.3547 39.9134 44.9114C40.1402 44.0377 40.4427 43.1641 39.9134 42.1765C39.3841 41.1889 37.7961 40.5812 37.229 41.075C37.1912 41.4548 37.5693 41.3029 37.6071 41.6447C37.7583 43.6959 36.2838 47.4943 35.0739 49.0516C28.7222 57.1802 33.7506 43.7719 34.469 41.7967C36.5485 35.1495 28.0794 33.1744 26.1512 38.796L26.0756 39.1378C26 39.3277 26 39.5556 26 39.8215C26.0756 40.6192 26.3025 41.4548 27.3233 41.7587C27.9282 41.9486 28.5331 41.7587 28.76 41.113C28.8356 40.9231 28.949 40.3533 28.6088 40.2773C28.4953 40.2394 28.5331 40.3913 28.1929 40.2014C27.2855 39.5936 27.2855 38.1882 27.8148 37.3146C28.1173 36.7828 28.6466 36.4789 29.1381 36.251C30.1967 35.7193 31.7846 36.2131 32.0115 37.5045C32.4274 39.7456 30.9529 42.5564 30.0076 45.5191C29.2137 48.026 28.0794 54.4073 32.7298 52.0143C34.28 51.2167 35.452 49.4314 35.6789 49.3555C35.6033 50.9888 36.2838 53.1539 38.2876 52.888C41.766 52.5081 50.1594 41.3789 46.4164 37.5425C44.7906 35.8712 42.1819 36.9727 41.6147 37.5045C41.3879 37.6944 41.5013 37.7324 41.6903 37.6944Z" fill="#323844"></path><path fill-rule="evenodd" clip-rule="evenodd" d="M50.9921 35.1494C50.8409 35.2254 50.7274 35.3773 50.9165 35.5293C51.3323 35.8711 51.1433 35.2254 51.786 35.7192C52.0507 35.9091 52.2019 36.251 52.1641 36.5548C52.0129 37.6564 51.5214 38.606 50.9543 39.5175C50.8409 39.6695 50.7274 39.7835 50.7652 39.9734C50.8409 40.2013 50.9165 40.2393 51.1055 40.0873C52.1641 39.3276 52.9959 38.9478 54.1302 37.8843C54.6217 37.3905 55.0376 36.7827 54.5839 36.137C54.2058 35.6432 53.6008 35.3773 52.9203 35.2254C52.4288 35.0735 51.4458 34.9215 50.9921 35.1494Z" fill="#323844"></path></g></svg> 