<?xml version="1.0" encoding="UTF-8"?> <svg xmlns="http://www.w3.org/2000/svg" width="152" height="88" viewBox="0 0 152 88" fill="none"><g clip-path="url(#clip0_6741_2656)"><path d="M37.9648 37.1765H39.6732C39.9698 39.849 41.924 41.2848 44.6957 41.2848C47.1457 41.2848 49.3723 40.1215 49.3723 37.9681C49.3723 36.014 47.664 35.2465 45.1907 34.6531L43.2607 34.2073C40.1923 33.4656 38.5098 32.179 38.5098 29.6548C38.5098 26.7348 41.3307 24.7798 44.6215 24.7798C48.0857 24.7798 50.4607 26.6365 50.8073 29.9023H49.0998C48.8032 27.6756 47.1948 26.2898 44.6215 26.2898C42.2707 26.2898 40.1923 27.6015 40.1923 29.5315C40.1923 31.3123 41.454 32.0298 43.7307 32.5498L45.834 33.0698C49.0007 33.8115 51.104 35.049 51.104 37.8198C51.104 41.1606 47.9123 42.769 44.6957 42.769C41.009 42.769 38.2623 40.8873 37.9648 37.1765ZM60.0973 42.4715H58.1673L51.4865 25.1523H53.3423L59.1815 40.5181L65.0215 25.1523H66.7782L60.0973 42.4715ZM80.314 42.4715H68.5115V25.1523H80.1407V26.6615H70.219V32.7731H79.4973V34.2831H70.219V40.9631H80.314V42.4715ZM93.9649 37.5231H85.4282L83.424 42.4715H81.6674L88.7932 25.1515H90.699L97.824 42.4715H95.9699L93.9649 37.5231ZM93.3707 36.014L89.709 26.9331L86.0224 36.014H93.3707ZM37.9648 57.6273H39.6732C39.9698 60.299 41.924 61.7348 44.6957 61.7348C47.1457 61.7348 49.3723 60.5715 49.3723 58.419C49.3723 56.464 47.664 55.6973 45.1907 55.1031L43.2607 54.6581C40.1923 53.9165 38.5098 52.629 38.5098 50.1056C38.5098 47.1856 41.3307 45.2306 44.6215 45.2306C48.0857 45.2306 50.4607 47.0865 50.8073 50.3523H49.0998C48.8032 48.1256 47.1948 46.7398 44.6215 46.7398C42.2707 46.7398 40.1923 48.0515 40.1923 49.9815C40.1923 51.7631 41.454 52.4806 43.7307 52.9998L45.834 53.5198C49.0007 54.2614 51.104 55.499 51.104 58.2698C51.104 61.6115 47.9123 63.2198 44.6957 63.2198C41.009 63.2198 38.2623 61.339 37.9648 57.6273ZM72.1423 45.6015H73.8748V61.4131H82.7823V62.9215H72.1423V45.6015ZM96.1532 57.9739H87.6165L85.6123 62.9223H83.8557L90.9815 45.6015H92.8865L100.013 62.9223H98.1574L96.1532 57.9739ZM95.559 56.464L91.8974 47.3831L88.2107 56.464H95.559ZM102.76 55.5239V62.9223H101.052V45.6015H108.104C111.84 45.6015 113.671 47.7048 113.671 50.5265C113.671 53.3465 111.89 54.9548 109.588 55.3265V55.3515C109.787 55.6973 109.91 55.8956 110.182 56.3898L114.042 62.9223H112.038L107.931 55.8706C107.757 55.5731 107.708 55.5239 107.312 55.5239H102.76ZM102.76 54.0398H107.98C110.627 54.0398 111.939 52.604 111.939 50.5756C111.939 48.5215 110.603 47.1115 107.956 47.1115H102.759L102.76 54.0398ZM61.1498 45.8731C62.7995 45.8734 64.4121 46.3629 65.7836 47.2796C67.1551 48.1964 68.224 49.4992 68.8552 51.0233C69.4863 52.5475 69.6514 54.2246 69.3295 55.8426C69.0076 57.4605 68.2131 58.9467 67.0466 60.1132C65.8801 61.2797 64.3939 62.0742 62.776 62.3961C61.158 62.718 59.4809 62.553 57.9567 61.9218C56.4326 61.2906 55.1298 60.2217 54.213 58.8502C53.2963 57.4787 52.8068 55.8661 52.8065 54.2164C52.8089 52.0044 53.6887 49.8837 55.2529 48.3195C56.8171 46.7554 58.9378 45.8755 61.1498 45.8731ZM61.1498 45.219C59.3703 45.219 57.6307 45.7466 56.1511 46.7353C54.6715 47.724 53.5182 49.1292 52.8372 50.7733C52.1562 52.4173 51.9781 54.2264 52.3252 55.9718C52.6724 57.7171 53.5293 59.3203 54.7877 60.5786C56.046 61.837 57.6492 62.6939 59.3945 63.0411C61.1399 63.3882 62.949 63.2101 64.593 62.5291C66.2371 61.8481 67.6423 60.6948 68.631 59.2152C69.6197 57.7356 70.1473 55.996 70.1473 54.2164C70.1445 51.831 69.1956 49.5442 67.5089 47.8574C65.8221 46.1707 63.5353 45.2218 61.1498 45.219Z" fill="#323844"></path><path d="M61.1463 47.5067C62.473 47.5073 63.7699 47.9012 64.8729 48.6386C65.9759 49.376 66.8356 50.4238 67.3433 51.6496C67.851 52.8754 67.9839 54.2241 67.7253 55.5255C67.4668 56.8268 66.8282 58.0223 65.8904 58.9609C64.952 59.8991 63.7565 60.538 62.455 60.7968C61.1535 61.0556 59.8046 60.9227 58.5786 60.415C57.3526 59.9072 56.3047 59.0473 55.5674 57.944C54.8301 56.8408 54.4365 55.5437 54.4363 54.2167C54.438 52.4376 55.1455 50.732 56.4035 49.474C57.6615 48.216 59.3672 47.5085 61.1463 47.5067ZM61.1463 46.8525C59.6897 46.8524 58.2659 47.2841 57.0547 48.0932C55.8436 48.9023 54.8996 50.0524 54.3421 51.398C53.7846 52.7436 53.6386 54.2243 53.9227 55.6529C54.2067 57.0814 54.908 58.3937 55.9379 59.4237C56.9677 60.4536 58.2799 61.1551 59.7084 61.4393C61.137 61.7235 62.6177 61.5777 63.9634 61.0204C65.309 60.463 66.4592 59.5192 67.2684 58.3081C68.0777 57.0971 68.5096 55.6732 68.5096 54.2167C68.5074 52.2644 67.7309 50.3927 66.3505 49.0122C64.9701 47.6316 63.0985 46.855 61.1463 46.8525Z" fill="#323844"></path></g><defs><clipPath id="clip0_6741_2656"><rect width="76.6667" height="40" fill="#323844" transform="translate(37.668 24)"></rect></clipPath></defs></svg> 