<?xml version="1.0" encoding="UTF-8"?> <svg xmlns="http://www.w3.org/2000/svg" width="154" height="88" viewBox="0 0 154 88" fill="none"><g clip-path="url(#clip0_6741_2736)"><path d="M50.043 36.9468C49.2282 40.0145 48.4393 42.9736 47.5961 46.1551L44.8646 36.9468H40.6588L37.9428 46.1422L36.3443 40.1697H32.3945C33.4576 43.7134 34.4923 47.2751 35.5631 50.7722H39.769C40.7519 47.7769 41.7348 44.7273 42.7695 41.5846C43.8041 44.7377 44.7844 47.8054 45.7596 50.7852H49.9835C51.357 46.2095 52.7124 41.626 54.1221 36.9597L50.043 36.9468Z" fill="#323844"></path><path d="M58.8359 47.4381L58.0599 46.7578V46.1422L58.8359 45.4361H64.3169V47.4381H68.0158V39.5541L64.9558 36.9468H56.1949C56.1949 38.0099 56.1949 39.0368 56.1949 40.1594H63.2642L64.2755 41.1061V42.1407H57.1158L54.2188 44.7765V48.1908L57.1675 50.7774H61.1768V47.4381H58.8359Z" fill="#323844"></path><path d="M100.24 47.4898H91.7792L90.2867 46.1603V41.5277L91.6576 40.2163H96.3937V44.1712H100.232V36.9468H89.966L86.4844 40.0637V47.6399L90.028 50.7722H96.373V51.781L94.8909 53.0743H88.0363C88.0363 53.9771 88.0363 55.0738 88.0363 56.0076V56.2895H96.7869L100.23 53.0226" fill="#323844"></path><path d="M75.284 36.9468L73.8122 38.1935L73.4398 36.9468H70.1289C70.1289 41.3958 70.1289 45.7413 70.1289 50.1023C70.1289 52.0966 70.1289 56.3257 70.1289 56.3257C70.1289 56.3257 72.6664 56.3412 73.9416 56.3257V50.7593V43.315V41.2845L75.1056 40.2111H79.2053L80.5969 41.4785V46.1913L79.2441 47.451H77.1516V50.7722H80.9953C82.1955 49.6626 83.3232 48.6072 84.4148 47.6036V40.0714L81.0186 36.9468H75.284Z" fill="#323844"></path><path d="M107.407 36.9468L105.914 38.1858L105.532 36.9468H102.309V47.5002L106.051 47.4821V41.2742L107.265 40.193H113.095C113.11 39.0575 113.121 38.0151 113.095 36.952L107.407 36.9468Z" fill="#323844"></path><path d="M115.18 47.4872H118.886V36.9468H115.195L115.18 47.4872Z" fill="#323844"></path><path d="M115.148 34.7713H118.899V31H115.151L115.148 34.7713Z" fill="#323844"></path><path d="M135.273 32.1329V31H131.455C131.455 32.8494 131.455 35.0791 131.455 36.9492H124.401L120.969 40.1101V47.6268L124.463 50.7721H128.128V47.4612H126.155L124.8 46.1679V41.5043L126.142 40.2291H131.414V44.1711H135.273C135.273 40.1411 135.273 36.1284 135.273 32.1329Z" fill="#323844"></path><path d="M27.7842 43.62L31.2373 40.1694H26.3227L19 47.487H23.9146L27.7842 43.62Z" fill="#323844"></path><path d="M26.3279 36.9468H19V40.7595H26.3279V36.9468Z" fill="#323844"></path><path d="M31.238 46.957H23.9102V50.7697H31.238V46.957Z" fill="#323844"></path></g><defs><clipPath id="clip0_6741_2736"><rect width="116.274" height="25.3333" fill="#323844" transform="translate(19 31)"></rect></clipPath></defs></svg> 