<?xml version="1.0" encoding="UTF-8"?> <svg xmlns="http://www.w3.org/2000/svg" width="152" height="88" viewBox="0 0 152 88" fill="none"><g clip-path="url(#clip0_6741_2754)"><path fill-rule="evenodd" clip-rule="evenodd" d="M55.4014 55.1831C61.1382 55.1831 65.7887 50.5325 65.7887 44.7958C65.7887 39.059 61.1382 34.4085 55.4014 34.4085C49.6646 34.4085 45.0141 39.059 45.0141 44.7958C45.0141 50.5325 49.6646 55.1831 55.4014 55.1831ZM55.4014 56.5916C56.7589 56.5916 58.0629 56.3622 59.2766 55.9402L59.7563 56.6253C60.6486 57.8997 62.4049 58.2094 63.6796 57.317C64.9539 56.4247 65.2637 54.6682 64.3711 53.3938L64.0028 52.8677C65.9838 50.7576 67.1972 47.9184 67.1972 44.7958C67.1972 38.2812 61.9162 33 55.4014 33C48.8868 33 43.6056 38.2812 43.6056 44.7958C43.6056 51.3104 48.8868 56.5916 55.4014 56.5916ZM98.1831 44.2676C98.1831 48.7403 94.5574 52.3662 90.0845 52.3662C85.6116 52.3662 81.9859 48.7403 81.9859 44.2676C81.9859 39.7949 85.6116 36.169 90.0845 36.169C94.5574 36.169 98.1831 39.7949 98.1831 44.2676ZM93.2535 44.2676C93.2535 46.6012 91.8349 48.493 90.0845 48.493C88.3342 48.493 86.9155 46.6012 86.9155 44.2676C86.9155 41.934 88.3342 40.0423 90.0845 40.0423C91.8349 40.0423 93.2535 41.934 93.2535 44.2676ZM114.732 37.2254H118.958V48.1408H126V52.3662H118.958H114.732V48.1408V37.2254ZM113.849 46.0282C113.097 49.6544 110.074 52.3662 106.458 52.3662C102.277 52.3662 98.8873 48.7403 98.8873 44.2676C98.8873 39.7949 102.277 36.169 106.458 36.169C110.074 36.169 113.097 38.8808 113.849 42.507H109.179C108.706 41.0524 107.665 40.0423 106.458 40.0423C104.805 40.0423 103.465 41.934 103.465 44.2676C103.465 46.6012 104.805 48.493 106.458 48.493C107.665 48.493 108.706 47.4828 109.179 46.0282H113.849ZM42.9014 44.7958C42.9014 43.3423 43.1495 41.9467 43.6056 40.6491V37.2254H40.7887H39.3803H36.9155L34.8028 45.484L32.6901 37.2254H30.2254H28.8169H26V52.3662H30.2254V42.7311L32.6901 52.3662H33.0423H36.5634H36.9155L39.3803 42.7311V52.3662H43.6056V48.9424C43.1495 47.6449 42.9014 46.2493 42.9014 44.7958ZM67.1972 48.9424C67.6532 47.6449 67.9014 46.2493 67.9014 44.7958C67.9014 43.3423 67.6532 41.9467 67.1972 40.6491V37.2254H67.9014H71.4225H72.1268L76.7042 45.7832V37.2254H80.9296V52.3662H80.2254H76.7042H76L71.4225 43.8083V52.3662H67.1972V48.9424Z" fill="#323844"></path></g><defs><clipPath id="clip0_6741_2754"><rect width="100" height="25" fill="#323844" transform="translate(26 33)"></rect></clipPath></defs></svg> 