<?xml version="1.0" encoding="UTF-8"?> <svg xmlns="http://www.w3.org/2000/svg" width="154" height="88" viewBox="0 0 154 88" fill="none"><path d="M52.85 35.5297H40.0357L36.407 52.5947H48.5785C53.7416 52.5947 55.4211 49.6918 55.8981 47.4317C56.2713 45.5863 55.6492 43.6372 53.7416 43.3054V43.2639C55.4626 42.7663 56.4579 41.1697 56.7482 39.8426C57.4325 36.6701 55.3382 35.5297 52.85 35.5297ZM51.0046 47.328C50.7557 48.4062 50.03 49.3393 48.5993 49.3393H41.7567L42.6276 45.2752H48.9933C50.5899 45.2752 51.2741 46.001 51.0046 47.328ZM51.834 40.4647C51.5437 41.7295 50.7557 42.3101 49.6775 42.3101H43.2289L44.0168 38.6192H49.8227C51.7303 38.64 52.0413 39.4072 51.834 40.4647ZM61.4136 35.5297H65.6228L61.9942 52.5947H57.785L61.4136 35.5297ZM78.7275 39.7804H82.9367L80.2204 52.5947H76.1563L76.5088 50.8737H76.4673C75.4928 51.9519 73.2326 53.0716 70.7859 53.0716C68.6087 53.0716 65.457 52.2422 66.2656 48.4477L68.1111 39.7597H72.3203L70.7444 47.1621C70.3712 48.9246 71.1177 49.7955 73.0668 49.7955C75.3476 49.7955 76.882 48.5306 77.4004 46.1668L78.7275 39.7804ZM94.1544 39.3035C89.095 39.3035 85.259 41.3563 84.243 46.1876C83.2063 51.0189 86.1714 53.0716 91.2515 53.0716C95.1082 53.0716 98.2807 51.8068 100.147 48.7587H95.6473C94.8179 49.8577 93.4909 50.4383 91.7906 50.4383C88.9292 50.4383 88.079 48.5721 88.3486 47.3487V47.3073H100.686L100.748 46.934C101.764 42.1027 99.6907 39.3035 94.1544 39.3035ZM96.8707 44.7776L96.85 44.8191H88.867L88.8877 44.7776C88.9292 44.4666 90.1733 41.9369 93.5116 41.9369C96.5804 41.9369 97.0159 44.0726 96.8707 44.7776ZM112.795 39.3035C109.353 39.3035 105.621 39.7597 104.294 43.6994H108.358C109.333 41.9369 110.286 41.7917 112.09 41.7917C114.537 41.7917 115.284 42.2894 115.055 43.3261C114.848 44.3629 114.371 44.5702 113.065 44.6739L108.524 44.9849C105.911 45.1508 103.029 45.8143 102.386 48.9246C101.743 51.9105 103.838 53.0924 107.197 53.0924C109.084 53.0924 111.841 52.6777 113.583 51.247C113.521 51.7031 113.542 52.1593 113.583 52.6155H117.792C117.647 51.9727 117.627 51.164 117.855 50.0236L119.202 43.6579C119.7 41.2526 118.829 39.3035 112.795 39.3035ZM114.33 47.4109C113.874 49.5674 111.302 50.5834 109.167 50.5834C107.591 50.5834 106.658 49.9406 106.886 48.8002C107.135 47.6598 107.964 47.2451 109.478 47.1207L111.966 46.9133C112.795 46.8511 113.687 46.7474 114.558 46.3535L114.33 47.4109ZM128.388 35.5297L127.828 38.2045H123.619L124.179 35.5297H128.388ZM123.287 39.7804H127.497L124.78 52.5947H120.571L123.287 39.7804ZM141.596 39.5731L140.767 43.5127C140.041 43.3054 139.316 43.1395 138.528 43.1395C135.666 43.1395 133.987 44.591 133.468 47.0792L132.266 52.5947H128.056L130.773 39.7804H134.837L134.339 42.2894H134.381C136.309 40.3195 137.698 39.4486 140.104 39.4486C140.56 39.4486 141.14 39.4694 141.596 39.5731ZM33.3797 43.9896C33.3797 49.7126 28.735 54.3572 23.0121 54.3572C17.2892 54.3572 12.6445 49.7126 12.6445 43.9896C12.6445 38.2667 17.2685 33.6221 22.9914 33.6221C28.735 33.6221 33.3797 38.2667 33.3797 43.9896Z" fill="#323844"></path></svg> 