<?xml version="1.0" encoding="UTF-8"?> <svg xmlns="http://www.w3.org/2000/svg" width="154" height="88" viewBox="0 0 154 88" fill="none"><g clip-path="url(#clip0_6741_2584)"><path d="M35.543 60.9906V47.3789H38.2144V60.9906H35.543Z" fill="#323844"></path><path d="M44.3824 52.9129V60.9908H41.7109V47.3792H44.2552V49.6054H44.446C44.764 48.9057 45.2729 48.3333 45.9089 47.888C46.6086 47.4428 47.4355 47.252 48.4532 47.252C49.4073 47.252 50.1705 47.4428 50.8702 47.8244C51.5699 48.206 52.0787 48.7785 52.5239 49.5418C52.9056 50.305 53.0964 51.2591 53.0964 52.3404V60.9908H50.4249V52.6585C50.4249 51.6408 50.1705 50.8775 49.6617 50.3686C49.1528 49.7962 48.4532 49.5418 47.5627 49.5418C46.9266 49.5418 46.4178 49.669 45.9089 49.9234C45.4637 50.1778 45.0821 50.5595 44.764 51.0683C44.5732 51.5772 44.3824 52.1496 44.3824 52.9129Z" fill="#323844"></path><path d="M66.9001 50.6864L64.483 51.1317C64.3558 50.8137 64.2286 50.5592 64.0378 50.2412C63.847 49.9868 63.5289 49.7324 63.1473 49.5415C62.7657 49.3507 62.3204 49.2871 61.748 49.2871C60.9847 49.2871 60.3486 49.4779 59.8398 49.796C59.3309 50.114 59.0765 50.5592 59.0765 51.0681C59.0765 51.5133 59.2673 51.895 59.5854 52.1494C59.9034 52.4038 60.4759 52.6582 61.2391 52.849L63.4017 53.3579C64.6738 53.6759 65.5643 54.1212 66.2004 54.6936C66.8364 55.2661 67.1545 56.0929 67.1545 57.047C67.1545 57.8739 66.9001 58.5736 66.4548 59.2096C66.0096 59.8457 65.3099 60.3545 64.483 60.6726C63.6561 61.0542 62.7021 61.1814 61.5572 61.1814C60.0306 61.1814 58.7585 60.8634 57.8044 60.2273C56.8503 59.5913 56.2779 58.6372 56.0234 57.4287L58.5677 57.047C58.7585 57.7467 59.0765 58.1919 59.5218 58.5736C60.0306 58.8916 60.6667 59.0824 61.4935 59.0824C62.384 59.0824 63.0837 58.8916 63.5925 58.51C64.1014 58.1283 64.3558 57.6831 64.3558 57.1742C64.3558 56.729 64.2286 56.411 63.9106 56.0929C63.5925 55.7749 63.0837 55.5841 62.4476 55.4569L60.1578 54.948C58.8857 54.63 57.9316 54.1848 57.3592 53.5487C56.7231 52.9126 56.4687 52.0858 56.4687 51.1317C56.4687 50.3048 56.7231 49.6051 57.1683 49.0327C57.6136 48.4602 58.2496 47.9514 59.0129 47.6334C59.7762 47.3153 60.7303 47.1245 61.748 47.1245C63.2109 47.1245 64.3558 47.4425 65.2463 48.0786C66.0732 48.7783 66.582 49.6051 66.9001 50.6864Z" fill="#323844"></path><path d="M70.082 66.0793V47.3792H72.6899V49.6054H72.8807C73.0079 49.3509 73.2623 48.9693 73.5168 48.6513C73.8348 48.2696 74.2164 47.9516 74.7253 47.6972C75.2341 47.4428 75.9338 47.252 76.7607 47.252C77.842 47.252 78.8597 47.5064 79.6865 48.0788C80.577 48.6513 81.2131 49.4146 81.7219 50.4959C82.2308 51.5135 82.4852 52.7857 82.4852 54.2486C82.4852 55.7115 82.2308 56.9837 81.7219 58.0014C81.2131 59.019 80.577 59.8459 79.6865 60.4184C78.8597 60.9908 77.842 61.2453 76.7607 61.2453C75.9338 61.2453 75.2341 61.118 74.7253 60.8C74.2164 60.5456 73.7712 60.2276 73.5168 59.8459C73.1987 59.4643 73.0079 59.1463 72.8171 58.8282H72.6899V66.0793H70.082ZM72.6899 54.185C72.6899 55.1391 72.8171 55.966 73.1351 56.7292C73.3895 57.4289 73.8348 58.0014 74.3436 58.4466C74.8525 58.8282 75.4885 59.0827 76.2518 59.0827C77.0151 59.0827 77.7147 58.8918 78.2236 58.4466C78.7324 58.0014 79.1777 57.4289 79.4321 56.7292C79.6865 56.0296 79.8137 55.2027 79.8137 54.2486C79.8137 53.3581 79.6865 52.5312 79.4321 51.8316C79.1777 51.1319 78.7324 50.5595 78.2236 50.1142C77.7147 49.669 77.0151 49.4782 76.2518 49.4782C75.4885 49.4782 74.8525 49.669 74.28 50.0506C73.7712 50.4322 73.3259 51.0047 73.0715 51.7044C72.8171 52.404 72.6899 53.2309 72.6899 54.185Z" fill="#323844"></path><path d="M91.3265 61.2449C89.9908 61.2449 88.8459 60.9269 87.8918 60.3544C86.9377 59.782 86.1745 58.9551 85.6656 57.9374C85.1568 56.8561 84.9023 55.6476 84.9023 54.2483C84.9023 52.8489 85.1568 51.6404 85.6656 50.5591C86.1745 49.4778 86.9377 48.6509 87.8918 48.0785C88.8459 47.506 89.9272 47.188 91.1993 47.188C91.9626 47.188 92.7259 47.3152 93.4255 47.5696C94.1252 47.824 94.8249 48.2057 95.3973 48.7781C95.9698 49.3506 96.415 50.0503 96.7331 50.8771C97.0511 51.7676 97.2419 52.7853 97.2419 54.0574V55.0115H86.4289V53.0397H94.6341C94.6341 52.3401 94.5068 51.704 94.1888 51.1952C93.9344 50.6227 93.4892 50.2411 92.9803 49.923C92.4715 49.605 91.899 49.4778 91.1993 49.4778C90.4361 49.4778 89.8 49.6686 89.2276 50.0503C88.6551 50.4319 88.2735 50.8771 87.9554 51.4496C87.6374 52.022 87.5102 52.6581 87.5102 53.3578V54.8843C87.5102 55.7748 87.701 56.5381 88.019 57.2377C88.3371 57.8738 88.7823 58.3826 89.3548 58.7007C89.9272 59.0187 90.6269 59.2095 91.3902 59.2095C91.899 59.2095 92.3442 59.1459 92.7895 59.0187C93.2347 58.8915 93.5528 58.6371 93.8708 58.3826C94.1888 58.0646 94.3796 57.7466 94.5705 57.3013L97.0511 57.7466C96.8603 58.5098 96.4786 59.1459 95.9698 59.6548C95.4609 60.2272 94.8249 60.6088 93.998 60.9269C93.2347 61.1177 92.3442 61.2449 91.3265 61.2449Z" fill="#323844"></path><path d="M100.168 60.9905V47.3788H102.712V49.5414H102.839C103.094 48.7781 103.539 48.2057 104.175 47.824C104.811 47.3788 105.511 47.188 106.338 47.188C106.529 47.188 106.719 47.188 106.91 47.188C107.165 47.188 107.292 47.188 107.419 47.2516V49.7958C107.292 49.7958 107.101 49.7322 106.847 49.6686C106.592 49.605 106.274 49.605 106.02 49.605C105.384 49.605 104.811 49.7322 104.366 49.9867C103.857 50.2411 103.475 50.6227 103.221 51.068C102.967 51.5132 102.776 52.0856 102.776 52.6581V60.9905H100.168Z" fill="#323844"></path><path d="M113.589 61.3086C112.698 61.3086 111.935 61.1178 111.235 60.7998C110.535 60.4818 109.963 60.0365 109.581 59.4005C109.2 58.7644 108.945 58.0011 108.945 57.1106C108.945 56.3474 109.073 55.7113 109.391 55.2025C109.709 54.6936 110.09 54.312 110.599 53.994C111.108 53.6759 111.68 53.4851 112.253 53.3579C112.889 53.2307 113.525 53.1035 114.161 53.0399C114.988 52.9763 115.624 52.849 116.133 52.7854C116.642 52.7218 117.023 52.5946 117.214 52.4674C117.468 52.3402 117.532 52.0858 117.532 51.7677V51.7041C117.532 50.9409 117.341 50.3048 116.896 49.9232C116.451 49.4779 115.815 49.2871 114.988 49.2871C114.097 49.2871 113.398 49.4779 112.889 49.8596C112.38 50.2412 111.998 50.6864 111.808 51.1953L109.327 50.6228C109.645 49.796 110.027 49.0963 110.599 48.5874C111.172 48.0786 111.808 47.697 112.571 47.4425C113.334 47.1881 114.097 47.1245 114.924 47.1245C115.497 47.1245 116.069 47.1881 116.642 47.3153C117.278 47.4425 117.85 47.697 118.359 48.015C118.868 48.333 119.313 48.8419 119.695 49.4779C120.013 50.114 120.204 50.9409 120.204 51.895V60.927H117.596V59.0824C117.405 59.4005 117.15 59.7821 116.832 60.1001C116.514 60.4182 116.069 60.7362 115.497 60.927C114.988 61.1814 114.352 61.3086 113.589 61.3086ZM114.161 59.146C114.924 59.146 115.497 59.0188 116.069 58.7008C116.578 58.3828 116.96 58.0011 117.278 57.5559C117.532 57.1106 117.659 56.6018 117.659 56.0293V54.2484C117.532 54.3756 117.405 54.4392 117.087 54.5028C116.832 54.5664 116.514 54.63 116.196 54.6936C115.878 54.7572 115.497 54.8208 115.179 54.8208C114.861 54.8844 114.606 54.8844 114.352 54.948C113.843 55.0116 113.398 55.1389 112.952 55.2661C112.507 55.3933 112.189 55.6477 111.935 55.9021C111.68 56.2202 111.553 56.5382 111.553 57.047C111.553 57.6831 111.808 58.1919 112.253 58.51C112.762 58.9552 113.398 59.146 114.161 59.146Z" fill="#323844"></path><path d="M36.6875 43.3081C38.5493 43.3081 40.0586 41.7988 40.0586 39.937C40.0586 38.0752 38.5493 36.5659 36.6875 36.5659C34.8257 36.5659 33.3164 38.0752 33.3164 39.937C33.3164 41.7988 34.8257 43.3081 36.6875 43.3081Z" fill="#323844"></path><path d="M44.7036 36.5019C46.9518 36.5019 48.7744 34.6794 48.7744 32.4311C48.7744 30.1829 46.9518 28.3604 44.7036 28.3604C42.4554 28.3604 40.6328 30.1829 40.6328 32.4311C40.6328 34.6794 42.4554 36.5019 44.7036 36.5019Z" fill="#323844"></path><path d="M57.1085 32.8767C60.0593 32.8767 62.4514 30.4846 62.4514 27.5338C62.4514 24.583 60.0593 22.1909 57.1085 22.1909C54.1577 22.1909 51.7656 24.583 51.7656 27.5338C51.7656 30.4846 54.1577 32.8767 57.1085 32.8767Z" fill="#323844"></path></g><defs><clipPath id="clip0_6741_2584"><rect width="87.7762" height="44.3333" fill="#323844" transform="translate(33 22)"></rect></clipPath></defs></svg> 