<?xml version="1.0" encoding="UTF-8"?> <svg xmlns="http://www.w3.org/2000/svg" width="152" height="88" viewBox="0 0 152 88" fill="none"><g opacity="0.9"><g clip-path="url(#clip0_6741_2750)"><path fill-rule="evenodd" clip-rule="evenodd" d="M89.2222 29L106 58.4445H97.5L95.6556 55.2445H87.2L90.1556 50.0556H92.7L89.2111 43.9L85.5556 50.2889C84.9811 51.2889 84.4 52.1667 83.8333 52.9223C81.0444 56.6 76.5222 58.9556 71.5 58.9556C63.0778 58.9556 56.1667 52.2889 56.1667 44.0667C56.1667 35.8445 63.0222 29.1778 71.5 29.1778C74.3778 29.1778 76.9667 29.9378 79.2222 31.2111L75.6111 37.5667C74.3644 36.8349 72.9456 36.4476 71.5 36.4445C67.1889 36.4445 63.7 39.8445 63.7 44.0334C63.7 48.2334 67.1889 51.6223 71.5 51.6223C73.8444 51.6223 75.7667 50.6634 77.1667 49.2667C77.7833 48.6678 78.4778 47.6667 78.6889 47.3111L89.2 28.8667L89.2222 29ZM46 58.4445V29.7778H53.4778V58.4445H46Z" fill="#323844"></path></g></g><defs><clipPath id="clip0_6741_2750"><rect width="60" height="30" fill="#323844" transform="translate(46 29)"></rect></clipPath></defs></svg> 