<?xml version="1.0" encoding="UTF-8"?> <svg xmlns="http://www.w3.org/2000/svg" width="154" height="88" viewBox="0 0 154 88" fill="none"><path d="M83.9736 41.999C84.0845 41.999 84.1585 42.036 84.2324 42.1099C84.3063 42.1839 84.3433 42.2578 84.3433 42.3687C84.3433 42.4057 84.3433 42.4796 84.3063 42.5536L80.4246 51.0933C80.3137 51.3151 80.1289 51.426 79.9071 51.426C79.7962 51.426 79.6853 51.389 79.6113 51.3521C79.5374 51.2781 79.4635 51.2042 79.3895 51.0933L75.5448 42.5536L75.5078 42.4057C75.5078 42.2948 75.5448 42.1839 75.6557 42.1099C75.7296 42.036 75.8405 41.999 75.9514 41.999C76.0993 41.999 76.2102 42.073 76.2842 42.2208L79.944 50.5018L83.6409 42.2948C83.6779 42.1099 83.7888 41.999 83.9736 41.999Z" fill="#323844"></path><path d="M92.9936 49.7257C93.0675 49.7996 93.1045 49.8735 93.1045 49.9475C93.1045 50.0584 93.0675 50.2063 92.9566 50.3172C92.8457 50.4281 92.6978 50.5759 92.4391 50.7238C91.5148 51.2783 90.5906 51.5371 89.5925 51.5371C88.2246 51.5371 87.1156 51.0935 86.3392 50.2432C85.5629 49.3929 85.1562 48.21 85.1562 46.7312C85.1562 45.77 85.3411 44.9567 85.6738 44.2173C86.0435 43.478 86.5241 42.9234 87.1895 42.5168C87.818 42.1101 88.5943 41.9253 89.4076 41.9253C90.5906 41.9253 91.5148 42.295 92.1803 43.0713C92.8457 43.8477 93.1784 44.8828 93.1784 46.2136C93.1784 46.4355 93.1415 46.6203 93.0306 46.6942C92.9197 46.7682 92.7718 46.8421 92.55 46.8421H86.0065C86.0065 48.099 86.3392 49.0602 86.9307 49.7257C87.5592 50.3911 88.4095 50.7238 89.5185 50.7238C90.147 50.7238 90.6276 50.6499 91.0343 50.465C91.4409 50.3172 91.8106 50.0953 92.2173 49.8366C92.476 49.6517 92.6609 49.5778 92.7348 49.5778C92.8457 49.6148 92.9197 49.6517 92.9936 49.7257ZM87.0786 43.6258C86.4871 44.2173 86.1544 45.0676 86.0435 46.1397H92.4391C92.4021 45.0307 92.1433 44.1804 91.6258 43.5889C91.1082 42.9974 90.3688 42.7016 89.4446 42.7016C88.4465 42.7386 87.6701 43.0344 87.0786 43.6258Z" fill="#323844"></path><path d="M99.5738 41.999C99.7217 41.999 99.8326 42.036 99.8695 42.073C99.9435 42.1469 99.9435 42.2208 99.9435 42.3317C99.9435 42.5536 99.7956 42.6645 99.5368 42.7014L98.9823 42.7754C98.0581 42.8493 97.3557 43.219 96.8751 43.8105C96.3945 44.402 96.1727 45.1044 96.1727 45.8807V51.0933C96.1727 51.2412 96.1357 51.3521 96.0618 51.426C95.9878 51.4999 95.8769 51.5369 95.766 51.5369C95.6551 51.5369 95.5442 51.4999 95.4703 51.426C95.3963 51.3521 95.3594 51.2412 95.3594 51.0933V42.4426C95.3594 42.1469 95.5072 41.999 95.766 41.999C95.8769 41.999 95.9878 42.036 96.0618 42.1099C96.1357 42.1839 96.1727 42.2948 96.1727 42.4426V43.8105C96.7272 42.7014 97.7254 42.1099 99.1302 42.036H99.3889C99.4259 41.999 99.5738 41.999 99.5738 41.999Z" fill="#323844"></path><path d="M107.707 42.5535C108.335 42.9602 108.816 43.5147 109.149 44.2171C109.481 44.9195 109.666 45.7698 109.666 46.731C109.666 47.6922 109.481 48.5425 109.149 49.2818C108.816 50.0212 108.335 50.5757 107.707 50.9824C107.078 51.389 106.376 51.5739 105.563 51.5739C104.786 51.5739 104.121 51.389 103.566 51.0563C103.012 50.7236 102.605 50.206 102.309 49.5776V51.0563C102.309 51.3521 102.162 51.4999 101.903 51.4999C101.792 51.4999 101.681 51.463 101.607 51.389C101.533 51.3151 101.496 51.2042 101.496 51.0563V38.3391C101.496 38.0434 101.644 37.8955 101.903 37.8955C102.014 37.8955 102.125 37.9325 102.199 38.0064C102.272 38.0804 102.309 38.1913 102.309 38.3391V43.9584C102.605 43.3299 103.012 42.8493 103.566 42.4796C104.121 42.1469 104.786 41.9621 105.563 41.9621C106.376 41.9621 107.078 42.1839 107.707 42.5535ZM107.929 49.7255C108.483 49.023 108.779 48.0249 108.779 46.731C108.779 45.4741 108.483 44.5129 107.929 43.8105C107.374 43.1081 106.561 42.7754 105.526 42.7754C104.491 42.7754 103.714 43.1081 103.16 43.8105C102.605 44.5129 102.309 45.511 102.309 46.768C102.309 48.0619 102.605 49.06 103.16 49.7255C103.714 50.4279 104.528 50.7606 105.563 50.7606C106.561 50.7975 107.374 50.4279 107.929 49.7255Z" fill="#323844"></path><path d="M111.812 39.5224C111.664 39.4114 111.59 39.2266 111.59 39.0418C111.59 38.8199 111.664 38.6721 111.775 38.5242C111.923 38.4133 112.07 38.3394 112.292 38.3394C112.477 38.3394 112.662 38.4133 112.81 38.5242C112.958 38.6351 112.995 38.8199 112.995 39.0418C112.995 39.2266 112.921 39.4114 112.773 39.5224C112.625 39.6333 112.477 39.7072 112.292 39.7072C112.107 39.7072 111.923 39.6702 111.812 39.5224ZM111.997 51.4262C111.923 51.3523 111.886 51.2414 111.886 51.0935V42.4429C111.886 42.332 111.923 42.2211 111.997 42.1471C112.07 42.0732 112.181 42.0362 112.292 42.0362C112.403 42.0362 112.514 42.0732 112.588 42.1471C112.662 42.2211 112.699 42.332 112.699 42.4429V51.0935C112.699 51.2414 112.662 51.3523 112.588 51.4262C112.514 51.5002 112.403 51.5371 112.292 51.5371C112.181 51.5371 112.07 51.5002 111.997 51.4262Z" fill="#323844"></path><path d="M120.019 51.1673C120.019 51.463 119.834 51.5739 119.465 51.537L118.984 51.5C118.023 51.4261 117.32 51.1303 116.877 50.6497C116.433 50.1691 116.211 49.3558 116.211 48.2468V42.8863H114.622C114.548 42.8863 114.474 42.8493 114.4 42.7754C114.326 42.7015 114.289 42.6275 114.289 42.5536C114.289 42.4427 114.326 42.3687 114.4 42.2948C114.474 42.2209 114.548 42.1839 114.622 42.1839H116.211V39.6331C116.211 39.4852 116.248 39.3743 116.322 39.3004C116.396 39.2264 116.507 39.1895 116.618 39.1895C116.729 39.1895 116.84 39.2264 116.914 39.3004C116.988 39.3743 117.025 39.4852 117.025 39.6331V42.1839H119.576C119.65 42.1839 119.723 42.2209 119.797 42.2948C119.871 42.3687 119.908 42.4427 119.908 42.5536C119.908 42.6275 119.871 42.7015 119.834 42.7754C119.76 42.8493 119.686 42.8863 119.613 42.8863H117.062V48.2468C117.062 49.097 117.247 49.7255 117.579 50.0952C117.912 50.4649 118.43 50.6867 119.132 50.7236L119.65 50.7606C119.871 50.7976 120.019 50.9455 120.019 51.1673Z" fill="#323844"></path><path d="M34.6211 25.5479L57.1719 61.4074L66.6728 46.2503L53.7708 25.5479H34.6211Z" fill="#323844"></path><path d="M60.3125 25.5479L70.0352 41.2225L79.684 25.5479H60.3125Z" fill="#323844"></path></svg> 