<?xml version="1.0" encoding="UTF-8"?> <svg xmlns="http://www.w3.org/2000/svg" width="154" height="88" viewBox="0 0 154 88" fill="none"><path d="M34.4327 37.9342C33.6133 37.9342 32.9188 37.2816 32.9188 36.4625C32.9188 35.6434 33.6133 34.9492 34.4327 34.9492C35.2383 34.9492 35.9049 35.6434 35.9049 36.4625C35.9049 37.2816 35.2383 37.9342 34.4327 37.9342ZM59.7661 37.9342C60.5716 37.9342 61.2383 37.2816 61.2383 36.4625C61.2383 35.6434 60.5577 34.9492 59.7661 34.9492C58.9466 34.9492 58.2522 35.6434 58.2522 36.4625C58.2522 37.2816 58.9466 37.9342 59.7661 37.9342ZM137.308 27.3549C137.961 27.3549 138.488 26.8273 138.488 26.1748C138.488 25.5222 137.961 24.9946 137.308 24.9946C136.655 24.9946 136.127 25.5222 136.127 26.1748C136.127 26.8273 136.655 27.3549 137.308 27.3549ZM137.308 24.1616C138.419 24.1616 139.322 25.0641 139.322 26.1748C139.322 27.2854 138.419 28.1879 137.308 28.1879C136.197 28.1879 135.294 27.2854 135.294 26.1748C135.294 25.0641 136.197 24.1616 137.308 24.1616ZM126.266 32.9916C128.225 33.7275 129.766 35.2685 130.502 37.2261L130.53 37.3233L130.571 37.2261C131.308 35.2685 132.85 33.7135 134.807 32.9916L134.905 32.9499L134.807 32.9083C132.85 32.1725 131.308 30.6314 130.571 28.6738L130.53 28.5766L130.488 28.6738C129.752 30.6314 128.211 32.1725 126.252 32.9083L126.155 32.9499L126.266 32.9916ZM130.114 39.2948V39.2531C129.877 36.1293 127.363 33.6164 124.238 33.3804H124.197V33.422C124.238 34.019 124.363 34.616 124.585 35.1713L124.6 35.1852H124.627C126.489 35.5323 127.96 37.004 128.308 38.8644V38.8922L128.321 38.906C128.891 39.1143 129.475 39.2393 130.072 39.2948H130.114ZM124.183 32.5196H124.224C127.336 32.2835 129.864 29.7706 130.099 26.6468V26.6051H130.057C129.461 26.6468 128.864 26.7717 128.308 26.9939L128.294 27.0078V27.0355C127.947 28.8959 126.474 30.3676 124.613 30.7147H124.585L124.572 30.7286C124.363 31.2978 124.238 31.8809 124.183 32.4779V32.5196ZM130.961 26.6051V26.6468C131.197 29.7706 133.71 32.2835 136.836 32.5196H136.877V32.4779C136.836 31.8809 136.711 31.2839 136.488 30.7286L136.475 30.7147H136.447C134.586 30.3676 133.113 28.8959 132.766 27.0355V27.0078L132.752 26.9939C132.183 26.7856 131.6 26.6607 131.002 26.6051H130.961ZM136.877 33.3804H136.836C133.724 33.6164 131.197 36.1293 130.961 39.2531V39.2948H131.002C131.6 39.2531 132.197 39.1281 132.752 38.906L132.766 38.8922V38.8644C133.113 37.004 134.586 35.5323 136.447 35.1852H136.475L136.488 35.1713C136.696 34.6021 136.821 34.019 136.877 33.422V33.3804ZM133.53 39.4892C133.363 39.5724 132.141 40.1416 130.53 40.1416C128.919 40.1416 127.682 39.5724 127.53 39.4892L127.502 39.2531C127.294 37.5454 125.946 36.1987 124.238 35.9905L124.002 35.9627C123.919 35.7961 123.35 34.5049 123.35 32.9639C123.35 31.4089 123.919 30.1316 124.002 29.965L124.238 29.9372C125.946 29.729 127.294 28.3822 127.502 26.6746L127.53 26.4385C127.697 26.3552 128.96 25.786 130.53 25.786C132.099 25.786 133.363 26.3552 133.53 26.4385L133.557 26.6746C133.766 28.3822 135.113 29.729 136.821 29.9372L137.057 29.965C137.141 30.1177 137.711 31.3395 137.711 32.9639C137.711 34.6021 137.141 35.81 137.057 35.9627L136.821 35.9905C135.113 36.1987 133.766 37.5454 133.557 39.2531L133.53 39.4892ZM52.9327 38.9755C51.7244 38.9755 50.6688 39.4892 50.3077 40.3916L50.1688 39.7252C50.1133 39.4475 49.8355 39.2253 49.5577 39.2253H48.1271C48.0716 39.2253 48.0161 39.2809 48.0161 39.3364V49.1244C48.0161 49.1938 48.0716 49.2355 48.1271 49.2355H50.3077C50.3771 49.2355 50.4189 49.1799 50.4189 49.1244V43.3904C50.4189 41.9743 51.266 41.2246 52.4188 41.2246C53.266 41.2246 54.0994 41.8771 54.0994 43.2377V49.1244C54.0994 49.1938 54.155 49.2355 54.2105 49.2355H56.391C56.4466 49.2355 56.5022 49.1799 56.5022 49.1244V42.6546C56.5022 40.0306 54.6688 38.9755 52.9327 38.9755ZM31.9466 35.3796H29.641C29.5855 35.3796 29.5438 35.4074 29.5299 35.4629L26.7661 45.0565L23.2938 35.4629C23.28 35.4212 23.2382 35.3934 23.1827 35.3934H20.8355C20.7521 35.3934 20.6966 35.4768 20.7244 35.5462L21.1133 36.6152C21.516 37.7121 21.516 38.9199 21.1133 40.0167L19.2799 45.0704L16.5299 35.4629C16.516 35.4212 16.4744 35.3796 16.4188 35.3796H14.1133C14.0438 35.3796 13.9883 35.449 14.0021 35.5184L17.8355 48.7773C17.9188 49.0411 18.1549 49.2355 18.4327 49.2355H20.2799C20.3216 49.2355 20.3633 49.2077 20.391 49.166L23.03 41.8771L25.5438 48.819C25.6272 49.0688 25.8633 49.2355 26.1271 49.2355H28.0022C28.0577 49.2355 28.0994 49.2077 28.1132 49.1521L32.0577 35.5184C32.0716 35.449 32.016 35.3796 31.9466 35.3796ZM42.9188 38.9755C41.7244 38.9755 40.6688 39.5447 40.0438 40.3916L39.905 39.7252C39.8494 39.4336 39.5855 39.2253 39.2938 39.2253H37.8633C37.8077 39.2253 37.7522 39.2809 37.7522 39.3364V49.1244C37.7522 49.1799 37.8077 49.2355 37.8633 49.2355H40.0577C40.1133 49.2355 40.1688 49.1799 40.1688 49.1244V43.0573C40.1688 42.0437 40.9883 41.2246 42.0022 41.2246C43.0161 41.2246 43.8355 42.0437 43.8355 43.0573V49.1244C43.8355 49.1799 43.891 49.2355 43.9466 49.2355H46.141C46.1966 49.2355 46.2522 49.1799 46.2522 49.1244V42.2936C46.2383 40.461 44.7522 38.9755 42.9188 38.9755ZM68.0022 38.9755C66.7939 38.9755 65.7382 39.4892 65.3772 40.3916L65.2383 39.7252C65.1827 39.4475 64.9049 39.2253 64.6271 39.2253H63.1966C63.141 39.2253 63.0855 39.2809 63.0855 39.3364V49.1244C63.0855 49.1938 63.141 49.2355 63.1966 49.2355H65.3772C65.4327 49.2355 65.4882 49.1799 65.4882 49.1244V43.3904C65.4882 41.9743 66.3355 41.2246 67.4883 41.2246C68.3355 41.2246 69.1689 41.8771 69.1689 43.2377V49.1244C69.1689 49.1938 69.2244 49.2355 69.2799 49.2355H71.4605C71.5161 49.2355 71.5716 49.1799 71.5716 49.1244V42.6546C71.5716 40.0306 69.7383 38.9755 68.0022 38.9755ZM96.752 42.8351C96.6689 41.5994 95.6548 40.6415 94.4047 40.6415C93.1547 40.6415 92.1411 41.5994 92.0578 42.8351H96.752ZM92.0438 44.876V44.9454C92.0438 46.3476 93.169 47.5 94.5575 47.5C95.2241 47.5 95.8495 47.2362 96.3214 46.7642C96.5161 46.5837 96.6547 46.3754 96.7797 46.1255L96.8217 46.0561L98.641 46.9586L98.6132 47.028C98.3908 47.4722 98.1129 47.861 97.7662 48.1942C96.9191 49.055 95.7799 49.5409 94.5575 49.5409C92.5299 49.5409 90.7383 48.1664 90.1827 46.195C89.516 43.9875 90.0855 42.0854 90.1966 41.7244C90.1966 41.7105 90.2105 41.6967 90.2105 41.6828L90.2244 41.655C90.8217 39.8363 92.5022 38.6284 94.4047 38.6284C96.8217 38.6284 98.7937 40.5998 98.7937 43.0156V44.8898L92.0438 44.876ZM87.3078 49.3743C87.8216 49.3743 88.3355 49.2493 88.7661 49.0411C88.78 49.0272 88.7939 49.0133 88.7939 48.9856V47.0002C88.7939 46.9724 88.78 46.9586 88.7661 46.9586C88.7522 46.9446 88.7244 46.9446 88.7105 46.9586C88.4049 47.0974 88.0994 47.1807 87.8633 47.1807C87.5161 47.1807 86.9188 47.0141 86.9188 45.8617V41.1135H88.7383C88.7661 41.1135 88.7939 41.0857 88.7939 41.058V39.0865C88.7939 39.0587 88.7661 39.031 88.7383 39.031H86.9188V37.0457C86.9188 36.9901 86.8633 36.9346 86.8078 36.9346H84.7244C84.6688 36.9346 84.6133 36.9901 84.6133 37.0457V38.0314C84.6133 38.5312 84.2522 38.9338 83.7799 39.0171C83.7244 39.031 83.6827 39.0727 83.6827 39.1281V41.058C83.6827 41.0857 83.7105 41.1135 83.7383 41.1135H84.6133V46.3199C84.6133 48.5691 86.0022 49.3743 87.3078 49.3743ZM110.433 38.8505C110.377 38.8505 109.877 38.8228 109.21 39.0587C108.557 39.3087 107.988 39.7391 107.544 40.3361C106.946 39.4058 105.891 38.8505 104.696 38.8505C103.586 38.8505 102.655 39.3364 102.253 40.0862L102.155 39.6141C102.1 39.3226 101.835 39.1004 101.544 39.1004H100.169C100.071 39.1004 99.9884 39.1837 99.9884 39.2809V49.0688C99.9884 49.1799 100.071 49.2633 100.183 49.2633H102.238C102.336 49.2633 102.419 49.1799 102.419 49.0827V43.3349C102.419 42.0437 103.113 41.2385 104.225 41.2385C104.974 41.2385 105.725 41.8355 105.725 43.1683V49.055C105.725 49.166 105.808 49.2493 105.919 49.2493H107.975C108.071 49.2493 108.155 49.1661 108.155 49.0688V43.321C108.155 42.0298 108.849 41.2246 109.96 41.2246C110.711 41.2246 111.46 41.8216 111.46 43.1545V49.0411C111.46 49.1521 111.544 49.2355 111.655 49.2355H113.71C113.808 49.2355 113.891 49.1521 113.891 49.055V42.5852C113.877 39.8501 112.016 38.8505 110.433 38.8505ZM122.113 43.3904C122.113 42.2242 121.169 41.294 120.016 41.294C118.849 41.294 117.919 42.2381 117.919 43.3904V44.8344C117.919 46.0006 118.863 46.9308 120.016 46.9308C121.183 46.9308 122.113 45.9867 122.113 44.8344V43.3904ZM120.669 38.9338C122.794 38.9338 124.516 40.6554 124.516 42.7796V45.4314C124.516 47.5556 122.794 49.2771 120.669 49.2771C119.585 49.2771 118.6 48.819 117.905 48.097V53.6227C117.905 53.6921 117.849 53.7338 117.794 53.7338H115.614C115.558 53.7338 115.502 53.6782 115.502 53.6227V39.3087C115.502 39.2531 115.558 39.1976 115.614 39.1976H117.044C117.322 39.1976 117.6 39.4198 117.655 39.6974L117.766 40.2666C118.475 39.4475 119.516 38.9338 120.669 38.9338ZM75.3216 43.1961C75.3216 44.4317 76.3355 45.4452 77.5716 45.4452C78.8077 45.4452 79.8216 44.4317 79.8216 43.1961C79.8216 41.9604 78.8077 40.9469 77.5716 40.9469C76.3216 40.9469 75.3216 41.9604 75.3216 43.1961ZM80.5022 51.7762C80.5022 51.2763 80.0994 50.8737 79.5994 50.8737H76.2244C75.7244 50.8737 75.3216 51.2763 75.3216 51.7762C75.3216 52.276 75.7244 52.6786 76.2244 52.6786H79.5994C80.0855 52.6786 80.5022 52.276 80.5022 51.7762ZM79.4605 48.7495C81.0716 48.7495 82.4605 49.9435 82.6133 51.4846C82.6966 52.3454 82.4188 53.1784 81.8355 53.817C81.2661 54.4557 80.4466 54.8167 79.5855 54.8167H76.3355C75.1132 54.8167 74.0021 54.1503 73.5021 53.1228C72.905 51.8872 73.1827 50.4572 74.1966 49.5548C73.9466 49.1383 73.8077 48.6523 73.8077 48.1664C73.8077 47.4861 74.0577 46.8336 74.5161 46.3338C73.6688 45.5146 73.1827 44.3762 73.1827 43.1961C73.1827 40.7804 75.141 38.8228 77.5578 38.8228H79.391C80.0855 38.8228 80.1688 38.8228 80.5577 38.1008C80.5994 38.0175 80.6966 37.9897 80.7799 38.0314L82.3772 38.8782C82.4188 38.8922 82.4466 38.9338 82.4605 38.9755C82.4744 39.0171 82.4744 39.0587 82.4466 39.1004C82.1272 39.6835 81.7383 40.2666 81.0855 40.6137C81.6411 41.3634 81.9327 42.2381 81.9327 43.1545C81.9466 44.279 81.5022 45.348 80.6689 46.195C79.7938 47.0835 78.5994 47.5833 77.3772 47.5833H76.5299C76.2105 47.5833 75.9466 47.8471 75.9466 48.1664C75.9466 48.4857 76.2105 48.7495 76.5299 48.7495H79.4605ZM59.8494 39.392C59.4605 39.392 59.0855 39.3364 58.7383 39.2393C58.6688 39.2253 58.5994 39.267 58.5994 39.3503V49.1244C58.5994 49.1938 58.655 49.2355 58.7105 49.2355H60.891C60.9466 49.2355 61.0022 49.1799 61.0022 49.1244V39.3642C61.0022 39.2948 60.9328 39.2393 60.8632 39.2531C60.5299 39.3364 60.1966 39.392 59.8494 39.392ZM34.4605 39.392C34.0716 39.392 33.6966 39.3364 33.3494 39.2393C33.2799 39.2253 33.2105 39.267 33.2105 39.3503V49.1244C33.2105 49.1938 33.2661 49.2355 33.3216 49.2355H35.5021C35.5577 49.2355 35.6133 49.1799 35.6133 49.1244V39.3642C35.6133 39.2948 35.5438 39.2393 35.4744 39.2531C35.155 39.3364 34.8077 39.392 34.4605 39.392Z" fill="#323844"></path></svg> 