<svg width="256" height="44" viewBox="0 0 256 44" fill="none" xmlns="http://www.w3.org/2000/svg">
<g id="Clutch 2">
<path id="Vector" d="M38.2772 2.56519H44.2459V39.3181H38.2772V2.56519Z" fill="#17313B"/>
<path id="Vector_2" d="M65.0076 27.6717C65.0076 33.3658 60.3364 33.8835 58.7794 33.8835C55.1462 33.8835 54.6272 30.5188 54.6272 28.707V14.4717H48.6585V28.4482C48.6585 31.8129 49.6965 34.9188 51.7726 36.7305C53.5892 38.5423 55.9248 39.3188 58.7794 39.3188C60.8554 39.3188 63.4505 38.8011 65.0076 37.2482V39.3188H70.9763V14.4717H65.0076V27.6717Z" fill="#17313B"/>
<path id="Vector_3" d="M82.6536 5.41187H76.6849V14.4707H72.2733V20.1648H76.6849V39.3177H82.6536V20.1648H87.0653V14.4707H82.6536V5.41187Z" fill="#17313B"/>
<path id="Vector_4" d="M105.75 31.8107C104.453 32.846 102.636 33.6225 100.819 33.6225C96.6673 33.6225 93.8127 30.5166 93.8127 26.3754C93.8127 22.2342 96.6673 19.3872 100.819 19.3872C102.636 19.3872 104.453 19.9048 105.75 21.1989L106.529 21.9754L110.681 18.093L109.643 17.3166C107.307 15.246 104.193 13.9519 100.819 13.9519C93.5532 13.9519 88.1035 19.3872 88.1035 26.6342C88.1035 33.8813 93.5532 39.3166 100.819 39.3166C104.193 39.3166 107.307 38.0225 109.643 35.9519L110.681 35.1754L106.529 31.0342L105.75 31.8107Z" fill="#17313B"/>
<path id="Vector_5" d="M131.7 16.5416C129.884 14.7299 128.067 13.9534 125.212 13.9534C123.136 13.9534 121.06 14.471 119.503 16.024V2.56519H113.534V39.3181H119.503V25.6004C119.503 19.9063 123.396 19.3887 124.953 19.3887C128.586 19.3887 128.326 22.7534 128.326 24.5651V39.0593H134.295V24.824C134.295 21.4593 133.517 18.3534 131.7 16.5416Z" fill="#17313B"/>
<path id="Vector_6" d="M100.56 30.7765C102.854 30.7765 104.713 28.9224 104.713 26.6353C104.713 24.3482 102.854 22.4941 100.56 22.4941C98.2672 22.4941 96.4083 24.3482 96.4083 26.6353C96.4083 28.9224 98.2672 30.7765 100.56 30.7765Z" fill="#EF4335"/>
<path id="Vector_7" d="M29.9737 30.2586C27.8976 32.3291 24.7835 33.6233 21.4099 33.6233C14.9222 33.6233 10.251 28.4468 10.251 21.4586C10.251 14.4703 14.9222 9.29388 21.6694 9.29388C24.7835 9.29388 27.8976 10.588 30.2332 12.9174L31.0117 13.6939L34.9044 9.81152L34.1259 9.03505C30.7522 5.67034 26.3406 3.85858 21.6694 3.85858C11.8081 3.59976 4.54181 11.3644 4.54181 21.4586C4.54181 31.5527 11.8081 39.3174 21.4099 39.3174C26.0811 39.3174 30.7522 37.5056 33.8663 34.1409L34.6449 33.3644L30.7522 29.4821L29.9737 30.2586Z" fill="#17313B"/>
<path id="Vector_8" d="M175.688 7.60938C175.609 7.36327 175.459 7.14654 175.255 6.98761C175.051 6.82868 174.805 6.73496 174.547 6.71875L169.906 6.39844L168.188 2.0625C168.094 1.82375 167.93 1.61867 167.719 1.47382C167.507 1.32896 167.257 1.25099 167 1.25C166.743 1.25099 166.493 1.32896 166.281 1.47382C166.07 1.61867 165.906 1.82375 165.813 2.0625L164.063 6.42188L159.453 6.71875C159.196 6.73601 158.949 6.83012 158.746 6.9889C158.543 7.14768 158.392 7.36383 158.313 7.60938C158.231 7.85869 158.226 8.12664 158.299 8.37868C158.371 8.63072 158.518 8.85529 158.719 9.02344L162.266 12.0234L161.211 16.1719C161.138 16.4525 161.151 16.7486 161.249 17.0217C161.346 17.2948 161.524 17.5322 161.758 17.7031C161.985 17.8663 162.256 17.9579 162.536 17.9663C162.816 17.9746 163.091 17.8993 163.328 17.75L166.992 15.4297H167.008L170.953 17.9219C171.156 18.0534 171.391 18.1239 171.633 18.125C171.83 18.1235 172.024 18.0767 172.2 17.9884C172.376 17.9002 172.53 17.7727 172.649 17.6157C172.768 17.4588 172.85 17.2766 172.888 17.0832C172.926 16.8898 172.919 16.6903 172.867 16.5L171.75 11.9609L175.281 9.02344C175.483 8.85529 175.629 8.63072 175.701 8.37868C175.774 8.12664 175.769 7.85869 175.688 7.60938Z" fill="#EF4335"/>
<path id="Vector_9" d="M195.687 7.60938C195.609 7.36327 195.458 7.14654 195.255 6.98761C195.051 6.82868 194.805 6.73496 194.547 6.71875L189.906 6.39844L188.187 2.0625C188.094 1.82375 187.93 1.61867 187.719 1.47382C187.507 1.32896 187.256 1.25099 187 1.25C186.743 1.25099 186.493 1.32896 186.281 1.47382C186.07 1.61867 185.906 1.82375 185.812 2.0625L184.062 6.42188L179.453 6.71875C179.196 6.73601 178.949 6.83012 178.746 6.9889C178.543 7.14768 178.392 7.36383 178.312 7.60938C178.231 7.85869 178.226 8.12664 178.299 8.37868C178.371 8.63072 178.517 8.85529 178.719 9.02344L182.266 12.0234L181.211 16.1719C181.138 16.4525 181.151 16.7486 181.249 17.0217C181.346 17.2948 181.524 17.5322 181.758 17.7031C181.985 17.8663 182.256 17.9579 182.536 17.9663C182.816 17.9746 183.091 17.8993 183.328 17.75L186.992 15.4297H187.008L190.953 17.9219C191.155 18.0534 191.391 18.1239 191.633 18.125C191.83 18.1235 192.024 18.0767 192.2 17.9884C192.376 17.9002 192.53 17.7727 192.649 17.6157C192.768 17.4588 192.85 17.2766 192.888 17.0832C192.926 16.8898 192.919 16.6903 192.867 16.5L191.75 11.9609L195.281 9.02344C195.482 8.85529 195.629 8.63072 195.701 8.37868C195.774 8.12664 195.769 7.85869 195.687 7.60938Z" fill="#EF4335"/>
<path id="Vector_10" d="M214.753 7.60938C214.679 7.36327 214.536 7.14654 214.342 6.98761C214.149 6.82868 213.914 6.73496 213.67 6.71875L209.261 6.39844L207.628 2.0625C207.539 1.82375 207.384 1.61867 207.183 1.47382C206.981 1.32896 206.744 1.25099 206.5 1.25C206.256 1.25099 206.018 1.32896 205.817 1.47382C205.616 1.61867 205.461 1.82375 205.372 2.0625L203.709 6.42188L199.33 6.71875C199.086 6.73601 198.852 6.83012 198.659 6.9889C198.466 7.14768 198.322 7.36383 198.247 7.60938C198.17 7.85869 198.165 8.12664 198.234 8.37868C198.303 8.63072 198.442 8.85529 198.633 9.02344L202.002 12.0234L201 16.1719C200.931 16.4525 200.944 16.7486 201.036 17.0217C201.129 17.2948 201.297 17.5322 201.52 17.7031C201.736 17.8663 201.993 17.9579 202.259 17.9663C202.525 17.9746 202.787 17.8993 203.012 17.75L206.493 15.4297H206.507L210.255 17.9219C210.448 18.0534 210.672 18.1239 210.901 18.125C211.088 18.1235 211.273 18.0767 211.44 17.9884C211.608 17.9002 211.753 17.7727 211.867 17.6157C211.98 17.4588 212.058 17.2766 212.093 17.0832C212.129 16.8898 212.123 16.6903 212.074 16.5L211.012 11.9609L214.367 9.02344C214.558 8.85529 214.697 8.63072 214.766 8.37868C214.835 8.12664 214.83 7.85869 214.753 7.60938Z" fill="#EF4335"/>
<path id="Vector_11" d="M234.687 7.60938C234.609 7.36327 234.458 7.14654 234.255 6.98761C234.051 6.82868 233.805 6.73496 233.547 6.71875L228.906 6.39844L227.187 2.0625C227.094 1.82375 226.93 1.61867 226.719 1.47382C226.507 1.32896 226.256 1.25099 226 1.25C225.743 1.25099 225.493 1.32896 225.281 1.47382C225.07 1.61867 224.906 1.82375 224.812 2.0625L223.062 6.42188L218.453 6.71875C218.196 6.73601 217.949 6.83012 217.746 6.9889C217.543 7.14768 217.392 7.36383 217.312 7.60938C217.231 7.85869 217.226 8.12664 217.299 8.37868C217.371 8.63072 217.517 8.85529 217.719 9.02344L221.266 12.0234L220.211 16.1719C220.138 16.4525 220.151 16.7486 220.249 17.0217C220.346 17.2948 220.524 17.5322 220.758 17.7031C220.985 17.8663 221.256 17.9579 221.536 17.9663C221.816 17.9746 222.091 17.8993 222.328 17.75L225.992 15.4297H226.008L229.953 17.9219C230.155 18.0534 230.391 18.1239 230.633 18.125C230.83 18.1235 231.024 18.0767 231.2 17.9884C231.376 17.9002 231.53 17.7727 231.649 17.6157C231.768 17.4588 231.85 17.2766 231.888 17.0832C231.926 16.8898 231.919 16.6903 231.867 16.5L230.75 11.9609L234.281 9.02344C234.482 8.85529 234.629 8.63072 234.701 8.37868C234.774 8.12664 234.769 7.85869 234.687 7.60938Z" fill="#EF4335"/>
<path id="Vector_12" d="M254.687 7.60938C254.609 7.36327 254.458 7.14654 254.255 6.98761C254.051 6.82868 253.805 6.73496 253.547 6.71875L248.906 6.39844L247.187 2.0625C247.094 1.82375 246.93 1.61867 246.719 1.47382C246.507 1.32896 246.256 1.25099 246 1.25C245.743 1.25099 245.493 1.32896 245.281 1.47382C245.07 1.61867 244.906 1.82375 244.812 2.0625L243.062 6.42188L238.453 6.71875C238.196 6.73601 237.949 6.83012 237.746 6.9889C237.543 7.14768 237.392 7.36383 237.312 7.60938C237.231 7.85869 237.226 8.12664 237.299 8.37868C237.371 8.63072 237.517 8.85529 237.719 9.02344L241.266 12.0234L240.211 16.1719C240.138 16.4525 240.151 16.7486 240.249 17.0217C240.346 17.2948 240.524 17.5322 240.758 17.7031C240.985 17.8663 241.256 17.9579 241.536 17.9663C241.816 17.9746 242.091 17.8993 242.328 17.75L245.992 15.4297H246.008L249.953 17.9219C250.155 18.0534 250.391 18.1239 250.633 18.125C250.83 18.1235 251.024 18.0767 251.2 17.9884C251.376 17.9002 251.53 17.7727 251.649 17.6157C251.768 17.4588 251.85 17.2766 251.888 17.0832C251.926 16.8898 251.919 16.6903 251.867 16.5L250.75 11.9609L254.281 9.02344C254.482 8.85529 254.629 8.63072 254.701 8.37868C254.774 8.12664 254.769 7.85869 254.687 7.60938Z" fill="#EF4335"/>
<path id="Vector_13" d="M161.018 36.9999V36.0479L165.008 32.1979C165.363 31.8619 165.624 31.5679 165.792 31.3159C165.969 31.0546 166.086 30.8166 166.142 30.6019C166.207 30.3779 166.24 30.1632 166.24 29.9579C166.24 29.4539 166.063 29.0572 165.708 28.7679C165.353 28.4786 164.835 28.3339 164.154 28.3339C163.631 28.3339 163.16 28.4226 162.74 28.5999C162.32 28.7679 161.956 29.0339 161.648 29.3979L160.696 28.5719C161.069 28.0959 161.569 27.7319 162.194 27.4799C162.829 27.2186 163.524 27.0879 164.28 27.0879C164.961 27.0879 165.554 27.1999 166.058 27.4239C166.562 27.6386 166.949 27.9512 167.22 28.3619C167.5 28.7726 167.64 29.2579 167.64 29.8179C167.64 30.1352 167.598 30.4479 167.514 30.7559C167.43 31.0639 167.271 31.3906 167.038 31.7359C166.805 32.0812 166.469 32.4686 166.03 32.8979L162.474 36.3279L162.138 35.7819H168.06V36.9999H161.018ZM172.935 37.1119C172.244 37.1119 171.572 37.0046 170.919 36.7899C170.275 36.5752 169.748 36.2859 169.337 35.9219L169.981 34.8159C170.308 35.1239 170.732 35.3759 171.255 35.5719C171.778 35.7679 172.333 35.8659 172.921 35.8659C173.668 35.8659 174.242 35.7072 174.643 35.3899C175.044 35.0726 175.245 34.6479 175.245 34.1159C175.245 33.7519 175.156 33.4346 174.979 33.1639C174.802 32.8932 174.494 32.6879 174.055 32.5479C173.626 32.3986 173.033 32.3239 172.277 32.3239H170.051L170.569 27.1999H176.099V28.4179H171.087L171.815 27.7319L171.409 31.7779L170.681 31.1059H172.571C173.551 31.1059 174.34 31.2319 174.937 31.4839C175.534 31.7359 175.968 32.0859 176.239 32.5339C176.51 32.9726 176.645 33.4812 176.645 34.0599C176.645 34.6199 176.51 35.1332 176.239 35.5999C175.968 36.0572 175.558 36.4259 175.007 36.7059C174.466 36.9766 173.775 37.1119 172.935 37.1119ZM183.488 36.9999V27.1999H187.31C188.169 27.1999 188.901 27.3352 189.508 27.6059C190.115 27.8766 190.581 28.2686 190.908 28.7819C191.235 29.2952 191.398 29.9066 191.398 30.6159C191.398 31.3252 191.235 31.9366 190.908 32.4499C190.581 32.9539 190.115 33.3412 189.508 33.6119C188.901 33.8826 188.169 34.0179 187.31 34.0179H184.258L184.888 33.3739V36.9999H183.488ZM190.04 36.9999L187.548 33.4439H189.046L191.566 36.9999H190.04ZM184.888 33.5139L184.258 32.8279H187.268C188.164 32.8279 188.841 32.6366 189.298 32.2539C189.765 31.8619 189.998 31.3159 189.998 30.6159C189.998 29.9159 189.765 29.3746 189.298 28.9919C188.841 28.6092 188.164 28.4179 187.268 28.4179H184.258L184.888 27.7179V33.5139ZM195.494 31.4279H200.534V32.6179H195.494V31.4279ZM195.62 35.7819H201.332V36.9999H194.22V27.1999H201.136V28.4179H195.62V35.7819ZM206.85 36.9999L202.538 27.1999H204.05L208.012 36.2439H207.144L211.134 27.1999H212.534L208.236 36.9999H206.85ZM214.344 36.9999V27.1999H215.744V36.9999H214.344ZM220.512 31.4279H225.552V32.6179H220.512V31.4279ZM220.638 35.7819H226.35V36.9999H219.238V27.1999H226.154V28.4179H220.638V35.7819ZM231.294 36.9999L228.018 27.1999H229.46L232.47 36.2439H231.742L234.864 27.1999H236.152L239.204 36.2439H238.504L241.556 27.1999H242.886L239.61 36.9999H238.14L235.284 28.6139H235.662L232.792 36.9999H231.294ZM248.014 37.1119C247.268 37.1119 246.554 36.9999 245.872 36.7759C245.191 36.5426 244.654 36.2439 244.262 35.8799L244.78 34.7879C245.154 35.1146 245.63 35.3852 246.208 35.5999C246.787 35.8146 247.389 35.9219 248.014 35.9219C248.584 35.9219 249.046 35.8566 249.4 35.7259C249.755 35.5952 250.016 35.4179 250.184 35.1939C250.352 34.9606 250.436 34.6992 250.436 34.4099C250.436 34.0739 250.324 33.8032 250.1 33.5979C249.886 33.3926 249.601 33.2292 249.246 33.1079C248.901 32.9772 248.518 32.8652 248.098 32.7719C247.678 32.6786 247.254 32.5712 246.824 32.4499C246.404 32.3192 246.017 32.1559 245.662 31.9599C245.317 31.7639 245.037 31.5026 244.822 31.1759C244.608 30.8399 244.5 30.4106 244.5 29.8879C244.5 29.3839 244.631 28.9219 244.892 28.5019C245.163 28.0726 245.574 27.7319 246.124 27.4799C246.684 27.2186 247.394 27.0879 248.252 27.0879C248.822 27.0879 249.386 27.1626 249.946 27.3119C250.506 27.4612 250.992 27.6759 251.402 27.9559L250.94 29.0759C250.52 28.7959 250.077 28.5952 249.61 28.4739C249.144 28.3432 248.691 28.2779 248.252 28.2779C247.702 28.2779 247.249 28.3479 246.894 28.4879C246.54 28.6279 246.278 28.8146 246.11 29.0479C245.952 29.2812 245.872 29.5426 245.872 29.8319C245.872 30.1772 245.98 30.4526 246.194 30.6579C246.418 30.8632 246.703 31.0266 247.048 31.1479C247.403 31.2692 247.79 31.3812 248.21 31.4839C248.63 31.5772 249.05 31.6846 249.47 31.8059C249.9 31.9272 250.287 32.0859 250.632 32.2819C250.987 32.4779 251.272 32.7392 251.486 33.0659C251.701 33.3926 251.808 33.8126 251.808 34.3259C251.808 34.8206 251.673 35.2826 251.402 35.7119C251.132 36.1319 250.712 36.4726 250.142 36.7339C249.582 36.9859 248.873 37.1119 248.014 37.1119Z" fill="black"/>
</g>
</svg>
