<?xml version="1.0" encoding="UTF-8"?>
<svg xmlns="http://www.w3.org/2000/svg" width="64" height="64" viewBox="0 0 64 64" fill="none">
  <path fill-rule="evenodd" clip-rule="evenodd" d="M29.9666 8.67244C30.5821 8.30956 31.2836 8.11816 31.9981 8.11816C32.7126 8.11816 33.4141 8.30955 34.0296 8.67244C34.6445 9.03496 35.1511 9.5554 35.497 10.1798M35.4981 10.1817L42.8366 23.411C42.8397 23.4154 42.8441 23.4187 42.8492 23.4204C42.8549 23.4222 42.861 23.422 42.8665 23.4198L55.5105 17.7974L55.5172 17.7945C56.1996 17.494 56.9524 17.3903 57.6907 17.495C58.4289 17.5997 59.1232 17.9087 59.6952 18.3871C60.2672 18.8654 60.694 19.4941 60.9276 20.2023C61.1606 20.9085 61.1921 21.6656 61.0186 22.3887L61.0172 22.3945L54.6414 49.4728C54.5143 49.9954 54.2836 50.4872 53.9632 50.9191C53.6428 51.3511 53.239 51.7145 52.7758 51.9878C52.3126 52.2611 51.7993 52.4388 51.2662 52.5103C50.7331 52.5819 50.1912 52.546 49.6723 52.4046L49.6644 52.4024C38.0962 49.1993 25.875 49.1993 14.3068 52.4024L14.2989 52.4046C13.78 52.546 13.238 52.5819 12.705 52.5103C12.1719 52.4388 11.6586 52.2611 11.1954 51.9878C10.7322 51.7145 10.3284 51.3511 10.008 50.9191C9.68755 50.4872 9.45695 49.9953 9.32979 49.4728L9.32586 49.4566L2.97899 22.3945L2.97718 22.3869C2.80415 21.6644 2.83576 20.9079 3.06854 20.2023C3.30213 19.4941 3.729 18.8654 4.30097 18.3871C4.87293 17.9087 5.56723 17.5997 6.30548 17.495C7.04373 17.3903 7.79656 17.494 8.47899 17.7945L8.48571 17.7974L21.129 23.4195C21.1345 23.4217 21.1413 23.4222 21.1469 23.4204C21.1521 23.4187 21.1565 23.4154 21.1595 23.411L28.4992 10.1798C28.845 9.5554 29.3517 9.03496 29.9666 8.67244M24.6355 25.3909C24.1423 26.2556 23.3461 26.9067 22.4008 27.2188C21.4555 27.5308 20.4282 27.4815 19.5171 27.0803L19.5105 27.0774L6.86719 21.4554L6.8703 21.4682L13.2168 48.5287L13.2206 48.5361L13.2252 48.5408L13.228 48.5427L13.2374 48.5459L13.2465 48.5455C25.5111 45.1509 38.4675 45.1516 50.7318 48.5474L50.1981 50.4749L50.7239 48.5453L50.7338 48.5459L50.7432 48.5427L50.7506 48.5361L50.7534 48.5311L50.7544 48.5285L57.1263 21.4665L57.129 21.4554L44.4857 27.0774L44.479 27.0803C43.568 27.4815 42.5406 27.5308 41.5954 27.2188C40.6501 26.9067 39.854 26.2555 39.3608 25.3908L39.349 25.3702L31.9981 12.1182L24.6355 25.3909Z" fill="black"></path>
  <path fill-rule="evenodd" clip-rule="evenodd" d="M29.9666 8.67244C30.5821 8.30956 31.2836 8.11816 31.9981 8.11816C32.7126 8.11816 33.4141 8.30955 34.0296 8.67244C34.6445 9.03496 35.1511 9.5554 35.497 10.1798M35.4981 10.1817L42.8366 23.411C42.8397 23.4154 42.8441 23.4187 42.8492 23.4204C42.8549 23.4222 42.861 23.422 42.8665 23.4198L55.5105 17.7974L55.5172 17.7945C56.1996 17.494 56.9524 17.3903 57.6907 17.495C58.4289 17.5997 59.1232 17.9087 59.6952 18.3871C60.2672 18.8654 60.694 19.4941 60.9276 20.2023C61.1606 20.9085 61.1921 21.6656 61.0186 22.3887L61.0172 22.3945L54.6414 49.4728C54.5143 49.9954 54.2836 50.4872 53.9632 50.9191C53.6428 51.3511 53.239 51.7145 52.7758 51.9878C52.3126 52.2611 51.7993 52.4388 51.2662 52.5103C50.7331 52.5819 50.1912 52.546 49.6723 52.4046L49.6644 52.4024C38.0962 49.1993 25.875 49.1993 14.3068 52.4024L14.2989 52.4046C13.78 52.546 13.238 52.5819 12.705 52.5103C12.1719 52.4388 11.6586 52.2611 11.1954 51.9878C10.7322 51.7145 10.3284 51.3511 10.008 50.9191C9.68755 50.4872 9.45695 49.9953 9.32979 49.4728L9.32586 49.4566L2.97899 22.3945L2.97718 22.3869C2.80415 21.6644 2.83576 20.9079 3.06854 20.2023C3.30213 19.4941 3.729 18.8654 4.30097 18.3871C4.87293 17.9087 5.56723 17.5997 6.30548 17.495C7.04373 17.3903 7.79656 17.494 8.47899 17.7945L8.48571 17.7974L21.129 23.4195C21.1345 23.4217 21.1413 23.4222 21.1469 23.4204C21.1521 23.4187 21.1565 23.4154 21.1595 23.411L28.4992 10.1798C28.845 9.5554 29.3517 9.03496 29.9666 8.67244M24.6355 25.3909C24.1423 26.2556 23.3461 26.9067 22.4008 27.2188C21.4555 27.5308 20.4282 27.4815 19.5171 27.0803L19.5105 27.0774L6.86719 21.4554L6.8703 21.4682L13.2168 48.5287L13.2206 48.5361L13.2252 48.5408L13.228 48.5427L13.2374 48.5459L13.2465 48.5455C25.5111 45.1509 38.4675 45.1516 50.7318 48.5474L50.1981 50.4749L50.7239 48.5453L50.7338 48.5459L50.7432 48.5427L50.7506 48.5361L50.7534 48.5311L50.7544 48.5285L57.1263 21.4665L57.129 21.4554L44.4857 27.0774L44.479 27.0803C43.568 27.4815 42.5406 27.5308 41.5954 27.2188C40.6501 26.9067 39.854 26.2555 39.3608 25.3908L39.349 25.3702L31.9981 12.1182L24.6355 25.3909Z" fill="url(#paint0_linear_9572_2238)"></path>
  <path fill-rule="evenodd" clip-rule="evenodd" d="M39.7832 42.4133C34.6083 41.8538 29.3881 41.8538 24.2132 42.4133C23.115 42.532 22.1285 41.738 22.0098 40.6398C21.8911 39.5417 22.6851 38.5552 23.7832 38.4365C29.244 37.8461 34.7525 37.8461 40.2132 38.4365C41.3114 38.5552 42.1054 39.5417 41.9866 40.6398C41.8679 41.738 40.8814 42.532 39.7832 42.4133Z" fill="black"></path>
  <path fill-rule="evenodd" clip-rule="evenodd" d="M39.7832 42.4133C34.6083 41.8538 29.3881 41.8538 24.2132 42.4133C23.115 42.532 22.1285 41.738 22.0098 40.6398C21.8911 39.5417 22.6851 38.5552 23.7832 38.4365C29.244 37.8461 34.7525 37.8461 40.2132 38.4365C41.3114 38.5552 42.1054 39.5417 41.9866 40.6398C41.8679 41.738 40.8814 42.532 39.7832 42.4133Z" fill="url(#paint1_linear_9572_2238)"></path>
  <defs>
    <linearGradient id="paint0_linear_9572_2238" x1="7.14504" y1="23.6839" x2="57.5092" y2="23.8782" gradientUnits="userSpaceOnUse">
      <stop stop-color="#7FE786"></stop>
      <stop offset="1" stop-color="#58A7FE"></stop>
    </linearGradient>
    <linearGradient id="paint1_linear_9572_2238" x1="7.14504" y1="23.6839" x2="57.5092" y2="23.8782" gradientUnits="userSpaceOnUse">
      <stop stop-color="#7FE786"></stop>
      <stop offset="1" stop-color="#58A7FE"></stop>
    </linearGradient>
  </defs>
</svg>
