<svg width="114" height="36" viewBox="0 0 114 36" fill="none" xmlns="http://www.w3.org/2000/svg">
<g id="deloitte" clip-path="url(#clip0_596_275)">
<g id="Group">
<path id="Vector" d="M107.095 25.2275C107.095 23.5491 108.453 22.2437 110.059 22.2437C111.726 22.2437 113.023 23.6113 113.023 25.2275C113.023 26.8438 111.664 28.2114 110.059 28.2114C108.453 28.2114 107.095 26.9059 107.095 25.2275Z" fill="#86BC26"/>
<path id="Vector_2" d="M18.0349 17.2079C18.0349 20.6891 17.1704 23.2999 15.3178 25.1648C13.4651 27.0297 10.8715 27.9622 7.53675 27.9622H0.990814V7.26172H7.90727C11.1802 7.26172 13.6504 8.06985 15.3795 9.81043C17.1704 11.4888 18.0349 13.9754 18.0349 17.2079ZM12.3536 17.3944C12.3536 15.4673 11.983 14.0997 11.242 13.1673C10.5627 12.297 9.38937 11.7997 7.90727 11.7997H6.42517V23.3621H7.66026C9.32762 23.3621 10.5009 22.8648 11.3037 21.8702C11.983 20.8755 12.3536 19.3836 12.3536 17.3944Z" fill="#1E1E1E"/>
<path id="Vector_3" d="M41.1336 7.19995H36.008V27.9626H41.1336V7.19995Z" fill="#1E1E1E"/>
<path id="Vector_4" d="M58.0552 20.1918C58.0552 22.6783 57.4377 24.6676 56.0791 26.0973C54.7205 27.5271 52.8679 28.2109 50.5212 28.2109C48.2363 28.2109 46.4455 27.5271 45.0869 26.0352C43.7283 24.5433 43.049 22.6162 43.049 20.1918C43.049 17.7053 43.6665 15.716 45.0251 14.3484C46.3837 12.9187 48.2363 12.2349 50.583 12.2349C52.0651 12.2349 53.3619 12.5457 54.4735 13.1673C55.6468 13.789 56.4496 14.7214 57.0672 15.9025C57.8082 17.208 58.0552 18.5755 58.0552 20.1918ZM48.3598 20.1918C48.3598 21.5594 48.5451 22.4919 48.8539 23.1757C49.1627 23.8595 49.7184 24.1703 50.583 24.1703C51.4476 24.1703 51.9416 23.8595 52.3121 23.1757C52.6209 22.4919 52.8061 21.4351 52.8061 20.1918C52.8061 18.8242 52.6209 17.8918 52.3121 17.208C52.0033 16.5863 51.4476 16.2133 50.583 16.2133C49.8419 16.2133 49.2244 16.5242 48.8539 17.208C48.5451 17.8918 48.3598 18.8242 48.3598 20.1918Z" fill="#1E1E1E"/>
<path id="Vector_5" d="M65.2829 12.4839H60.1573V27.9005H65.2829V12.4839Z" fill="#1E1E1E"/>
<path id="Vector_6" d="M65.2829 7.19995H60.1573V10.6811H65.2829V7.19995Z" fill="#1E1E1E"/>
<path id="Vector_7" d="M75.7196 23.984C76.3989 23.984 77.2634 23.7975 78.1897 23.4867V27.403C77.5105 27.7138 76.8312 27.9003 76.2136 28.0246C75.5961 28.1489 74.855 28.2111 73.9905 28.2111C72.2614 28.2111 71.0263 27.776 70.2235 26.8435C69.4824 25.9732 69.0501 24.6056 69.0501 22.8029V16.4622H67.2593V12.4837H69.0501V8.62957L74.2375 7.75928V12.608H77.5722V16.5243H74.2375V22.4921C74.361 23.5488 74.7933 23.984 75.7196 23.984Z" fill="#1E1E1E"/>
<path id="Vector_8" d="M87.6995 23.984C88.3788 23.984 89.2434 23.7975 90.1697 23.4867V27.403C89.4904 27.7138 88.8111 27.9003 88.1935 28.0246C87.576 28.1489 86.835 28.2111 85.9704 28.2111C84.2413 28.2111 83.0062 27.776 82.2034 26.8435C81.4623 25.9732 81.0301 24.6056 81.0301 22.8029V16.4622H79.2392V12.4837H81.0301V8.5674L86.2174 7.75928V12.608H89.5521V16.5243H86.2174V22.4921C86.2792 23.5488 86.7732 23.984 87.6995 23.984Z" fill="#1E1E1E"/>
<path id="Vector_9" d="M104.004 14.0376C102.769 12.7943 101.04 12.2349 98.8169 12.2349C96.4702 12.2349 94.6176 12.9187 93.3208 14.3484C92.0239 15.7782 91.4064 17.7674 91.4064 20.3783C91.4064 22.8648 92.0857 24.8541 93.4443 26.2217C94.8646 27.5893 96.779 28.2731 99.2491 28.2731C100.484 28.2731 101.472 28.2109 102.337 28.0244C103.14 27.8379 104.066 27.5893 104.807 27.1541L104.066 23.673C103.51 23.9216 102.893 24.1081 102.399 24.2324C101.658 24.4189 100.793 24.4811 99.9284 24.4811C98.9404 24.4811 98.1376 24.2324 97.5818 23.7973C97.026 23.3 96.7172 22.6162 96.7172 21.7459H105.919V19.3215C105.857 17.0215 105.178 15.2809 104.004 14.0376ZM96.7172 18.3269C96.779 17.5188 97.026 16.835 97.3965 16.462C97.767 16.089 98.2611 15.9025 98.9404 15.9025C99.5579 15.9025 100.175 16.089 100.546 16.5242C100.917 16.9593 101.102 17.5188 101.164 18.3269H96.7172Z" fill="#1E1E1E"/>
<path id="Vector_10" d="M32.1766 14.0376C30.8797 12.7943 29.2124 12.2349 26.9892 12.2349C24.6426 12.2349 22.7899 12.9187 21.4931 14.3484C20.1963 15.7782 19.5787 17.7674 19.5787 20.3783C19.5787 22.8648 20.258 24.8541 21.6166 26.2217C23.037 27.5893 24.9513 28.2731 27.4215 28.2731C28.6566 28.2731 29.6447 28.2109 30.5092 28.0244C31.312 27.8379 32.2383 27.5893 32.9794 27.1541L32.2383 23.6108C31.6825 23.8595 31.065 24.0459 30.571 24.1703C29.8299 24.3568 28.9654 24.4189 28.1008 24.4189C27.1127 24.4189 26.3099 24.1703 25.7541 23.7351C25.1984 23.2378 24.8896 22.554 24.8896 21.6837H34.0909V19.3215C34.0292 17.0215 33.3499 15.2809 32.1766 14.0376ZM24.8278 18.3269C24.8896 17.5188 25.1366 16.835 25.5071 16.462C25.8777 16.089 26.3717 15.9025 27.051 15.9025C27.7303 15.9025 28.2861 16.089 28.6566 16.5242C29.0271 16.9593 29.2124 17.5188 29.2741 18.3269H24.8278Z" fill="#1E1E1E"/>
</g>
</g>
<defs>
<clipPath id="clip0_596_275">
<rect width="113.268" height="36" fill="white" transform="translate(0.240845)"/>
</clipPath>
</defs>
</svg>
