<?xml version="1.0" encoding="UTF-8"?>
<svg xmlns="http://www.w3.org/2000/svg" width="64" height="64" viewBox="0 0 64 64" fill="none">
  <path fill-rule="evenodd" clip-rule="evenodd" d="M57.4113 6.58554C58.1923 7.36659 58.1923 8.63292 57.4113 9.41397L33.4113 33.414C32.6302 34.195 31.3639 34.195 30.5829 33.414C29.8018 32.6329 29.8018 31.3666 30.5829 30.5855L54.5829 6.58554C55.3639 5.80449 56.6302 5.80449 57.4113 6.58554Z" fill="black"></path>
  <path fill-rule="evenodd" clip-rule="evenodd" d="M57.4113 6.58554C58.1923 7.36659 58.1923 8.63292 57.4113 9.41397L33.4113 33.414C32.6302 34.195 31.3639 34.195 30.5829 33.414C29.8018 32.6329 29.8018 31.3666 30.5829 30.5855L54.5829 6.58554C55.3639 5.80449 56.6302 5.80449 57.4113 6.58554Z" fill="url(#paint0_linear_9572_2242)"></path>
  <path fill-rule="evenodd" clip-rule="evenodd" d="M15.1747 12.0676C20.1704 7.86652 26.5614 5.69402 33.0825 5.98013C39.6037 6.26625 45.7798 8.99012 50.3885 13.6126C51.1683 14.3948 51.1664 15.6612 50.3842 16.4411C49.602 17.2209 48.3357 17.219 47.5558 16.4368C43.6548 12.5241 38.427 10.2185 32.9072 9.97629C27.3874 9.73411 21.9778 11.573 17.7491 15.1291C13.5204 18.6851 10.7808 23.6991 10.0726 29.1786C9.36437 34.6582 10.7391 40.204 13.9247 44.7183C17.1103 49.2326 21.8745 52.3865 27.2745 53.5557C32.6746 54.7249 38.3167 53.8243 43.0844 51.032C47.852 48.2397 51.3976 43.7592 53.0194 38.4775C54.6412 33.1957 54.221 27.4976 51.842 22.5109C51.3664 21.5139 51.789 20.3202 52.786 19.8446C53.7829 19.369 54.9766 19.7916 55.4522 20.7886C58.2628 26.6799 58.7592 33.4117 56.8432 39.6516C54.9272 45.8915 50.7384 51.1847 45.1059 54.4835C39.4734 57.7824 32.8077 58.8465 26.4281 57.4651C20.0485 56.0838 14.4199 52.3578 10.6565 47.0245C6.89299 41.6913 5.26889 35.1395 6.1056 28.6659C6.94231 22.1923 10.1789 16.2688 15.1747 12.0676Z" fill="black"></path>
  <path fill-rule="evenodd" clip-rule="evenodd" d="M15.1747 12.0676C20.1704 7.86652 26.5614 5.69402 33.0825 5.98013C39.6037 6.26625 45.7798 8.99012 50.3885 13.6126C51.1683 14.3948 51.1664 15.6612 50.3842 16.4411C49.602 17.2209 48.3357 17.219 47.5558 16.4368C43.6548 12.5241 38.427 10.2185 32.9072 9.97629C27.3874 9.73411 21.9778 11.573 17.7491 15.1291C13.5204 18.6851 10.7808 23.6991 10.0726 29.1786C9.36437 34.6582 10.7391 40.204 13.9247 44.7183C17.1103 49.2326 21.8745 52.3865 27.2745 53.5557C32.6746 54.7249 38.3167 53.8243 43.0844 51.032C47.852 48.2397 51.3976 43.7592 53.0194 38.4775C54.6412 33.1957 54.221 27.4976 51.842 22.5109C51.3664 21.5139 51.789 20.3202 52.786 19.8446C53.7829 19.369 54.9766 19.7916 55.4522 20.7886C58.2628 26.6799 58.7592 33.4117 56.8432 39.6516C54.9272 45.8915 50.7384 51.1847 45.1059 54.4835C39.4734 57.7824 32.8077 58.8465 26.4281 57.4651C20.0485 56.0838 14.4199 52.3578 10.6565 47.0245C6.89299 41.6913 5.26889 35.1395 6.1056 28.6659C6.94231 22.1923 10.1789 16.2688 15.1747 12.0676Z" fill="url(#paint1_linear_9572_2242)"></path>
  <path fill-rule="evenodd" clip-rule="evenodd" d="M24.0757 20.5042C26.7636 18.6483 30.0167 17.7926 33.27 18.0857C36.5232 18.3788 39.571 19.8022 41.884 22.1086C42.6661 22.8886 42.6679 24.1549 41.8879 24.9371C41.108 25.7192 39.8416 25.721 39.0595 24.941C37.4086 23.2947 35.2331 22.2788 32.9111 22.0696C30.589 21.8604 28.267 22.4712 26.3484 23.7959C24.4298 25.1206 23.0359 27.0755 22.4087 29.321C21.7815 31.5666 21.9608 33.9609 22.9152 36.088C23.8697 38.2151 25.5392 39.9408 27.6336 40.9651C29.728 41.9894 32.1151 42.2477 34.3801 41.6951C36.6452 41.1426 38.6451 39.814 40.0326 37.9403C41.42 36.0666 42.1072 33.766 41.975 31.4383C41.9123 30.3355 42.7555 29.3907 43.8582 29.3281C44.961 29.2654 45.9058 30.1086 45.9685 31.2114C46.1539 34.4725 45.191 37.6955 43.2472 40.3206C41.3034 42.9457 38.5015 44.807 35.3281 45.5812C32.1548 46.3553 28.8105 45.9934 25.8762 44.5583C22.942 43.1233 20.6031 40.7057 19.2658 37.7256C17.9286 34.7454 17.6775 31.391 18.5561 28.245C19.4348 25.099 21.3877 22.3602 24.0757 20.5042Z" fill="black"></path>
  <path fill-rule="evenodd" clip-rule="evenodd" d="M24.0757 20.5042C26.7636 18.6483 30.0167 17.7926 33.27 18.0857C36.5232 18.3788 39.571 19.8022 41.884 22.1086C42.6661 22.8886 42.6679 24.1549 41.8879 24.9371C41.108 25.7192 39.8416 25.721 39.0595 24.941C37.4086 23.2947 35.2331 22.2788 32.9111 22.0696C30.589 21.8604 28.267 22.4712 26.3484 23.7959C24.4298 25.1206 23.0359 27.0755 22.4087 29.321C21.7815 31.5666 21.9608 33.9609 22.9152 36.088C23.8697 38.2151 25.5392 39.9408 27.6336 40.9651C29.728 41.9894 32.1151 42.2477 34.3801 41.6951C36.6452 41.1426 38.6451 39.814 40.0326 37.9403C41.42 36.0666 42.1072 33.766 41.975 31.4383C41.9123 30.3355 42.7555 29.3907 43.8582 29.3281C44.961 29.2654 45.9058 30.1086 45.9685 31.2114C46.1539 34.4725 45.191 37.6955 43.2472 40.3206C41.3034 42.9457 38.5015 44.807 35.3281 45.5812C32.1548 46.3553 28.8105 45.9934 25.8762 44.5583C22.942 43.1233 20.6031 40.7057 19.2658 37.7256C17.9286 34.7454 17.6775 31.391 18.5561 28.245C19.4348 25.099 21.3877 22.3602 24.0757 20.5042Z" fill="url(#paint2_linear_9572_2242)"></path>
  <defs>
    <linearGradient id="paint0_linear_9572_2242" x1="9.71652" y1="24.2088" x2="54.76" y2="24.3414" gradientUnits="userSpaceOnUse">
      <stop stop-color="#7FE786"></stop>
      <stop offset="1" stop-color="#58A7FE"></stop>
    </linearGradient>
    <linearGradient id="paint1_linear_9572_2242" x1="9.71652" y1="24.2088" x2="54.76" y2="24.3414" gradientUnits="userSpaceOnUse">
      <stop stop-color="#7FE786"></stop>
      <stop offset="1" stop-color="#58A7FE"></stop>
    </linearGradient>
    <linearGradient id="paint2_linear_9572_2242" x1="9.71652" y1="24.2088" x2="54.76" y2="24.3414" gradientUnits="userSpaceOnUse">
      <stop stop-color="#7FE786"></stop>
      <stop offset="1" stop-color="#58A7FE"></stop>
    </linearGradient>
  </defs>
</svg>
