<?xml version="1.0" encoding="UTF-8"?>
<svg xmlns="http://www.w3.org/2000/svg" width="118" height="36" viewBox="0 0 118 36" fill="none">
  <g clip-path="url(#clip0_9555_33435)">
    <path fill-rule="evenodd" clip-rule="evenodd" d="M11.7027 12.3716C11.9976 12.1063 12.1571 11.9078 11.919 11.9078C11.4215 11.9078 8.40873 12.3524 7.78804 10.0768C7.16693 7.80148 10.4882 0.935789 10.6134 0.641518C10.7337 0.358836 10.4851 0 10.1204 0C9.76219 0 9.49946 0.388636 9.46169 0.436233C6.07189 4.68701 1.33951 9.99589 0.729904 12.2843C-0.812384 18.0782 5.1507 20.4263 8.91468 20.8555C8.98139 20.863 9.01444 20.8103 9.01444 20.7696V18.7124C9.01444 15.9362 10.0534 13.8568 11.7027 12.3716Z" fill="white"></path>
    <path fill-rule="evenodd" clip-rule="evenodd" d="M105.902 12.3716C105.607 12.1063 105.447 11.9078 105.686 11.9078C106.183 11.9078 109.196 12.3524 109.817 10.0768C110.438 7.80148 107.117 0.935789 106.991 0.641518C106.871 0.358836 107.12 0 107.484 0C107.842 0 108.105 0.388636 108.143 0.436233C111.533 4.68701 116.265 9.99589 116.875 12.2843C118.417 18.0782 112.454 20.4263 108.69 20.8555C108.623 20.863 108.59 20.8103 108.59 20.7696V18.7124C108.59 15.9362 107.551 13.8568 105.902 12.3716Z" fill="white"></path>
    <path fill-rule="evenodd" clip-rule="evenodd" d="M101.942 27.1626C101.942 29.4096 98.9374 30.6933 96.9821 30.6933C94.8903 30.6933 91.9312 29.4096 91.9312 27.1626V19.2446C91.9312 16.9989 94.8903 15.9443 96.9821 15.9443C98.9374 15.9443 101.942 16.9989 101.942 19.2446V27.1626ZM96.9821 11.0386C92.3437 11.0851 86.9297 13.7894 86.9297 19.2446V27.5426C86.9297 33.0897 92.3437 35.7031 96.9821 35.7486C101.529 35.7031 106.944 33.0897 106.944 27.5426V19.2446C106.944 13.7894 101.529 11.0851 96.9821 11.0386Z" fill="white"></path>
    <path fill-rule="evenodd" clip-rule="evenodd" d="M66.9891 27.1626C66.9891 29.4096 63.9834 30.6933 62.0286 30.6933C59.9374 30.6933 56.9783 29.4096 56.9783 27.1626V19.2446C56.9783 16.9989 59.9374 15.9443 62.0286 15.9443C63.9834 15.9443 66.9891 16.9989 66.9891 19.2446V27.1626ZM62.0286 11.0386C57.3908 11.0851 51.9766 13.7894 51.9766 19.2446V27.5426C51.9766 33.0897 57.3908 35.7031 62.0286 35.7486C66.576 35.7031 71.9907 33.0897 71.9907 27.5426V19.2446C71.9907 13.7894 66.576 11.0851 62.0286 11.0386Z" fill="white"></path>
    <path fill-rule="evenodd" clip-rule="evenodd" d="M51.6043 12.8454C47.9021 11.8353 45.1643 11.4127 41.1966 11.4121C37.2275 11.4111 34.4828 11.8347 30.7874 12.8417C30.6121 12.8812 30.5779 13.0623 30.6587 13.1716C31.9238 14.2256 32.4548 15.6345 32.7006 17.2244C34.7331 16.7261 36.5656 16.4354 38.6957 16.3152V35.586C38.6937 35.6547 38.7434 35.6969 38.8158 35.6969H43.5752C43.6574 35.7033 43.6978 35.6673 43.6968 35.5904V16.3185C45.745 16.4406 47.4537 16.7299 49.4708 17.2244C49.7779 15.6435 50.4187 14.1692 51.7145 13.1821C51.8294 13.0385 51.7306 12.8798 51.6043 12.8454Z" fill="white"></path>
    <path fill-rule="evenodd" clip-rule="evenodd" d="M87.1094 11.2088C86.7538 11.1585 85.7036 11.0058 84.7788 11.0408C80.2227 11.2167 75.0704 13.9272 75.0704 19.2448V19.6736V27.5434V35.6372C75.0687 35.7057 75.1182 35.7482 75.1909 35.7482H79.9504C80.0327 35.7546 80.0731 35.7186 80.0714 35.6414V35.2122H80.0722V19.2448C80.0722 17.4912 82.2138 16.4069 84.0003 16.0415C84.5198 14.2931 85.5404 13.0318 87.1027 11.7672C87.3764 11.5455 87.3618 11.244 87.1094 11.2088Z" fill="white"></path>
    <path fill-rule="evenodd" clip-rule="evenodd" d="M25.4134 20.6447C25.4134 20.7008 25.3921 20.7523 25.3568 20.7895C25.3185 20.8305 25.2636 20.8566 25.2034 20.8566H16.0807V19.1862C16.0807 16.9073 18.7669 15.8383 20.8884 15.8383C22.8716 15.8383 25.4147 16.9073 25.4147 19.1862L25.4134 20.6447ZM20.8884 10.8628C16.1842 10.9096 11.0078 13.6526 11.0078 19.1862V27.6019C11.0078 33.2282 16.1842 35.8791 20.8884 35.9253C24.2587 35.8915 28.096 34.486 29.9223 31.5063C29.9833 31.4074 29.9293 31.277 29.8366 31.2223C28.2263 30.2915 27.2916 29.776 25.6958 28.8704C25.6454 28.8419 25.5912 28.8419 25.5505 28.9103C24.6785 30.3746 22.453 31.1827 20.8884 31.1827C18.7669 31.1827 16.0807 29.8804 16.0807 27.6019V25.0876H29.1214C29.8181 25.0876 30.3825 24.5185 30.3825 23.8159V19.1862C30.3825 13.6526 25.5005 10.9096 20.8884 10.8628Z" fill="white"></path>
  </g>
  <defs>
    <clipPath id="clip0_9555_33435">
      <rect width="116.645" height="36" fill="white" transform="translate(0.476562)"></rect>
    </clipPath>
  </defs>
</svg>
