<?xml version="1.0" encoding="UTF-8"?> <svg xmlns="http://www.w3.org/2000/svg" width="190" height="88" viewBox="0 0 190 88" fill="none"><g opacity="0.9"><g clip-path="url(#clip0_4074_10526)"><path d="M64.3452 35.8635H66.0165C67.0344 35.7135 68.0739 35.8454 69.0221 36.245C70.2116 36.9613 71.0745 38.1145 71.4265 39.4585C71.6757 40.1629 71.6757 40.1629 72.2768 39.9134H72.746V34.3375H57.0146V35.3206H57.6597C57.94 35.3187 58.2172 35.3796 58.471 35.499C58.7247 35.6183 58.9484 35.793 59.1258 36.0103C59.7269 36.9787 59.8296 38.0646 59.8296 43.7139C59.8296 49.7153 59.6976 51.1827 59.1258 51.931C58.9847 52.1234 58.8019 52.2814 58.5912 52.3932C58.3805 52.505 58.1473 52.5677 57.909 52.5767C57.0146 52.7381 57.0146 52.7234 57.0146 53.1196C56.9652 53.2521 56.9652 53.398 57.0146 53.5304H66.9402C67.0059 53.4008 67.0401 53.2576 67.0401 53.1123C67.0401 52.9669 67.0059 52.8237 66.9402 52.6941C66.6998 52.6271 66.4548 52.5781 66.2071 52.5473C65.9392 52.5154 65.6744 52.4615 65.4154 52.3859C65.0445 52.1149 64.7507 51.7517 64.563 51.3322C64.3753 50.9128 64.3002 50.4515 64.3452 49.9941C64.1986 49.0257 64.1253 47.2502 64.1253 45.7828V44.6236H64.7117C65.4423 44.6013 66.1726 44.6803 66.8815 44.8584C67.2212 45.0685 67.5103 45.351 67.7283 45.6858C67.9462 46.0206 68.0876 46.3995 68.1424 46.7953L68.2743 47.2502H69.1687V40.7498H68.3477L68.2157 41.3808C68.1602 41.7856 68.0106 42.1717 67.7788 42.5081C67.5471 42.8445 67.2398 43.1218 66.8815 43.3177C66.5346 43.421 66.1691 43.4461 65.8113 43.391H64.1253V41.8063C64.1253 40.1629 64.2132 36.6999 64.2719 36.157L64.3452 35.8635ZM132.959 47.4996C132.266 46.3833 131.185 45.5628 129.924 45.1959C128.958 44.8935 128.064 44.3938 127.3 43.7285C127.128 43.5621 126.999 43.3561 126.925 43.1284C126.851 42.9008 126.834 42.6585 126.875 42.4226C126.876 41.9599 127.06 41.5166 127.388 41.19C127.61 40.9574 127.891 40.7895 128.201 40.7042C128.51 40.6189 128.838 40.6194 129.147 40.7058C129.788 40.8886 130.368 41.2415 130.825 41.7272C131.281 42.2128 131.598 42.8131 131.742 43.4644C131.977 44.1247 132.006 44.1247 132.431 43.9486L132.695 43.8459V40.1922L132.505 40.1042C131.061 39.5968 129.53 39.3872 128.004 39.4879C126.689 39.5212 125.434 40.0445 124.485 40.9552C124.054 41.3586 123.717 41.8513 123.497 42.3988C123.277 42.9462 123.178 43.5353 123.209 44.1247C123.218 45.0259 123.575 45.8886 124.206 46.5312C124.904 47.2179 125.76 47.7219 126.699 47.9985C128.971 48.8936 129.631 49.4659 129.631 50.5077C129.641 50.947 129.501 51.3766 129.234 51.726C128.968 52.0753 128.591 52.3235 128.165 52.4299C127.653 52.5425 127.123 52.5425 126.611 52.4299C125.941 52.1696 125.342 51.7528 124.865 51.2143C124.388 50.6758 124.047 50.0311 123.869 49.3338L123.679 48.8643H123.415C123.289 48.8736 123.165 48.9034 123.048 48.9523H122.902V53.1196H123.151C124.141 53.4494 125.163 53.6756 126.2 53.7946H127.666C128.302 53.8413 128.941 53.7818 129.558 53.6185C130.34 53.474 131.071 53.1271 131.678 52.6122C132.285 52.0974 132.747 51.4326 133.018 50.6838C133.193 50.2656 133.282 49.8166 133.282 49.3632C133.339 48.7244 133.228 48.0817 132.959 47.4996ZM119.148 39.9134C118.27 39.5443 117.323 39.3652 116.371 39.3879C115.418 39.4107 114.481 39.6348 113.621 40.0455C112.813 40.4412 112.096 41.0022 111.518 41.6922C110.94 42.3822 110.512 43.1858 110.264 44.0514C109.947 44.9955 109.812 45.9915 109.868 46.9861C109.857 47.5272 109.902 48.0679 110 48.6001C110.237 49.9087 110.868 51.1135 111.809 52.0525C112.75 52.9916 113.955 53.62 115.263 53.8533C116.115 53.9607 116.977 53.9607 117.829 53.8533C118.713 53.6973 119.559 53.3736 120.321 52.8995C120.952 52.5456 121.486 52.0417 121.875 51.4321C121.85 51.3365 121.806 51.2469 121.746 51.1687C121.685 51.0906 121.61 51.0254 121.523 50.9773C121.356 51.0379 121.198 51.1219 121.054 51.2267C120.325 51.7077 119.464 51.9488 118.591 51.9164C118.012 51.9556 117.431 51.8653 116.891 51.6521C116.351 51.4389 115.865 51.1082 115.468 50.6838C115.162 50.3986 114.908 50.0606 114.721 49.686C114.265 48.7738 114.02 47.771 114.002 46.7513V46.179H122.125V45.8855C122.142 45.5924 122.142 45.2983 122.125 45.0051C122.122 43.969 121.845 42.9522 121.322 42.0579C120.799 41.1636 120.049 40.4237 119.148 39.9134ZM115.058 44.9905H114.032V44.1247C114.369 41.909 115.204 40.5884 116.231 40.5884C117.257 40.5884 117.697 41.8944 117.887 44.2861V44.9611H117.008L115.058 44.9905ZM93.9752 39.4292C93.4686 39.4095 92.965 39.5154 92.5091 39.7373C91.5182 40.219 90.7179 41.02 90.2367 42.0117L90.0461 42.3639V39.4292H89.9728C89.7968 39.4292 84.3722 40.515 84.1963 40.5884C84.0204 40.6618 84.079 40.6764 84.079 40.9406C84.079 41.2047 84.079 41.2487 84.1963 41.2634L84.7681 41.3808C84.9282 41.3847 85.0854 41.4251 85.2276 41.4988C85.3699 41.5725 85.4935 41.6777 85.5891 41.8063C85.9556 42.2905 86.0289 43.1416 86.0289 46.766C86.1013 48.3976 86.0327 50.0324 85.8237 51.6522C85.7745 51.8965 85.6507 52.1194 85.4695 52.2903C85.2883 52.4611 85.0586 52.5714 84.812 52.606L84.3136 52.7087H84.123V53.1196C84.0698 53.2564 84.0698 53.4083 84.123 53.5451H92.3185V53.1196C92.347 52.9792 92.347 52.8345 92.3185 52.6941C91.8251 52.6748 91.3344 52.611 90.8524 52.5033C90.59 52.3659 90.3752 52.1522 90.2365 51.8902C90.0978 51.6283 90.0416 51.3305 90.0754 51.0359C89.9581 50.1849 89.8994 47.6904 89.9288 45.7828C89.9581 43.8753 89.9288 43.7579 90.09 43.6258C90.5806 43.2494 91.1877 43.0572 91.8054 43.0829C92.3876 43.0956 92.9592 43.2412 93.4768 43.5084C93.6562 43.6081 93.8486 43.6822 94.0485 43.7285C94.0485 43.7285 95.5146 40.1776 95.5146 40.0161C95.327 39.7979 95.088 39.63 94.8192 39.5275C94.5504 39.425 94.2603 39.3912 93.9752 39.4292ZM84.0937 45.5921C84.0425 44.5435 83.7417 43.5224 83.2164 42.6137C82.691 41.7051 81.9563 40.9352 81.0735 40.3683C80.0243 39.8018 78.8571 39.4895 77.6654 39.4564C76.4738 39.4232 75.291 39.6702 74.2121 40.1775C72.6866 40.9827 71.5348 42.3513 71.0013 43.9927C70.4503 45.8304 70.4503 47.7896 71.0013 49.6273C71.2902 50.6317 71.8301 51.5457 72.57 52.2832C73.4916 53.1832 74.68 53.7599 75.9568 53.9266C76.7763 53.9952 77.6002 53.9952 78.4198 53.9266C78.7214 53.8807 79.02 53.817 79.3141 53.7359C80.5075 53.4018 81.5811 52.7344 82.4094 51.8119C83.2376 50.8894 83.7862 49.7499 83.991 48.5268C84.1374 47.5557 84.1718 46.571 84.0937 45.5921ZM77.9946 52.9288C76.5285 53.369 75.429 51.9457 75.0624 48.9523C74.9278 47.3851 74.9278 45.8093 75.0624 44.2421C75.3556 41.8357 76.1034 40.6178 77.2616 40.6178C77.4953 40.6033 77.729 40.645 77.9433 40.7394C78.1575 40.8339 78.3461 40.9783 78.4931 41.1607C79.4754 42.1438 79.9592 44.0954 79.9592 47.0301C80.0812 48.691 79.8204 50.3577 79.1969 51.9017C78.9215 52.352 78.4955 52.69 77.9946 52.8555V52.9288ZM104.385 39.7227C103.971 39.6694 103.552 39.6694 103.138 39.7227C102.344 39.722 101.559 39.8921 100.837 40.2216L100.382 40.4123V37.2282C100.462 36.1536 100.462 35.0746 100.382 34C100.206 34 94.6057 35.0712 94.5177 35.1152C94.4744 35.2235 94.4744 35.3443 94.5177 35.4527C94.5177 35.7608 94.5177 35.7461 95.1774 35.8929C95.3627 35.9345 95.5406 36.0037 95.7052 36.0983C95.9914 36.3677 96.1819 36.7232 96.2477 37.1108C96.4146 38.2275 96.4687 39.3582 96.409 40.4857V53.369L96.8048 53.4571C97.3913 53.5891 99.048 53.8679 99.5904 53.9266C100.674 54.0129 101.762 54.0129 102.845 53.9266C104.048 53.8037 105.194 53.3548 106.16 52.6282C107.126 51.9016 107.876 50.9249 108.328 49.8034C108.598 49.0835 108.785 48.3352 108.886 47.573C108.973 46.5405 108.938 45.5013 108.783 44.4769C108.626 43.3286 108.119 42.2565 107.332 41.406C106.546 40.5555 105.516 39.9678 104.385 39.7227ZM100.543 52.6794C100.543 52.4886 100.397 46.0616 100.426 43.4938V41.4835L100.851 41.3808C101.138 41.3396 101.429 41.3396 101.716 41.3808C102.034 41.3485 102.353 41.4206 102.625 41.5862C103.173 41.9644 103.627 42.462 103.955 43.0415C104.283 43.621 104.475 44.2673 104.517 44.9318C104.623 46.0003 104.623 47.0768 104.517 48.1453C104.429 49.6982 103.831 51.1787 102.816 52.3566C102.528 52.6305 102.166 52.8141 101.775 52.8848C101.479 52.9363 101.176 52.9363 100.881 52.8848C100.602 52.8848 100.602 52.7968 100.602 52.6794H100.543Z" fill="#33629A"></path></g></g><defs><clipPath id="clip0_4074_10526"><rect width="76.2963" height="20" fill="white" transform="translate(57 34)"></rect></clipPath></defs></svg> 