<?xml version="1.0" encoding="UTF-8"?>
<svg xmlns="http://www.w3.org/2000/svg" width="188" height="141" viewBox="0 0 188 141" fill="none">
  <g clip-path="url(#clip0_9608_5151)">
    <path d="M51.5303 69.9738C56.781 67.5914 58.165 65.2603 58.5203 64.3409C58.5649 64.227 58.5626 64.1002 58.514 63.9878C58.4654 63.8755 58.3744 63.7867 58.2606 63.7404C57.3455 63.3721 54.6882 62.7819 49.3438 64.9806C49.1902 65.0423 49.0244 65.0682 48.8593 65.056C48.6941 65.0439 48.5339 64.9942 48.3911 64.9106C47.582 64.4444 45.4564 63.9335 41.433 67.3807C41.3707 67.4333 41.3274 67.5048 41.3097 67.5841C41.292 67.6635 41.3008 67.7465 41.3349 67.8204C41.369 67.8943 41.4264 67.9551 41.4985 67.9935C41.5705 68.032 41.6532 68.046 41.734 68.0334C41.9942 67.9914 42.2571 67.9671 42.5206 67.9607C42.9814 67.9537 43.434 68.0829 43.8209 68.3319C44.2078 68.5808 44.5117 68.9384 44.6941 69.3593L45.1366 70.3719C45.3216 70.7917 45.3771 71.2566 45.2961 71.7078C45.2152 72.1589 45.0014 72.5761 44.6819 72.9063C44.4979 73.0936 44.3011 73.268 44.093 73.4285C44.029 73.4786 43.9831 73.5481 43.9623 73.6264C43.9415 73.7048 43.9469 73.7877 43.9777 73.8627C44.0086 73.9377 44.0631 74.0007 44.1332 74.0422C44.2032 74.0836 44.2849 74.1012 44.3659 74.0924C49.6372 73.5198 50.7183 71.6307 50.9293 70.7207C50.9654 70.5588 51.0383 70.4072 51.1425 70.2778C51.2467 70.1483 51.3794 70.0443 51.5303 69.9738Z" fill="white"></path>
    <path d="M50.0614 78.3929C51.9376 77.6 53.526 76.2569 54.6145 74.5428C55.4584 73.2076 54.0679 71.5851 52.6118 72.2117C52.316 72.3392 52.0657 72.5524 51.8936 72.8234C51.3793 73.6307 50.7004 74.3218 49.9008 74.8518C49.1011 75.3818 48.1985 75.7391 47.2514 75.9005C46.0113 76.122 44.7336 75.9919 43.5644 75.5251C42.3952 75.0583 41.3818 74.2736 40.6401 73.2607C37.9576 69.5944 39.47 64.6655 43.3986 62.9685C44.6543 62.4236 46.0462 62.2686 47.392 62.5237C47.708 62.5834 48.0348 62.547 48.3296 62.4193C49.7839 61.7908 49.5485 59.6714 47.9893 59.3758C45.9131 58.9856 43.7661 59.2558 41.8531 60.1479C39.94 61.0401 38.3582 62.5088 37.3322 64.3457C37.0429 64.8682 36.588 65.281 36.0383 65.5196L31.0051 67.695C30.8266 67.7721 30.6651 67.8833 30.5298 68.0225C30.3946 68.1616 30.2882 68.3259 30.2168 68.5059C30.1454 68.6859 30.1104 68.8782 30.1137 69.0716C30.1171 69.2651 30.1587 69.4561 30.2362 69.6336C30.3927 69.9918 30.6859 70.2736 31.0512 70.417C31.4166 70.5604 31.8243 70.5536 32.1846 70.3982L34.1752 69.5384C34.3779 69.4509 34.5981 69.411 34.8188 69.4217C35.0395 69.4325 35.2547 69.4937 35.4477 69.6006C35.6408 69.7074 35.8065 69.8571 35.932 70.038C36.0575 70.2188 36.1394 70.426 36.1714 70.6434C36.1714 70.6667 36.178 70.6891 36.1817 70.7124C36.232 71.0254 36.1764 71.3462 36.0237 71.6244C35.871 71.9027 35.6298 72.1227 35.3379 72.25L25.1065 76.6707C24.7459 76.8265 24.4623 77.1183 24.3181 77.4821C24.174 77.8458 24.181 78.2516 24.3376 78.6101C24.4945 78.9685 24.788 79.2503 25.1537 79.3935C25.5195 79.5367 25.9274 79.5296 26.2879 79.3738L36.5193 74.9578C36.8121 74.8319 37.1387 74.8062 37.4478 74.8847C37.757 74.9632 38.0312 75.1413 38.2276 75.3914L38.2698 75.4436C38.4083 75.6151 38.5051 75.8161 38.5528 76.0309C38.6005 76.2457 38.5977 76.4686 38.5447 76.6822C38.4918 76.8957 38.39 77.0943 38.2474 77.2624C38.1047 77.4306 37.925 77.5637 37.7222 77.6516L32.9535 79.7067C32.5929 79.8625 32.3093 80.1544 32.1651 80.5181C32.021 80.8818 32.028 81.2876 32.1846 81.6462C32.2622 81.8236 32.3741 81.9841 32.5141 82.1185C32.654 82.2529 32.8192 82.3586 33.0002 82.4295C33.1812 82.5004 33.3745 82.5352 33.5691 82.5318C33.7636 82.5284 33.9555 82.487 34.1339 82.4098L41.9547 79.0307C42.5061 78.7945 43.1203 78.7456 43.7024 78.8917C45.82 79.4207 48.0535 79.2455 50.0614 78.3929Z" fill="white"></path>
    <path d="M79.0337 73.5364C79.1338 73.5568 79.2281 73.5994 79.3095 73.6609C79.3909 73.7224 79.4575 73.8013 79.5042 73.8917C79.5508 73.9822 79.5765 74.0819 79.5793 74.1836C79.5821 74.2852 79.562 74.3862 79.5203 74.479C78.3736 77.0796 75.8439 78.4158 72.354 78.4158C67.5103 78.4158 64.5117 75.8357 64.5117 70.8631C64.5117 65.8904 67.5121 63.3103 72.354 63.3103C75.977 63.3103 78.5761 64.7649 79.6591 67.5995C79.6942 67.6933 79.708 67.7937 79.6994 67.8935C79.6908 67.9932 79.66 68.0899 79.6093 68.1764C79.5587 68.2629 79.4893 68.3371 79.4063 68.3938C79.3233 68.4504 79.2287 68.4881 79.1293 68.504L77.4219 68.7837C77.2742 68.809 77.1223 68.7846 76.9901 68.7146C76.8579 68.6445 76.7528 68.5327 76.6915 68.3968C75.9864 66.8116 74.4581 65.9724 72.354 65.9724C69.3536 65.9724 67.6256 67.7692 67.6256 70.8658C67.6256 73.9625 69.3555 75.7593 72.354 75.7593C74.3606 75.7593 75.8448 74.9882 76.5902 73.5438C76.6582 73.4128 76.7674 73.3076 76.9011 73.2441C77.0349 73.1806 77.1858 73.1624 77.331 73.1923L79.0337 73.5364Z" fill="white"></path>
    <path d="M87.3638 63.696H91.3478C91.4881 63.6961 91.625 63.739 91.7399 63.8191C91.8548 63.8992 91.9422 64.0125 91.9901 64.1436L96.7232 77.1232C96.7606 77.2256 96.7726 77.3356 96.7581 77.4436C96.7437 77.5517 96.7034 77.6547 96.6405 77.744C96.5775 77.8333 96.4939 77.9061 96.3967 77.9565C96.2995 78.0068 96.1915 78.0331 96.0819 78.0332H94.277C94.1335 78.0329 93.9939 77.9878 93.8777 77.9041C93.7616 77.8204 93.6749 77.7024 93.63 77.567L93.0009 75.7021C92.9559 75.5667 92.8693 75.4487 92.7531 75.365C92.637 75.2814 92.4973 75.2362 92.3539 75.2359H86.3531C86.2096 75.236 86.0699 75.2812 85.9537 75.3649C85.8375 75.4486 85.7509 75.5666 85.7061 75.7021L85.076 77.567C85.0312 77.7025 84.9446 77.8205 84.8284 77.9042C84.7123 77.988 84.5725 78.0331 84.4291 78.0332H82.6279C82.5182 78.0334 82.4101 78.0072 82.3127 77.9569C82.2154 77.9066 82.1317 77.8337 82.0687 77.7444C82.0058 77.655 81.9655 77.5519 81.9511 77.4438C81.9368 77.3356 81.949 77.2256 81.9865 77.1232L86.7225 64.1408C86.7707 64.0103 86.8581 63.8976 86.9728 63.8181C87.0875 63.7385 87.224 63.6959 87.3638 63.696ZM91.6976 71.8633L90.0023 66.8356C89.9574 66.7001 89.8707 66.5822 89.7546 66.4985C89.6385 66.4148 89.4988 66.3696 89.3554 66.3693C89.2126 66.3692 89.0735 66.4136 88.9574 66.4962C88.8414 66.5788 88.7543 66.6956 88.7084 66.83L86.9982 71.8614C86.9633 71.9635 86.9534 72.0724 86.9693 72.179C86.9852 72.2856 87.0264 72.387 87.0896 72.4746C87.1527 72.5622 87.236 72.6336 87.3325 72.6828C87.4289 72.732 87.5358 72.7576 87.6442 72.7575H91.0506C91.1588 72.7574 91.2654 72.7318 91.3617 72.6827C91.458 72.6336 91.5411 72.5625 91.6043 72.4751C91.6675 72.3878 91.7089 72.2868 91.7251 72.1804C91.7413 72.074 91.7319 71.9653 91.6976 71.8633Z" fill="white"></path>
    <path d="M99.1875 64.3749C99.1875 64.1948 99.2594 64.0222 99.3874 63.8949C99.5154 63.7676 99.6891 63.696 99.8701 63.696H106.588C109.991 63.696 112.547 65.3213 112.547 69.1443C112.547 72.9673 109.991 74.3976 106.588 74.3976H102.946C102.764 74.3976 102.591 74.4692 102.463 74.5965C102.335 74.7238 102.263 74.8964 102.263 75.0765V77.3507C102.263 77.5307 102.191 77.7034 102.063 77.8307C101.935 77.958 101.761 78.0295 101.58 78.0295H99.8701C99.6891 78.0295 99.5154 77.958 99.3874 77.8307C99.2594 77.7034 99.1875 77.5307 99.1875 77.3507V64.3749ZM102.263 67.051V71.0465C102.263 71.2265 102.335 71.3991 102.463 71.5265C102.591 71.6538 102.764 71.7253 102.946 71.7253H106.857C108.087 71.7253 109.452 71.2665 109.452 69.1639C109.452 67.0612 108.087 66.3731 106.857 66.3731H102.946C102.856 66.373 102.767 66.3904 102.684 66.4244C102.602 66.4584 102.526 66.5083 102.463 66.5713C102.4 66.6343 102.349 66.709 102.315 66.7913C102.281 66.8736 102.263 66.9619 102.263 67.051Z" fill="white"></path>
    <path d="M118.496 66.3731H115.15C114.97 66.3728 114.796 66.3012 114.668 66.1739C114.541 66.0466 114.469 65.8741 114.469 65.6943V64.3749C114.469 64.195 114.541 64.0225 114.668 63.8952C114.796 63.7679 114.97 63.6963 115.15 63.696H126.281C126.371 63.696 126.459 63.7136 126.542 63.7477C126.625 63.7819 126.7 63.8319 126.763 63.8949C126.827 63.958 126.877 64.0328 126.911 64.1152C126.945 64.1975 126.963 64.2858 126.963 64.3749V65.6943C126.963 65.7834 126.945 65.8716 126.911 65.954C126.877 66.0363 126.827 66.1112 126.763 66.1742C126.7 66.2372 126.625 66.2873 126.542 66.3214C126.459 66.3555 126.371 66.3731 126.281 66.3731H122.936C122.846 66.373 122.757 66.3904 122.675 66.4244C122.592 66.4584 122.517 66.5084 122.453 66.5713C122.39 66.6343 122.34 66.7091 122.306 66.7914C122.271 66.8737 122.254 66.9619 122.254 67.051V77.3544C122.254 77.5344 122.182 77.7071 122.054 77.8344C121.926 77.9617 121.752 78.0332 121.571 78.0332H119.86C119.679 78.0332 119.505 77.9617 119.377 77.8344C119.249 77.7071 119.178 77.5344 119.178 77.3544V67.051C119.178 66.9619 119.16 66.8737 119.126 66.7914C119.092 66.7091 119.041 66.6343 118.978 66.5713C118.915 66.5084 118.84 66.4584 118.757 66.4244C118.674 66.3904 118.585 66.373 118.496 66.3731Z" fill="white"></path>
    <path d="M129.27 64.3749C129.27 64.1948 129.341 64.0222 129.469 63.8949C129.597 63.7676 129.771 63.696 129.952 63.696H136.843C140.245 63.696 142.802 64.9959 142.802 68.8002C142.802 71.0614 141.756 72.5384 140.259 73.3692C140.172 73.4173 140.097 73.4838 140.039 73.5639C139.98 73.644 139.941 73.7358 139.922 73.8329C139.903 73.9299 139.906 74.0298 139.931 74.1256C139.955 74.2214 140 74.3108 140.063 74.3874L142.133 76.9292C142.214 77.0287 142.264 77.1488 142.279 77.2757C142.294 77.4026 142.273 77.5312 142.218 77.6466C142.163 77.7621 142.076 77.8597 141.968 77.9282C141.859 77.9968 141.733 78.0335 141.605 78.0341H139.589C139.483 78.0343 139.379 78.0099 139.285 77.963C139.19 77.916 139.108 77.8478 139.044 77.7637L136.7 74.6727C136.637 74.5887 136.554 74.5205 136.459 74.4735C136.365 74.4266 136.26 74.4022 136.155 74.4023H133.026C132.845 74.4023 132.671 74.4738 132.543 74.6011C132.415 74.7284 132.343 74.9011 132.343 75.0811V77.3553C132.343 77.5344 132.272 77.7062 132.145 77.8334C132.018 77.9605 131.846 78.0327 131.666 78.0341H129.956C129.775 78.0341 129.601 77.9626 129.473 77.8353C129.345 77.708 129.273 77.5354 129.273 77.3553L129.27 64.3749ZM132.345 67.051V71.0465C132.345 71.2265 132.417 71.3991 132.545 71.5264C132.673 71.6538 132.847 71.7253 133.028 71.7253H137.112C138.785 71.7253 139.707 70.8861 139.707 69.1639C139.707 67.0612 138.342 66.3731 137.112 66.3731H133.028C132.938 66.373 132.849 66.3904 132.766 66.4244C132.684 66.4584 132.608 66.5083 132.545 66.5713C132.482 66.6343 132.431 66.709 132.397 66.7913C132.363 66.8736 132.345 66.9619 132.345 67.051Z" fill="white"></path>
    <path d="M146.155 63.696H147.866C147.956 63.696 148.045 63.7136 148.127 63.7477C148.21 63.7819 148.285 63.8319 148.349 63.8949C148.412 63.958 148.462 64.0328 148.496 64.1152C148.531 64.1975 148.548 64.2858 148.548 64.3749V77.3544C148.548 77.4435 148.531 77.5317 148.496 77.6141C148.462 77.6965 148.412 77.7713 148.349 77.8343C148.285 77.8974 148.21 77.9474 148.127 77.9815C148.045 78.0157 147.956 78.0332 147.866 78.0332H146.155C145.974 78.0332 145.801 77.9617 145.673 77.8344C145.545 77.7071 145.473 77.5344 145.473 77.3544V64.3749C145.473 64.1948 145.545 64.0222 145.673 63.8949C145.801 63.7676 145.974 63.696 146.155 63.696Z" fill="white"></path>
    <path d="M152.922 63.696H163.533C163.623 63.696 163.711 63.7136 163.794 63.7477C163.877 63.7819 163.952 63.8319 164.015 63.8949C164.079 63.958 164.129 64.0328 164.163 64.1152C164.197 64.1975 164.215 64.2858 164.215 64.3749V65.2141C164.215 65.3682 164.162 65.5178 164.066 65.6383L157.127 74.2512C157.047 74.3511 156.996 74.4714 156.982 74.5985C156.967 74.7255 156.989 74.854 157.045 74.9693C157.1 75.0846 157.188 75.1819 157.296 75.25C157.405 75.3181 157.531 75.3543 157.66 75.3543H163.534C163.624 75.3543 163.712 75.3719 163.795 75.406C163.878 75.4401 163.953 75.4902 164.016 75.5532C164.08 75.6162 164.13 75.6911 164.164 75.7734C164.198 75.8558 164.216 75.944 164.216 76.0331V77.3516C164.216 77.4407 164.198 77.529 164.164 77.6113C164.13 77.6937 164.08 77.7685 164.016 77.8315C163.953 77.8946 163.878 77.9446 163.795 77.9787C163.712 78.0129 163.624 78.0304 163.534 78.0304H152.499C152.318 78.0304 152.144 77.9589 152.016 77.8316C151.888 77.7043 151.816 77.5316 151.816 77.3516V76.4546C151.816 76.2991 151.87 76.1484 151.968 76.0275L158.932 67.4752C159.013 67.3757 159.064 67.2552 159.08 67.1279C159.095 67.0006 159.073 66.8717 159.018 66.756C158.962 66.6403 158.875 66.5427 158.766 66.4744C158.657 66.4061 158.53 66.37 158.401 66.3703H152.922C152.741 66.3703 152.567 66.2988 152.439 66.1715C152.311 66.0442 152.239 65.8715 152.239 65.6915V64.3749C152.239 64.1948 152.311 64.0222 152.439 63.8949C152.567 63.7676 152.741 63.696 152.922 63.696Z" fill="white"></path>
  </g>
  <defs>
    <clipPath id="clip0_9608_5151">
      <rect width="140" height="23.3333" fill="white" transform="translate(24.2148 59.199)"></rect>
    </clipPath>
  </defs>
</svg>
