<?xml version="1.0" encoding="UTF-8"?>
<svg xmlns="http://www.w3.org/2000/svg" width="150" height="40" viewBox="0 0 150 40" fill="none">
  <path d="M44.0143 18.4159C44.0143 19.5545 44.1381 20.6931 44.3608 21.6089C44.5836 22.6485 44.9301 23.4406 45.4994 24.2327C46.0687 24.9258 46.638 25.5941 47.5538 25.9406C48.4696 26.2872 49.3855 26.6337 50.524 26.6337C51.6626 26.6337 52.5784 26.4109 53.618 26.0644C54.5338 25.7178 55.2269 25.2723 55.7962 24.9258V10.6436C55.2269 10.4208 54.6576 10.4208 53.9645 10.297C53.2715 10.1733 52.3557 10.1733 51.2171 10.1733C49.0389 10.1733 47.3311 10.8663 45.9697 12.3515C44.7074 13.7376 44.0143 15.7921 44.0143 18.4159ZM40.5986 13.3911C41.1679 11.906 41.8609 10.6436 42.8757 9.62872C43.8906 8.61387 45.0539 7.79703 46.4152 7.22773C47.7766 6.88119 49.3855 6.53466 51.0933 6.53466C52.925 6.53466 54.6328 6.65842 56.1179 6.9802C57.603 7.32674 58.7416 7.54951 59.6574 7.77228V39.307L55.6476 40V28.5644C55.2021 28.9109 54.3853 29.2575 53.3705 29.604C52.3557 29.9505 51.1923 30.1733 49.9547 30.1733C48.3459 30.1733 46.8608 29.8268 45.6232 29.2575C44.3608 28.6881 43.346 27.8961 42.4302 26.8565C41.5144 25.8169 40.9451 24.5792 40.4996 23.0941C40.054 21.6089 39.8065 20.1238 39.8065 18.4159C39.7818 16.6089 40.0045 14.8763 40.5986 13.3911ZM85.2507 18.3169C85.2507 20.1485 85.028 21.7327 84.4587 23.2178C83.8894 24.703 83.1963 25.9654 82.2805 26.9802C81.3647 27.9951 80.2261 28.8119 78.9638 29.3812C77.7014 29.9505 76.2163 30.1733 74.7312 30.1733C73.2461 30.1733 71.761 29.9505 70.4987 29.3812C69.2363 28.8119 68.0978 28.0198 67.182 26.9802C66.2661 25.9406 65.4741 24.703 65.0038 23.2178C64.4345 21.7327 64.2117 20.1238 64.2117 18.3169C64.2117 16.6089 64.4345 14.901 65.0038 13.5149C65.5731 12.0297 66.2661 10.7673 67.182 9.75248C68.0978 8.71288 69.2363 7.9208 70.4987 7.35149C71.761 6.78218 73.2461 6.55941 74.7312 6.55941C76.2163 6.55941 77.7014 6.78218 78.9638 7.35149C80.2261 7.9208 81.3647 8.71288 82.2805 9.75248C83.1963 10.7921 83.9884 12.0297 84.4587 13.5149C85.028 15 85.2507 16.6089 85.2507 18.3169ZM81.0182 18.3169C81.0182 15.7921 80.4489 13.7376 79.3103 12.2525C78.1717 10.7673 76.5629 9.97526 74.6322 9.97526C72.7016 9.97526 71.0927 10.7673 69.9541 12.2525C68.8156 13.7376 68.3453 15.7921 68.3453 18.3169C68.3453 20.8416 68.9146 22.8961 70.0532 24.3812C71.1917 25.8664 72.8006 26.6584 74.7312 26.6584C76.6619 26.6584 78.2707 25.8664 79.4093 24.3812C80.4489 22.8713 81.0182 20.9406 81.0182 18.3169ZM89.706 7.69803C90.6219 7.47526 91.8842 7.25248 93.3693 7.00496C94.8544 6.78218 96.686 6.65842 98.6167 6.65842C100.448 6.65842 101.933 6.8812 103.072 7.4505C104.211 7.89605 105.25 8.71288 105.918 9.62872C106.71 10.3218 107.181 11.4604 107.527 12.7228C107.874 13.9852 107.973 15.3466 107.973 16.9555V29.6287H103.963V17.8713C103.963 16.5099 103.839 15.2475 103.74 14.3317C103.617 13.4159 103.295 12.5 102.824 11.9307C102.379 11.3614 101.785 10.8911 101.117 10.5693C100.424 10.2228 99.5077 10.1238 98.3691 10.1238H97.0078C97.0078 10.1238 95.9682 10.2475 95.5227 10.3465C95.0772 10.4703 94.7306 10.4703 94.3841 10.4703C94.0376 10.5941 93.8148 10.5941 93.6911 10.5941V29.6782H89.6813V7.69803H89.706ZM117.131 7.00496H125.695V10.4208H117.131V20.8169C117.131 21.9555 117.255 22.8713 117.354 23.6634C117.576 24.3565 117.799 25.0248 118.146 25.3713C118.492 25.8169 118.938 26.0644 119.408 26.2872C119.977 26.5099 120.547 26.5099 121.24 26.5099C122.502 26.5099 123.418 26.3862 124.21 26.0644C124.903 25.8416 125.472 25.6188 125.695 25.4951L126.487 28.8119C126.042 29.0347 125.349 29.2575 124.309 29.604C123.269 29.9505 122.131 30.0495 120.893 30.0495C119.408 30.0495 118.047 29.8268 117.131 29.4802C116.091 29.1337 115.299 28.4406 114.73 27.7723C114.161 26.9802 113.69 26.0644 113.468 24.9258C113.245 23.7871 113.121 22.401 113.121 20.9159V0.693067L117.131 0V7.00496ZM149.457 18.3169C149.457 20.1485 149.234 21.7327 148.665 23.2178C148.095 24.703 147.402 25.9654 146.487 26.9802C145.571 28.0198 144.432 28.8119 143.17 29.3812C141.907 29.9505 140.422 30.1733 138.937 30.1733C137.452 30.1733 135.967 29.9505 134.705 29.3812C133.442 28.8119 132.304 28.0198 131.388 26.9802C130.472 25.9406 129.68 24.703 129.21 23.2178C128.641 21.7327 128.418 20.1238 128.418 18.3169C128.418 16.6089 128.641 14.901 129.21 13.5149C129.779 12.0297 130.472 10.7673 131.388 9.75248C132.304 8.71288 133.442 7.9208 134.705 7.35149C135.967 6.78218 137.452 6.55941 138.937 6.55941C140.422 6.55941 141.907 6.78218 143.17 7.35149C144.432 7.9208 145.571 8.71288 146.487 9.75248C147.402 10.7921 148.194 12.0297 148.665 13.5149C149.234 15 149.457 16.6089 149.457 18.3169ZM145.224 18.3169C145.224 15.7921 144.655 13.7376 143.516 12.2525C142.378 10.7673 140.769 9.97526 138.838 9.97526C136.908 9.97526 135.299 10.7673 134.16 12.2525C133.022 13.7376 132.452 15.7921 132.452 18.3169C132.452 20.8416 133.022 22.8961 134.16 24.3812C135.299 25.8664 136.908 26.6584 138.838 26.6584C140.769 26.6584 142.378 25.8664 143.516 24.3812C144.655 22.8713 145.224 20.9406 145.224 18.3169Z" fill="white"></path>
  <path d="M4.95119 13.5154C7.35211 15.9164 10.5451 17.2778 13.8618 17.5253C13.639 14.2085 12.253 11.0154 9.85203 8.61439C7.45111 6.2134 4.35715 4.85202 0.941406 4.60449C1.16417 7.92133 2.55027 11.1144 4.95119 13.5154ZM24.3566 13.5154C21.9556 15.9164 18.7627 17.2778 15.4459 17.5253C15.6687 14.2085 17.0548 11.0154 19.4557 8.61439C21.7329 6.2134 24.9506 4.85202 28.3663 4.60449C28.1188 7.92133 26.7575 11.1144 24.3566 13.5154ZM24.3566 22.9956C21.9556 20.5946 18.7627 19.2332 15.4459 18.9857C15.6687 22.3025 17.0548 25.4956 19.4557 27.8966C21.8566 30.2976 25.0496 31.659 28.3663 31.9065C28.1188 28.4907 26.7575 25.2728 24.3566 22.9956ZM4.95119 22.9956C7.35211 20.5946 10.5451 19.2332 13.9856 18.9857C13.7628 22.3025 12.3767 25.4956 9.97579 27.8966C7.45111 30.2976 4.35715 31.6837 0.941406 31.9065C1.16417 28.4907 2.55027 25.2728 4.95119 22.9956Z" fill="white"></path>
</svg>
