<svg width="70" height="28" viewBox="0 0 70 28" fill="none" xmlns="http://www.w3.org/2000/svg">
<g id="quilk" clip-path="url(#clip0_596_297)">
<g id="Group 8481">
<path id="Vector" d="M34.4876 19.3369C33.4829 19.9327 32.3382 20.2487 31.1714 20.2524C30.1176 20.2524 29.3938 19.935 29 19.3003C28.5993 18.6451 28.3937 17.8884 28.4075 17.1196V7.91895H24.6573V16.6014C24.6573 18.5313 25.0062 20.1633 25.7038 21.4975C26.4015 22.8317 27.8952 23.4987 30.1851 23.4987C30.9952 23.5087 31.8014 23.385 32.5715 23.1325C33.4416 22.8243 34.2937 22.4673 35.1239 22.0633L35.5979 23.1728H38.2032V7.91895H34.4876V19.3369Z" fill="#071E7B"/>
<path id="Vector_2" d="M44.9761 7.91895H41.1832V23.226H44.9761V7.91895Z" fill="#071E7B"/>
<path id="Vector_3" d="M43.216 0.539008C42.915 0.534977 42.6163 0.591887 42.3375 0.706369C42.0587 0.820852 41.8055 0.990581 41.5929 1.20551C41.3714 1.41868 41.1966 1.67614 41.0795 1.9614C40.9624 2.24667 40.9057 2.55345 40.9129 2.8621C40.9093 3.16739 40.9677 3.47019 41.0847 3.75179C41.2016 4.03339 41.3746 4.28782 41.5929 4.49935C41.8065 4.71671 42.0607 4.88924 42.3408 5.00698C42.6209 5.12473 42.9213 5.18535 43.2247 5.18535C43.5282 5.18535 43.8286 5.12473 44.1087 5.00698C44.3888 4.88924 44.643 4.71671 44.8566 4.49935C45.07 4.28512 45.2385 4.02976 45.352 3.74849C45.4656 3.46721 45.5218 3.16576 45.5174 2.8621C45.5236 2.55547 45.4683 2.25075 45.3548 1.9662C45.2414 1.68166 45.0721 1.42316 44.8572 1.20621C44.6423 0.989264 44.3861 0.818339 44.1041 0.703688C43.8221 0.589037 43.52 0.533024 43.216 0.539008Z" fill="#071E7B"/>
<path id="Vector_4" d="M62.8507 7.64526H58.2788L52.5617 14.775L58.5538 23.2256H63.1274L57.017 14.775L62.8507 7.64526Z" fill="#071E7B"/>
<path id="Vector_5" d="M52.0199 1.3584H48.2271V23.2256H52.0199V1.3584Z" fill="#071E7B"/>
<path id="Vector_6" d="M67.8811 19.7369C67.5211 19.3875 67.0526 19.1742 66.5547 19.1332C66.0568 19.0922 65.5602 19.226 65.1489 19.512C64.7375 19.7979 64.4367 20.2184 64.2972 20.7024C64.1578 21.1863 64.1884 21.7041 64.3837 22.1679C64.5791 22.6318 64.9273 23.0133 65.3694 23.2479C65.8115 23.4826 66.3203 23.556 66.8098 23.4557C67.2994 23.3553 67.7395 23.0875 68.0558 22.6974C68.3722 22.3073 68.5452 21.819 68.5457 21.315C68.5474 21.0201 68.4893 20.728 68.375 20.4567C68.2607 20.1853 68.0926 19.9404 67.8811 19.7369Z" fill="#071E7B"/>
<path id="Vector_7" d="M16.6854 2.43637C15.0239 1.52518 13.1576 1.06022 11.2661 1.08624C9.36101 1.06292 7.48395 1.54973 5.82674 2.49691C4.20272 3.43468 2.86626 4.80492 1.96386 6.45742C1.01969 8.14631 0.54699 10.0896 0.545776 12.2872C0.545776 14.6451 1.04335 16.6709 2.0385 18.3647C2.96404 19.9884 4.32491 21.3166 5.96509 22.1968C7.56089 23.0496 9.34147 23.4907 11.1478 23.4808C11.4226 23.4808 11.6939 23.468 11.9597 23.4497V27.0525L17.2188 21.751L11.9597 16.4587V19.8047C11.7776 19.823 11.5792 19.834 11.3844 19.834C10.1501 19.8489 8.93583 19.5187 7.87651 18.8801C6.80997 18.2285 5.94892 17.2851 5.39349 16.1597C4.78669 14.982 4.48329 13.6117 4.48329 12.0487C4.48329 10.3806 4.79883 8.99749 5.4299 7.89928C5.9917 6.86702 6.8426 6.02424 7.87651 5.47601C8.87644 4.95895 9.98567 4.69335 11.1095 4.70188C12.2486 4.7028 13.3714 4.97496 14.3862 5.49619C15.4718 6.06208 16.3729 6.93066 16.9821 7.99834C17.6654 9.13812 18.007 10.5677 18.007 12.2872C18.007 13.9822 17.6915 15.399 17.0604 16.5376C16.9073 16.81 16.737 17.0722 16.5507 17.3227L19.1721 19.9661C19.7031 19.3605 20.1648 18.6965 20.5483 17.9868C21.4803 16.2538 21.9469 14.288 21.9482 12.0891C21.9494 9.89024 21.4761 7.95737 20.5283 6.29049C19.6298 4.6692 18.2985 3.33402 16.6854 2.43637Z" fill="#071E7B"/>
</g>
</g>
<defs>
<clipPath id="clip0_596_297">
<rect width="69" height="28" fill="white" transform="translate(0.509155)"/>
</clipPath>
</defs>
</svg>
