<?xml version="1.0" encoding="UTF-8"?>
<svg xmlns="http://www.w3.org/2000/svg" width="64" height="64" viewBox="0 0 64 64" fill="none">
  <path fill-rule="evenodd" clip-rule="evenodd" d="M19.7496 39.8372C20.1017 40.8841 19.5383 42.0183 18.4914 42.3703C15.1013 43.5104 13.2996 46.3563 12.3358 49.2503C11.9532 50.3995 11.722 51.5058 11.583 52.4205C12.4978 52.2816 13.6041 52.0504 14.7533 51.6677C17.6473 50.704 20.4932 48.9023 21.6332 45.5122C21.9853 44.4652 23.1194 43.9019 24.1664 44.254C25.2133 44.6061 25.7767 45.7402 25.4246 46.7872C23.7146 51.872 19.4855 54.3078 16.0171 55.4629C14.2649 56.0463 12.6245 56.3344 11.4273 56.478C10.8257 56.5502 10.3284 56.5868 9.97512 56.6054C9.79828 56.6147 9.65696 56.6195 9.55607 56.622C9.50562 56.6232 9.46522 56.6239 9.4355 56.6243L9.39899 56.6246L9.38687 56.6247L9.38236 56.6247C9.38154 56.6247 9.37891 56.6247 9.37891 54.6247C7.37891 54.6247 7.37891 54.6239 7.37891 54.6231L7.37892 54.6167L7.37897 54.6046L7.37931 54.5681C7.37967 54.5384 7.38034 54.498 7.38159 54.4475C7.38409 54.3466 7.38892 54.2053 7.39822 54.0285C7.41681 53.6752 7.45341 53.1778 7.52556 52.5763C7.66919 51.379 7.95724 49.7387 8.54073 47.9865C9.69576 44.518 12.1316 40.2889 17.2164 38.579C18.2634 38.2269 19.3975 38.7902 19.7496 39.8372ZM9.37891 54.6247L7.37891 54.6231C7.37891 55.7276 8.27434 56.6247 9.37891 56.6247V54.6247Z" fill="white"></path>
  <path fill-rule="evenodd" clip-rule="evenodd" d="M19.7496 39.8372C20.1017 40.8841 19.5383 42.0183 18.4914 42.3703C15.1013 43.5104 13.2996 46.3563 12.3358 49.2503C11.9532 50.3995 11.722 51.5058 11.583 52.4205C12.4978 52.2816 13.6041 52.0504 14.7533 51.6677C17.6473 50.704 20.4932 48.9023 21.6332 45.5122C21.9853 44.4652 23.1194 43.9019 24.1664 44.254C25.2133 44.6061 25.7767 45.7402 25.4246 46.7872C23.7146 51.872 19.4855 54.3078 16.0171 55.4629C14.2649 56.0463 12.6245 56.3344 11.4273 56.478C10.8257 56.5502 10.3284 56.5868 9.97512 56.6054C9.79828 56.6147 9.65696 56.6195 9.55607 56.622C9.50562 56.6232 9.46522 56.6239 9.4355 56.6243L9.39899 56.6246L9.38687 56.6247L9.38236 56.6247C9.38154 56.6247 9.37891 56.6247 9.37891 54.6247C7.37891 54.6247 7.37891 54.6239 7.37891 54.6231L7.37892 54.6167L7.37897 54.6046L7.37931 54.5681C7.37967 54.5384 7.38034 54.498 7.38159 54.4475C7.38409 54.3466 7.38892 54.2053 7.39822 54.0285C7.41681 53.6752 7.45341 53.1778 7.52556 52.5763C7.66919 51.379 7.95724 49.7387 8.54073 47.9865C9.69576 44.518 12.1316 40.2889 17.2164 38.579C18.2634 38.2269 19.3975 38.7902 19.7496 39.8372ZM9.37891 54.6247L7.37891 54.6231C7.37891 55.7276 8.27434 56.6247 9.37891 56.6247V54.6247Z" fill="url(#paint0_linear_9520_28926)"></path>
  <path fill-rule="evenodd" clip-rule="evenodd" d="M52.9516 11.0518C50.6301 10.717 44.916 10.5909 39.0679 16.4389L23.5071 31.9997L32.0037 40.4963L47.5645 24.9355C53.4125 19.0875 53.2864 13.3733 52.9516 11.0518ZM53.5316 7.09409C50.3389 6.63185 43.2222 6.62785 36.2395 13.6105L19.2645 30.5855C18.8894 30.9606 18.6787 31.4693 18.6787 31.9997C18.6787 32.5302 18.8894 33.0389 19.2645 33.4139L30.5895 44.7389C31.3705 45.52 32.6369 45.52 33.4179 44.7389L50.3929 27.7639C57.3756 20.7813 57.3716 13.6645 56.9093 10.4719C56.7924 9.61738 56.3989 8.82453 55.7889 8.21452C55.1789 7.60451 54.386 7.21106 53.5316 7.09409Z" fill="white"></path>
  <path fill-rule="evenodd" clip-rule="evenodd" d="M52.9516 11.0518C50.6301 10.717 44.916 10.5909 39.0679 16.4389L23.5071 31.9997L32.0037 40.4963L47.5645 24.9355C53.4125 19.0875 53.2864 13.3733 52.9516 11.0518ZM53.5316 7.09409C50.3389 6.63185 43.2222 6.62785 36.2395 13.6105L19.2645 30.5855C18.8894 30.9606 18.6787 31.4693 18.6787 31.9997C18.6787 32.5302 18.8894 33.0389 19.2645 33.4139L30.5895 44.7389C31.3705 45.52 32.6369 45.52 33.4179 44.7389L50.3929 27.7639C57.3756 20.7813 57.3716 13.6645 56.9093 10.4719C56.7924 9.61738 56.3989 8.82453 55.7889 8.21452C55.1789 7.60451 54.386 7.21106 53.5316 7.09409Z" fill="url(#paint1_linear_9520_28926)"></path>
  <path fill-rule="evenodd" clip-rule="evenodd" d="M46.1543 27.1748C47.2589 27.1748 48.1543 28.0702 48.1543 29.1748V45.3248L48.1541 45.3533C48.1391 46.4038 47.7115 47.4061 46.9639 48.1437L38.8927 56.2398C38.3803 56.7516 37.7386 57.1147 37.0361 57.2903C36.3335 57.466 35.5964 57.4476 34.9035 57.2372C34.2106 57.0267 33.5878 56.6321 33.1015 56.0954C32.6157 55.5592 32.2844 54.9011 32.143 54.1915C32.1429 54.1909 32.1431 54.192 32.143 54.1915L30.0433 43.7179C29.8262 42.6349 30.5281 41.581 31.6112 41.3638C32.6942 41.1467 33.7482 41.8487 33.9653 42.9317L36.0659 53.4098L44.1543 45.2963V29.1748C44.1543 28.0702 45.0497 27.1748 46.1543 27.1748Z" fill="white"></path>
  <path fill-rule="evenodd" clip-rule="evenodd" d="M46.1543 27.1748C47.2589 27.1748 48.1543 28.0702 48.1543 29.1748V45.3248L48.1541 45.3533C48.1391 46.4038 47.7115 47.4061 46.9639 48.1437L38.8927 56.2398C38.3803 56.7516 37.7386 57.1147 37.0361 57.2903C36.3335 57.466 35.5964 57.4476 34.9035 57.2372C34.2106 57.0267 33.5878 56.6321 33.1015 56.0954C32.6157 55.5592 32.2844 54.9011 32.143 54.1915C32.1429 54.1909 32.1431 54.192 32.143 54.1915L30.0433 43.7179C29.8262 42.6349 30.5281 41.581 31.6112 41.3638C32.6942 41.1467 33.7482 41.8487 33.9653 42.9317L36.0659 53.4098L44.1543 45.2963V29.1748C44.1543 28.0702 45.0497 27.1748 46.1543 27.1748Z" fill="url(#paint2_linear_9520_28926)"></path>
  <path fill-rule="evenodd" clip-rule="evenodd" d="M18.6502 15.8501L18.6787 15.8499H34.8287C35.9333 15.8499 36.8287 16.7453 36.8287 17.8499C36.8287 18.9544 35.9333 19.8499 34.8287 19.8499H18.707L18.6908 19.8664L10.5937 27.9383L10.5969 27.9389L21.0719 30.0389C22.1549 30.256 22.8568 31.31 22.6397 32.393C22.4226 33.476 21.3686 34.178 20.2856 33.9608L9.81369 31.8615C9.81309 31.8613 9.81429 31.8616 9.81369 31.8615C9.1041 31.72 8.44434 31.3884 7.90811 30.9026C7.37143 30.4164 6.97682 29.7936 6.76637 29.1006C6.55592 28.4077 6.53754 27.6706 6.71319 26.9681C6.88883 26.2655 7.25191 25.6238 7.76369 25.1115L7.76669 25.1085L15.8598 17.0403C16.5975 16.2927 17.5997 15.865 18.6502 15.8501Z" fill="white"></path>
  <path fill-rule="evenodd" clip-rule="evenodd" d="M18.6502 15.8501L18.6787 15.8499H34.8287C35.9333 15.8499 36.8287 16.7453 36.8287 17.8499C36.8287 18.9544 35.9333 19.8499 34.8287 19.8499H18.707L18.6908 19.8664L10.5937 27.9383L10.5969 27.9389L21.0719 30.0389C22.1549 30.256 22.8568 31.31 22.6397 32.393C22.4226 33.476 21.3686 34.178 20.2856 33.9608L9.81369 31.8615C9.81309 31.8613 9.81429 31.8616 9.81369 31.8615C9.1041 31.72 8.44434 31.3884 7.90811 30.9026C7.37143 30.4164 6.97682 29.7936 6.76637 29.1006C6.55592 28.4077 6.53754 27.6706 6.71319 26.9681C6.88883 26.2655 7.25191 25.6238 7.76369 25.1115L7.76669 25.1085L15.8598 17.0403C16.5975 16.2927 17.5997 15.865 18.6502 15.8501Z" fill="url(#paint3_linear_9520_28926)"></path>
  <defs>
    <linearGradient id="paint0_linear_9520_28926" x1="10.3007" y1="24.612" x2="53.9432" y2="24.7404" gradientUnits="userSpaceOnUse">
      <stop stop-color="#7FE786"></stop>
      <stop offset="1" stop-color="#58A7FE"></stop>
    </linearGradient>
    <linearGradient id="paint1_linear_9520_28926" x1="10.3007" y1="24.612" x2="53.9432" y2="24.7404" gradientUnits="userSpaceOnUse">
      <stop stop-color="#7FE786"></stop>
      <stop offset="1" stop-color="#58A7FE"></stop>
    </linearGradient>
    <linearGradient id="paint2_linear_9520_28926" x1="10.3007" y1="24.612" x2="53.9432" y2="24.7404" gradientUnits="userSpaceOnUse">
      <stop stop-color="#7FE786"></stop>
      <stop offset="1" stop-color="#58A7FE"></stop>
    </linearGradient>
    <linearGradient id="paint3_linear_9520_28926" x1="10.3007" y1="24.612" x2="53.9432" y2="24.7404" gradientUnits="userSpaceOnUse">
      <stop stop-color="#7FE786"></stop>
      <stop offset="1" stop-color="#58A7FE"></stop>
    </linearGradient>
  </defs>
</svg>
