<svg width="860" height="250" viewBox="0 0 860 250" fill="none" xmlns="http://www.w3.org/2000/svg">
<path d="M97.293 8.74126C99.015 8.74126 99.876 9.61539 101.598 10.4895C91.266 14.8601 80.934 26.2238 75.768 50.6993L56.826 55.9441C62.853 38.4615 74.907 8.74126 97.293 8.74126ZM106.764 17.4825C108.486 22.7273 110.208 28.8462 110.208 38.4615C110.208 39.3357 110.208 39.3357 110.208 40.2098L85.239 47.2028C90.405 28.8462 99.015 20.979 106.764 17.4825ZM129.15 33.2168L117.957 36.7133C117.957 35.8392 117.957 34.965 117.957 34.0909C117.957 26.2238 117.096 20.1049 115.374 14.8601C121.401 16.6084 126.567 24.4755 129.15 33.2168ZM185.115 47.2028C185.115 46.3287 184.254 45.4545 183.393 45.4545C181.671 45.4545 163.59 43.7063 163.59 43.7063C163.59 43.7063 150.675 30.5944 148.953 29.7203C147.231 27.972 144.648 28.8462 143.787 28.8462C143.787 28.8462 141.204 29.7203 136.899 31.4685C132.594 19.2308 124.845 7.86714 111.93 7.86714H111.069C107.625 2.62238 102.459 0.874132 98.154 0.874132C67.158 5.78534e-06 52.521 39.3357 47.355 59.4406C40.467 61.1888 33.579 63.8112 25.83 66.4336C18.942 68.1818 18.942 69.0559 18.081 75.1748C17.22 79.5455 0 217.657 0 217.657L136.899 243.881L210.945 227.273C210.945 227.273 185.115 48.9511 185.115 47.2028Z" fill="#8DB849"/>
<path d="M182.532 45.4546C181.671 45.4546 163.59 43.7063 163.59 43.7063C163.59 43.7063 150.675 30.5944 148.953 29.7203C148.092 28.8462 148.092 28.8462 147.231 28.8462L136.899 243.881L210.945 227.273C210.945 227.273 185.115 48.9511 185.115 47.2028C185.115 46.3287 183.393 45.4546 182.532 45.4546Z" fill="#5A863E"/>
<path d="M111.93 87.4126L102.459 115.385C102.459 115.385 94.71 111.014 84.378 111.014C69.741 111.014 68.88 119.755 68.88 122.378C68.88 134.615 101.598 139.86 101.598 169.58C101.598 193.182 86.961 208.042 67.158 208.042C43.911 208.042 31.857 193.182 31.857 193.182L37.884 172.203C37.884 172.203 49.938 182.692 60.27 182.692C67.158 182.692 69.741 177.448 69.741 173.077C69.741 156.469 43.05 155.594 43.05 128.497C43.05 105.769 59.409 83.9161 91.266 83.9161C105.903 83.042 111.93 87.4126 111.93 87.4126Z" fill="#FFFFFE"/>
<path d="M297.906 138.986C290.157 134.615 286.713 131.119 286.713 126.748C286.713 120.629 291.879 117.133 300.489 117.133C309.96 117.133 318.57 121.504 318.57 121.504L325.458 100.524C325.458 100.524 319.431 95.2797 301.35 95.2797C275.52 95.2797 258.3 110.14 258.3 131.119C258.3 143.357 266.91 152.098 277.242 158.217C285.852 163.462 289.296 166.958 289.296 172.203C289.296 177.448 284.991 182.692 276.381 182.692C264.327 182.692 252.273 176.573 252.273 176.573L245.385 197.552C245.385 197.552 255.717 204.545 273.798 204.545C299.628 204.545 318.57 191.434 318.57 167.832C318.57 154.72 309.099 145.105 297.906 138.986ZM402.087 94.4056C389.172 94.4056 378.84 100.524 371.091 110.14L382.284 50.6993H353.01L324.597 201.923H353.871L363.342 150.35C366.786 131.119 377.118 118.881 386.589 118.881C393.477 118.881 396.06 123.252 396.06 130.245C396.06 134.615 396.06 138.986 395.199 143.357L384.006 202.797H413.28L424.473 141.608C425.334 135.49 426.195 127.622 426.195 122.378C426.195 104.895 417.585 94.4056 402.087 94.4056ZM476.994 180.944C466.662 180.944 463.218 172.203 463.218 161.713C463.218 145.105 471.828 117.133 487.326 117.133C497.658 117.133 501.102 125.874 501.102 134.615C501.102 153.846 492.492 180.944 476.994 180.944ZM491.631 94.4056C456.33 94.4056 433.083 126.748 433.083 162.587C433.083 185.315 446.859 203.671 473.55 203.671C507.99 203.671 531.237 172.203 531.237 135.49C531.237 114.51 519.183 94.4056 491.631 94.4056ZM577.731 181.818C569.982 181.818 565.677 177.448 565.677 177.448L570.843 149.476C574.287 131.119 583.758 118.881 594.09 118.881C602.7 118.881 606.144 127.622 606.144 135.49C605.283 154.72 594.09 181.818 577.731 181.818ZM606.144 94.4056C586.341 94.4056 575.148 111.888 575.148 111.888L576.87 96.1539H551.04C550.179 106.643 547.596 123.252 545.013 135.49L524.349 243.881H553.623L561.372 200.175H562.233C562.233 200.175 568.26 203.671 579.453 203.671C613.893 203.671 636.279 167.832 636.279 131.993C636.279 112.762 627.669 94.4056 606.144 94.4056ZM677.607 52.4476C668.136 52.4476 661.248 60.3147 661.248 69.9301C661.248 78.6713 666.414 84.7902 675.024 84.7902C684.495 84.7902 692.244 78.6713 692.244 67.3077C692.244 58.5664 686.217 52.4476 677.607 52.4476ZM637.14 201.923H666.414L686.217 97.028H656.943L637.14 201.923ZM760.263 97.028H739.599L740.46 91.7832C742.182 81.2937 748.209 72.5525 757.68 72.5525C762.846 72.5525 767.151 74.3007 767.151 74.3007L773.178 50.6993C773.178 50.6993 768.012 48.0769 757.68 48.0769C747.348 48.0769 737.016 50.6993 729.267 57.6923C718.935 66.4336 714.63 78.6713 712.047 90.9091L711.186 96.1539H697.41L693.105 118.881H706.881L691.383 201.923H720.657L736.155 118.881H755.958L760.263 97.028ZM830.004 97.028C830.004 97.028 811.923 143.357 803.313 168.706C802.452 160.839 796.425 97.028 796.425 97.028H765.429L782.649 193.182C782.649 194.93 782.649 196.678 781.788 198.427C778.344 205.42 772.317 211.538 766.29 215.909C761.124 220.28 754.236 222.902 749.931 224.65L757.68 250C763.707 249.126 775.761 243.881 786.093 234.266C799.008 222.028 811.923 201.923 823.977 175.699L859.278 97.9021L830.004 97.028Z" fill="#1A1919"/>
</svg>
