<?xml version="1.0" encoding="UTF-8"?> <svg xmlns="http://www.w3.org/2000/svg" width="190" height="88" viewBox="0 0 190 88" fill="none"><g opacity="0.9"><path d="M66 50.3494L69.0308 48.1403C69.0308 48.1403 70.6395 50.3595 72.8714 50.3595C74.3627 50.3595 75.6729 49.5459 75.6729 48.2387C75.6729 45.0045 67.0371 45.8467 67.0371 39.555C67.0371 36.4375 69.4268 34.1261 72.981 34.1261C76.8976 34.1261 78.6979 37.02 78.6979 37.02L75.8053 39.1208C75.8053 39.1208 74.655 37.7373 73.0516 37.7373C71.6805 37.7373 70.8936 38.5077 70.8936 39.5412C70.8936 42.7375 79.5277 42.1073 79.5277 48.1679C79.5277 51.3916 77.0344 53.9962 72.8976 53.9962C68.4259 53.9962 66 50.3494 66 50.3494ZM79.9144 34.4934H84.0646L89.0882 47.9919L94.0936 34.4934H98.2672L91.1367 53.5956H86.9923L79.9144 34.4934ZM100.175 29H104.037V34.4747H109.934L108.543 38.2577H104.037V47.498C104.037 48.7993 105.03 50.3005 106.607 50.3005C107.738 50.3005 108.61 49.5313 108.61 49.5313L111.029 52.2846C111.029 52.2846 109.499 54 106.559 54C102.562 54 100.167 50.574 100.167 47.6926L100.175 29Z" fill="black"></path></g></svg> 