<?xml version="1.0" encoding="UTF-8"?> <svg xmlns="http://www.w3.org/2000/svg" width="190" height="88" viewBox="0 0 190 88" fill="none"><g opacity="0.9"><path d="M118.027 41.2293V39.6748C117.258 39.4219 116.436 39.2813 115.582 39.2813C114.717 39.2813 113.885 39.4262 113.107 39.6856V41.2488C113.868 40.9245 114.702 40.7386 115.582 40.7386C116.447 40.7386 117.273 40.9137 118.027 41.2293ZM118.027 43.439V42.5114C117.297 42.1223 116.464 41.8996 115.582 41.8996C114.685 41.8996 113.844 42.1287 113.107 42.5287V43.4562C113.814 42.9763 114.665 42.6952 115.582 42.6952C116.486 42.6974 117.327 42.9719 118.027 43.439ZM115.582 38.6154C114.722 38.6154 113.891 38.7451 113.107 38.9851V36.5399C113.107 35.7053 112.936 35.0913 112.596 34.6978C112.257 34.3043 111.68 34.1076 110.864 34.1076C109.855 34.1076 109.141 34.4275 108.724 35.0675V46.3664H103.816V24H108.724V32.3001C109.773 30.9791 111.111 30.3197 112.743 30.3197C114.479 30.3197 115.792 30.8342 116.674 31.8634C117.558 32.8925 118.008 34.4124 118.027 36.421V38.9743C117.251 38.743 116.432 38.6154 115.582 38.6154ZM96.4177 42.8747C97.1074 42.8747 97.6393 42.6887 98.0198 42.3147C98.3981 41.9407 98.5819 41.4196 98.5733 40.7494H103.174C103.174 42.4768 102.556 43.8951 101.317 44.9999C100.08 46.1069 98.4846 46.6604 96.5345 46.6604C94.2427 46.6604 92.4374 45.9426 91.1164 44.5048C89.7954 43.0671 89.1359 41.078 89.1359 38.5354V38.3322C89.1359 36.7409 89.43 35.3356 90.0181 34.1162C90.6061 32.899 91.4515 31.9607 92.5585 31.3056C93.6654 30.6505 94.9756 30.3218 96.4891 30.3218C98.5365 30.3218 100.162 30.8904 101.367 32.0255C102.571 33.1606 103.172 34.7 103.172 36.6415H98.5711C98.5711 35.8264 98.3722 35.1994 97.9744 34.7627C97.5766 34.3259 97.0425 34.1076 96.3723 34.1076C95.101 34.1076 94.3573 34.9183 94.1454 36.5399C94.0762 37.0544 94.0438 37.7636 94.0438 38.6652C94.0438 40.2478 94.2319 41.3439 94.6124 41.9558C94.9908 42.5676 95.5918 42.8747 96.4177 42.8747ZM81.3137 34.1076C79.8759 34.1076 79.0219 35.0589 78.7516 36.9615H83.7027V36.5831C83.7222 35.7961 83.5233 35.1886 83.106 34.7562C82.6866 34.3238 82.0898 34.1076 81.3137 34.1076ZM81.8671 46.6604C79.45 46.6604 77.4933 45.9404 75.9994 44.4984C74.5032 43.0563 73.7573 41.1818 73.7573 38.8705V38.4641C73.7573 36.8534 74.0557 35.4307 74.6524 34.1984C75.2491 32.966 76.1204 32.0125 77.2663 31.338C78.4122 30.6634 79.7721 30.3261 81.3439 30.3261C83.5579 30.3261 85.3048 31.0137 86.5847 32.3866C87.8668 33.7595 88.5068 35.675 88.5068 38.1311V40.0381H78.7516C78.9268 40.9223 79.3094 41.6163 79.9018 42.1201C80.4942 42.626 81.2596 42.8768 82.2023 42.8768C83.7546 42.8768 84.9697 42.3341 85.8431 41.2466L88.0852 43.8973C87.4733 44.7405 86.6063 45.4129 85.4864 45.9145C84.3643 46.4096 83.1579 46.6604 81.8671 46.6604ZM70.9164 26.6982V30.6159H73.5087V34.0211H70.9164V41.2293C70.9164 41.8217 71.0245 42.2347 71.2364 42.466C71.4504 42.6995 71.872 42.8163 72.5033 42.8163C72.9898 42.8163 73.3962 42.7882 73.727 42.7298V46.2388C72.8428 46.5199 71.9217 46.6604 70.9596 46.6604C69.2711 46.6604 68.0236 46.2626 67.2171 45.4669C66.4107 44.6713 66.0085 43.4627 66.0085 41.8412V34.0211H64V30.6137H66.0085V26.6961H70.9164V26.6982Z" fill="#001C48"></path><path d="M118.001 47.1144C118.001 45.7782 116.916 44.6929 115.58 44.6929C114.244 44.6929 113.158 45.7782 113.158 47.1144C113.158 48.4483 114.244 49.5359 115.58 49.5359C116.916 49.5337 118.001 48.4483 118.001 47.1144ZM118.051 51.7044V50.7747C117.346 51.2525 116.497 51.5314 115.582 51.5314C114.663 51.5314 113.811 51.2504 113.102 50.7682V51.6979C113.839 52.1 114.683 52.3292 115.582 52.3292C116.475 52.3271 117.316 52.1 118.051 51.7044ZM118.051 54.5453V52.9908C117.29 53.3108 116.458 53.4902 115.582 53.4902C114.702 53.4902 113.865 53.3043 113.102 52.9778V54.5432C113.883 54.8048 114.715 54.9475 115.582 54.9475C116.445 54.9453 117.273 54.8048 118.051 54.5453ZM113.102 55.2415V58.9926C112.624 59.7991 111.822 60.2034 110.694 60.2034C109.379 60.2034 108.722 59.5267 108.722 58.1754V47.9143H103.803V58.0521C103.803 59.9396 104.249 61.4833 105.139 62.4887C106.03 63.4962 107.34 63.9999 109.074 63.9999C110.845 63.9999 112.253 63.334 113.292 62L113.437 63.7081H118.051V55.2458C117.268 55.4836 116.44 55.6134 115.582 55.6134C114.719 55.6112 113.887 55.4815 113.102 55.2415ZM95.8405 51.4168C94.4005 51.4168 93.5444 52.3703 93.2719 54.2772H98.236V53.8967C98.2555 53.1076 98.0566 52.4979 97.6371 52.0654C97.2177 51.633 96.6188 51.4168 95.8405 51.4168ZM96.3961 63.9999C93.9724 63.9999 92.0115 63.2778 90.5132 61.8314C89.0149 60.3872 88.2646 58.5062 88.2646 56.1906V55.782C88.2646 54.167 88.563 52.7422 89.1619 51.5055C89.7608 50.2709 90.6342 49.3132 91.7823 48.6364C92.9303 47.9597 94.2924 47.5684 95.8707 47.5684C98.089 47.5684 99.8402 48.31 101.127 49.6872C102.411 51.0644 103.053 52.9843 103.053 55.4447V57.356H93.2719C93.4471 58.2424 93.8319 58.9386 94.4243 59.4423C95.0189 59.9483 95.7864 60.2012 96.7312 60.2012C98.2879 60.2012 99.5051 59.6564 100.381 58.5667L102.629 61.2239C102.015 62.0714 101.148 62.746 100.024 63.2454C98.8997 63.7491 97.6912 63.9999 96.3961 63.9999Z" fill="#ED1C24"></path></g></svg> 