<svg width="128" height="36" viewBox="0 0 128 36" fill="none" xmlns="http://www.w3.org/2000/svg">
<g id="tracesafe " clip-path="url(#clip0_596_264)">
<g id="Group 8596">
<path id="Vector" d="M7.08589 28.728C8.60302 28.728 9.56284 28.3245 10.1511 27.766L9.37707 25.3144C9.12937 25.5937 8.5411 25.842 7.92186 25.842C6.99301 25.842 6.49762 25.0972 6.49762 24.0731V16.222H9.53188V13.367H6.49762V9.27075H3.24663V13.367H0.769684V16.222H3.24663V24.88C3.24663 27.3625 4.57799 28.728 7.08589 28.728Z" fill="#323B4B"/>
<path id="Vector_2" d="M12.4831 28.3555H15.7341V18.1459C16.3843 17.0908 18.211 16.1599 19.5734 16.1599C19.9759 16.1599 20.3164 16.1909 20.5951 16.253V13.0256C18.6445 13.0256 16.8487 14.1428 15.7341 15.5703V13.367H12.4831V28.3555Z" fill="#323B4B"/>
<path id="Vector_3" d="M32.3509 28.3556H35.6019V18.4252C35.6019 14.3911 32.6915 12.9946 29.3785 12.9946C26.9945 12.9946 24.8272 13.7704 23.0933 15.4151L24.4246 17.6805C25.725 16.4082 27.1803 15.7875 28.8522 15.7875C30.9266 15.7875 32.3509 16.8426 32.3509 18.5804V20.8147C31.2672 19.5424 29.5334 18.8907 27.5208 18.8907C25.0748 18.8907 22.3192 20.3182 22.3192 23.7628C22.3192 27.0833 25.0748 28.728 27.5208 28.728C29.5024 28.728 31.2363 28.0142 32.3509 26.7419V28.3556ZM32.3509 24.942C31.6078 25.9661 30.2145 26.4936 28.7903 26.4936C26.9635 26.4936 25.6012 25.4385 25.6012 23.8249C25.6012 22.1802 26.9635 21.1251 28.7903 21.1251C30.2145 21.1251 31.6078 21.6526 32.3509 22.6767V24.942Z" fill="#323B4B"/>
<path id="Vector_4" d="M38.8878 20.8458C38.8878 25.4075 42.0769 28.728 46.6283 28.728C49.5387 28.728 51.3035 27.4867 52.3562 26.0592L50.2198 24.0731C49.3839 25.2213 48.2383 25.842 46.7831 25.842C44.0584 25.842 42.2627 23.7628 42.2627 20.8458C42.2627 17.9287 44.0584 15.8806 46.7831 15.8806C48.2383 15.8806 49.3839 16.4702 50.2198 17.6494L52.3562 15.6634C51.3035 14.2359 49.5387 12.9946 46.6283 12.9946C42.0769 12.9946 38.8878 16.3151 38.8878 20.8458Z" fill="#323B4B"/>
<path id="Vector_5" d="M54.2782 20.8458C54.2782 25.5937 57.622 28.728 62.1115 28.728C64.4956 28.728 66.6939 27.9832 68.18 26.5557L66.6939 24.4145C65.6412 25.4696 63.9073 26.0592 62.4521 26.0592C59.6346 26.0592 57.9317 24.1972 57.684 21.9319H69.2327V21.1561C69.2327 16.4392 66.3533 12.9946 61.8638 12.9946C57.4363 12.9946 54.2782 16.5013 54.2782 20.8458ZM61.8638 15.6634C64.8052 15.6634 66.0127 17.8667 66.0746 19.6355H57.653C57.8078 17.8046 59.0773 15.6634 61.8638 15.6634Z" fill="#323B4B"/>
<path id="Vector_6" d="M71.1414 26.4005C72.6895 27.9211 75.0116 28.728 77.5505 28.728C81.5756 28.728 83.7738 26.7109 83.7738 24.0731C83.7738 20.5354 80.5848 19.7907 77.984 19.2321C76.2192 18.8287 74.733 18.4252 74.733 17.277C74.733 16.222 75.8167 15.6013 77.5196 15.6013C79.3773 15.6013 81.0492 16.3771 81.9471 17.4012L83.3094 15.1048C81.9471 13.8946 80.0275 12.9946 77.4886 12.9946C73.7112 12.9946 71.6058 15.1048 71.6058 17.5563C71.6058 20.9078 74.6711 21.5905 77.2409 22.1491C79.0676 22.5525 80.6467 23.018 80.6467 24.3214C80.6467 25.4385 79.6559 26.1523 77.7053 26.1523C75.7547 26.1523 73.6803 25.1282 72.6276 24.0421L71.1414 26.4005Z" fill="#323B4B"/>
<path id="Vector_7" d="M96.1796 28.3556H99.4304V18.4252C99.4304 14.3911 96.5202 12.9946 93.2073 12.9946C90.8232 12.9946 88.6559 13.7704 86.922 15.4151L88.2534 17.6805C89.5538 16.4082 91.009 15.7875 92.6809 15.7875C94.7553 15.7875 96.1796 16.8426 96.1796 18.5804V20.8147C95.0959 19.5424 93.3621 18.8907 91.3495 18.8907C88.9036 18.8907 86.1479 20.3182 86.1479 23.7628C86.1479 27.0833 88.9036 28.728 91.3495 28.728C93.3311 28.728 95.065 28.0142 96.1796 26.7419V28.3556ZM96.1796 24.942C95.4365 25.9661 94.0432 26.4936 92.619 26.4936C90.7922 26.4936 89.4299 25.4385 89.4299 23.8249C89.4299 22.1802 90.7922 21.1251 92.619 21.1251C94.0432 21.1251 95.4365 21.6526 96.1796 22.6767V24.942Z" fill="#323B4B"/>
<path id="Vector_8" d="M104.419 28.3555H107.67V16.2219H110.705V13.3669H107.67V12.5291C107.67 10.8533 108.475 10.0155 109.745 10.0155C110.209 10.0155 110.674 10.1086 111.045 10.3258L111.757 7.93629C111.107 7.56391 110.178 7.34668 109.156 7.34668C106.401 7.34668 104.419 9.17759 104.419 12.5291V13.3669H101.942V16.2219H104.419V28.3555Z" fill="#323B4B"/>
<path id="Vector_9" d="M112.241 20.8458C112.241 25.5937 115.585 28.728 120.074 28.728C122.458 28.728 124.656 27.9832 126.143 26.5557L124.656 24.4145C123.604 25.4696 121.87 26.0592 120.415 26.0592C117.597 26.0592 115.894 24.1972 115.647 21.9319H127.195V21.1561C127.195 16.4392 124.316 12.9946 119.826 12.9946C115.399 12.9946 112.241 16.5013 112.241 20.8458ZM119.826 15.6634C122.768 15.6634 123.975 17.8667 124.037 19.6355H115.616C115.77 17.8046 117.04 15.6634 119.826 15.6634Z" fill="#323B4B"/>
</g>
</g>
<defs>
<clipPath id="clip0_596_264">
<rect width="126.75" height="36" fill="white" transform="translate(0.490845)"/>
</clipPath>
</defs>
</svg>
