<?xml version="1.0" encoding="UTF-8"?>
<svg xmlns="http://www.w3.org/2000/svg" width="118" height="96" viewBox="0 0 118 96" fill="none">
  <g clip-path="url(#clip0_19_23)">
    <path d="M33.0142 33.3482C33.1337 36.1317 35.6915 46.8131 35.6915 46.8131C36.6238 48.9629 37.4366 46.8131 37.4366 46.8131C40.5204 38.0553 34.2094 32.9861 34.2094 32.9861C32.6078 32.0809 33.0142 33.3482 33.0142 33.3482ZM69.6367 31.832C69.6367 31.832 72.7204 33.8687 69.6367 34.2534C69.6367 34.2534 58.0905 35.5207 49.5086 43.147C49.5086 43.147 36.6238 53.8058 31.795 65.4829C31.795 65.4829 30.1934 65.4829 30.7193 63.1973C31.2452 60.9116 34.4724 50.8865 48.8154 38.5757C48.8393 38.5531 62.6564 26.6271 69.6367 31.832Z" fill="#949494"></path>
    <path d="M10.9469 48.7221C11.4489 48.8126 11.9031 48.8805 12.5964 48.8805C15.2259 48.8805 16.9949 47.2738 16.9949 45.2371C16.9949 43.404 15.6323 42.7477 13.8633 42.7477C13.0745 42.7477 12.5008 42.793 12.1183 42.9062L10.9469 48.7221ZM9.46482 40.8016C10.5644 40.5526 12.2139 40.3942 13.8155 40.3942C15.5128 40.3942 17.2818 40.7337 18.4531 41.6162C19.5049 42.3857 20.1265 43.4945 20.1265 45.0334C20.1265 47.0701 19.0985 48.7221 17.8077 49.6952C16.3495 50.7814 14.2936 51.3245 12.1422 51.3245C11.4967 51.3245 10.923 51.2567 10.4449 51.1888L9.13015 57.6836H6.07031L9.46482 40.8016Z" fill="white"></path>
    <path d="M28.4393 47.393C28.1286 47.3251 27.7222 47.2572 27.1485 47.2572C24.2799 47.2572 22.0089 50.3349 22.0089 53.1637C22.0089 54.4536 22.5109 55.5172 23.8974 55.5172C25.3795 55.5172 27.1485 53.7973 27.77 50.6291L28.4393 47.393ZM27.1724 57.6445C27.1724 56.8977 27.268 55.9246 27.3875 54.861H27.3397C26.0488 57.124 24.3038 57.916 22.6304 57.916C20.2877 57.916 18.7578 56.1961 18.7578 53.6842C18.7578 49.4524 21.8655 44.9716 27.9612 44.9716C29.3955 44.9716 30.9255 45.2205 31.9295 45.5374L30.5669 51.9869C30.1844 53.82 29.9693 56.1509 30.041 57.6445H27.1724Z" fill="white"></path>
    <path d="M49.7194 52.7425C49.7194 54.4398 50.6516 55.6392 52.2772 55.6392C54.6199 55.6392 56.1737 52.5841 56.1737 50.1174C56.1737 48.8502 55.5522 47.2661 53.6876 47.2661C51.1776 47.2887 49.7194 50.4343 49.7194 52.7425ZM59.4009 50.0948C59.4009 54.304 56.3171 57.9248 51.8469 57.9248C48.548 57.9248 46.4922 55.7523 46.4922 52.8104C46.4922 48.6239 49.5759 44.9804 54.0462 44.9804C57.5602 44.9804 59.4009 47.3792 59.4009 50.0948Z" fill="white"></path>
    <path d="M59.9805 57.6484L61.6777 49.0943C61.9885 47.6233 62.1797 46.3108 62.3471 45.2471H65.1439L64.8571 47.4649H64.9049C66.124 45.8129 67.7735 44.9756 69.6142 44.9756C71.5027 44.9756 72.937 46.0392 72.937 48.3927C72.937 48.9585 72.8414 49.8184 72.6979 50.4294L71.2636 57.6484H68.1321L69.5186 50.6557C69.5903 50.2031 69.6859 49.66 69.6859 49.1848C69.6859 48.1438 69.2795 47.397 68.0364 47.397C66.6021 47.397 64.7854 49.0264 64.2116 51.923L63.0881 57.6484H59.9805Z" fill="white"></path>
    <path d="M81.2542 47.2113C79.294 47.2113 78.0031 48.8633 77.6206 50.3569C80.8478 50.3795 82.9036 49.9722 82.9036 48.4786C82.9275 47.6865 82.2582 47.2113 81.2542 47.2113ZM84.2423 56.9423C82.9514 57.5759 81.2064 57.938 79.6286 57.938C75.9951 57.938 74.25 55.8334 74.25 52.8009C74.25 49.067 77.1425 44.9935 81.6606 44.9935C84.2423 44.9935 85.8678 46.3966 85.8678 48.4786C85.8678 51.6468 82.3538 52.6652 77.3098 52.5746C77.262 53.0046 77.3576 53.8419 77.6684 54.3398C78.1704 55.1771 79.1266 55.6071 80.3458 55.6071C81.8279 55.6071 82.9992 55.245 83.9554 54.7924L84.2423 56.9423Z" fill="white"></path>
    <path d="M93.4182 47.2113C91.458 47.2113 90.1671 48.8633 89.7847 50.3569C93.0118 50.3795 95.0677 49.9722 95.0677 48.4786C95.0916 47.6865 94.4222 47.2113 93.4182 47.2113ZM96.4064 56.9423C95.1155 57.5759 93.3704 57.938 91.7927 57.938C88.1591 57.938 86.4141 55.8334 86.4141 52.8009C86.4141 49.067 89.3066 44.9935 93.8246 44.9935C96.4063 44.9935 98.0558 46.3966 98.0558 48.4786C98.0558 51.6468 94.5418 52.6652 89.4739 52.5746C89.4261 53.0046 89.5217 53.8419 89.8325 54.3398C90.3345 55.1771 91.2907 55.6071 92.5098 55.6071C93.9919 55.6071 95.1633 55.245 96.1195 54.7924L96.4064 56.9423Z" fill="white"></path>
    <path d="M98.2383 57.6484L99.7682 50.0221C100.127 48.2569 100.294 46.356 100.438 45.2698H103.163C103.091 46.1071 102.995 46.967 102.876 47.8722H102.948C103.832 46.2202 105.266 44.9982 107.035 44.9982C107.274 44.9982 107.513 45.0208 107.729 45.0208L107.107 47.9175C106.94 47.8949 106.725 47.8949 106.509 47.8949C104.286 47.8949 102.852 50.0221 102.35 52.6698L101.346 57.6484H98.2383Z" fill="white"></path>
    <path d="M110.09 46.4021H110.329C110.568 46.4021 110.712 46.2889 110.712 46.0853C110.712 45.8816 110.544 45.7911 110.305 45.7911C110.186 45.7911 110.114 45.7911 110.09 45.8137V46.4021ZM109.875 45.6553C109.995 45.6326 110.162 45.6326 110.305 45.6326C110.544 45.6326 110.712 45.6779 110.807 45.7684C110.903 45.8363 110.951 45.9495 110.951 46.0853C110.951 46.2889 110.807 46.4473 110.616 46.4926C110.759 46.5379 110.831 46.651 110.879 46.8321C110.927 47.0584 110.975 47.2168 111.022 47.2847H110.783C110.759 47.2394 110.712 47.1036 110.664 46.8999C110.616 46.6736 110.52 46.5831 110.305 46.5831H110.09V47.2847H109.875V45.6553Z" fill="white"></path>
    <path d="M110.378 45C109.517 45 108.824 45.6562 108.824 46.4709C108.824 47.2856 109.517 47.9419 110.378 47.9419C111.239 47.9419 111.932 47.2856 111.932 46.4709C111.932 45.6562 111.239 45 110.378 45ZM110.378 45.2263C111.095 45.2263 111.693 45.7694 111.693 46.4709C111.693 47.1498 111.095 47.7156 110.378 47.7156C109.661 47.7156 109.063 47.1498 109.063 46.4709C109.087 45.7694 109.661 45.2263 110.378 45.2263Z" fill="white"></path>
  </g>
  <defs>
    <clipPath id="clip0_19_23">
      <rect width="106" height="36" fill="white" transform="translate(6 30)"></rect>
    </clipPath>
  </defs>
</svg>
