<?xml version="1.0" encoding="UTF-8"?>
<svg id="Layer_1" data-name="Layer 1" xmlns="http://www.w3.org/2000/svg" xmlns:xlink="http://www.w3.org/1999/xlink" viewBox="0 0 425 502.81">
  <defs>
    <style>
      .cls-1 {
        fill: #fc584e;
      }

      .cls-1, .cls-2, .cls-3, .cls-4, .cls-5, .cls-6, .cls-7 {
        stroke-width: 0px;
      }

      .cls-2 {
        fill: url(#linear-gradient);
      }

      .cls-3 {
        fill: #000;
      }

      .cls-4 {
        fill: #ff7e6e;
      }

      .cls-5 {
        fill: #ffa090;
      }

      .cls-6 {
        fill: #b41d1b;
      }

      .cls-7 {
        fill: #fff;
      }
    </style>
    <linearGradient id="linear-gradient" x1="212.5" y1=".92" x2="212.5" y2="503.72" gradientTransform="translate(0 503.72) scale(1 -1)" gradientUnits="userSpaceOnUse">
      <stop offset="0" stop-color="#b41d1b"/>
      <stop offset=".12" stop-color="#bd2522"/>
      <stop offset=".31" stop-color="#d73a34"/>
      <stop offset=".54" stop-color="#fc584e"/>
      <stop offset=".78" stop-color="#ff7e6e"/>
      <stop offset="1" stop-color="#ffa090"/>
    </linearGradient>
  </defs>
  <polygon class="cls-7" points="391.2 5.02 33.8 5.02 33.8 425.06 33.8 425.51 212.5 497.42 391.2 425.51 391.2 425.06 391.2 5.02"/>
  <path class="cls-2" d="M212.5,502.81L29,428.96V0h367v428.96l-183.5,73.84ZM38.61,422.06l173.89,69.98,173.89-69.98V10.05H38.61v412.01Z"/>
  <polygon class="cls-1" points="57.82 387.71 57.82 410.4 57.82 410.77 212.5 470.28 367.18 410.77 367.18 410.4 367.18 387.71 212.5 447.22 57.82 387.71"/>
  <polygon class="cls-4" points="57.82 355.53 57.82 378.22 57.82 378.58 212.5 438.09 367.18 378.58 367.18 378.22 367.18 355.53 212.5 415.03 57.82 355.53"/>
  <polygon class="cls-5" points="57.82 323.34 57.82 346.03 57.82 346.4 212.5 405.91 367.18 346.4 367.18 346.03 367.18 323.34 212.5 382.85 57.82 323.34"/>
  <g>
    <path class="cls-6" d="M126.27,117.81v2.8h-1.71c-1.19.08-2.36-.29-3.29-1.04-.79-.7-1.14-1.86-1.14-3.47v-5.55h-1.78v-2.74h1.78v-3.17h3.26v3.17h2.86v2.74h-2.86v5.55c-.05.46.08.92.36,1.29.35.29.8.42,1.25.37l1.27.04Z"/>
    <path class="cls-6" d="M140.54,114.83h-9.38c-.04.93.29,1.84.92,2.52.58.53,1.34.82,2.13.79.67.03,1.34-.17,1.89-.56.49-.36.83-.9.96-1.5h3.44c-.34,1.8-1.55,3.32-3.23,4.06-.91.41-1.9.62-2.9.6-1.16.02-2.31-.25-3.33-.79-.96-.52-1.74-1.31-2.26-2.27-1.08-2.21-1.08-4.79,0-7,.51-.96,1.3-1.76,2.26-2.28,1.03-.54,2.17-.81,3.33-.79,1.15-.02,2.3.25,3.32.79.92.5,1.68,1.25,2.2,2.17.53.95.81,2.03.79,3.13-.01.38-.06.75-.13,1.12ZM136.57,111.02c-.6-.53-1.38-.81-2.18-.79-.81-.03-1.61.25-2.22.79-.64.62-1,1.48-.99,2.38h6.21c.1-.88-.21-1.76-.84-2.38h.02Z"/>
    <path class="cls-6" d="M152.84,108.98c1.12.92,1.85,2.22,2.07,3.65h-3.44c-.12-.63-.46-1.19-.95-1.59-.54-.4-1.2-.61-1.87-.59-.83-.02-1.62.33-2.16.96-1.15,1.69-1.15,3.92,0,5.62.54.62,1.33.97,2.16.96.67.03,1.34-.18,1.87-.59.5-.4.83-.96.95-1.59h3.44c-.22,1.43-.95,2.73-2.07,3.65-1.17.92-2.64,1.39-4.12,1.34-1.16.02-2.31-.25-3.33-.79-.96-.52-1.74-1.31-2.26-2.27-1.08-2.21-1.08-4.79,0-7,.51-.96,1.3-1.76,2.26-2.28,1.03-.54,2.17-.81,3.33-.79,1.49-.06,2.95.4,4.12,1.31Z"/>
    <path class="cls-6" d="M168.38,109.08c.94,1.15,1.41,2.61,1.32,4.09v7.45h-3.2v-7.08c.05-.87-.23-1.72-.79-2.38-.56-.58-1.34-.89-2.15-.85-.84-.04-1.65.29-2.22.9-.58.73-.87,1.65-.79,2.59v6.8h-3.26v-17.09h3.26v6.86c.32-.84.91-1.55,1.67-2.02.81-.5,1.75-.75,2.7-.73,1.32-.04,2.59.49,3.47,1.46Z"/>
    <path class="cls-6" d="M177.72,108.32c.8-.47,1.71-.72,2.63-.71v3.49h-.94c-2.39,0-3.58,1.11-3.59,3.33v6.17h-3.25v-12.8h3.25v2.44c.46-.79,1.11-1.46,1.9-1.93Z"/>
    <path class="cls-6" d="M194.08,114.83h-9.34c-.03.93.3,1.84.93,2.52.58.54,1.34.82,2.13.79.67.03,1.33-.17,1.88-.56.5-.36.84-.9.96-1.5h3.44c-.17.87-.54,1.68-1.09,2.38-.57.72-1.3,1.28-2.13,1.66-2,.87-4.29.8-6.23-.2-.96-.52-1.75-1.31-2.27-2.27-1.08-2.21-1.08-4.79,0-7,.51-.97,1.3-1.76,2.27-2.28,1.02-.54,2.17-.81,3.32-.79,1.15-.02,2.3.25,3.32.79.92.5,1.69,1.25,2.2,2.17.53.95.81,2.03.79,3.13-.02.39-.08.77-.17,1.15ZM190.11,111.02c-.6-.54-1.38-.82-2.18-.79-.81-.03-1.61.25-2.22.79-.64.63-.99,1.49-.99,2.38h6.22c.1-.88-.21-1.76-.85-2.38h.02Z"/>
    <path class="cls-6" d="M202.08,117.35l3.24-9.52h3.47l-4.76,12.8h-3.97l-4.76-12.8h3.49l3.29,9.52Z"/>
    <path class="cls-6" d="M210.76,102.85c.86-.67,2.06-.67,2.92,0,.7.66.73,1.77.07,2.47-.02.02-.05.05-.07.07-.86.67-2.06.67-2.92,0-.7-.66-.73-1.77-.07-2.47.02-.02.05-.05.07-.07ZM213.84,107.81v12.8h-3.26v-12.8h3.26Z"/>
    <path class="cls-6" d="M228.72,114.83h-9.38c-.03.93.3,1.84.93,2.52.58.53,1.34.82,2.13.79.67.03,1.33-.17,1.88-.56.5-.36.84-.9.96-1.5h3.45c-.17.87-.55,1.68-1.09,2.38-.56.72-1.3,1.29-2.13,1.66-2,.87-4.29.8-6.23-.2-.96-.52-1.75-1.31-2.27-2.27-1.08-2.21-1.08-4.79,0-7,.52-.97,1.3-1.76,2.27-2.28,1.02-.54,2.17-.81,3.32-.79,1.16-.03,2.3.25,3.32.79.92.5,1.69,1.25,2.2,2.17.53.95.81,2.03.79,3.13,0,.39-.05.77-.13,1.15ZM224.76,111.02c-.6-.53-1.39-.82-2.19-.79-.81-.03-1.6.26-2.21.79-.64.63-1,1.48-1,2.38h6.22c.1-.88-.21-1.76-.83-2.38h.02Z"/>
    <path class="cls-6" d="M249.47,107.81l-3.44,12.8h-3.6l-2.75-9.31-2.82,9.31h-3.61l-3.42-12.8h3.29l2.08,9.89,2.84-9.89h3.45l2.86,9.89,2.1-9.89h3.01Z"/>
    <path class="cls-6" d="M263.02,114.83h-9.38c-.03.93.3,1.83.92,2.52.58.53,1.34.82,2.13.79.67.03,1.34-.17,1.89-.56.49-.36.83-.9.96-1.5h3.44c-.34,1.8-1.55,3.32-3.23,4.06-.91.41-1.9.62-2.9.6-1.16.02-2.31-.25-3.33-.79-.96-.52-1.74-1.31-2.26-2.27-1.08-2.21-1.08-4.79,0-7,.51-.96,1.3-1.76,2.26-2.28,1.03-.54,2.17-.81,3.33-.79,1.15-.02,2.3.25,3.32.79.92.5,1.68,1.25,2.2,2.17.53.95.81,2.03.79,3.13-.01.38-.06.75-.13,1.12ZM259.06,111.02c-.6-.54-1.38-.82-2.18-.79-.81-.03-1.61.25-2.22.79-.64.63-1,1.49-.99,2.38h6.21c.1-.88-.21-1.76-.84-2.38h.02Z"/>
    <path class="cls-6" d="M270.6,108.32c.8-.47,1.71-.72,2.63-.71v3.49h-.94c-2.39,0-3.58,1.11-3.59,3.33v6.17h-3.25v-12.8h3.25v2.44c.46-.8,1.11-1.46,1.9-1.93Z"/>
    <path class="cls-6" d="M277.74,117.21v3.4h-3.51v-3.4h3.51Z"/>
    <path class="cls-6" d="M289.79,108.98c1.12.92,1.85,2.22,2.07,3.65h-3.44c-.12-.63-.46-1.19-.95-1.59-.54-.4-1.2-.61-1.87-.59-.83-.02-1.62.33-2.16.96-1.16,1.69-1.16,3.92,0,5.62.54.62,1.33.97,2.16.96.67.03,1.34-.18,1.87-.59.5-.4.83-.96.95-1.59h3.44c-.22,1.43-.95,2.73-2.07,3.65-1.17.92-2.64,1.39-4.12,1.34-1.16.02-2.31-.25-3.33-.79-.96-.52-1.74-1.31-2.26-2.27-1.08-2.21-1.08-4.79,0-7,.51-.96,1.3-1.76,2.26-2.28,1.03-.54,2.17-.81,3.33-.79,1.49-.06,2.95.4,4.12,1.31Z"/>
    <path class="cls-6" d="M303.45,108.43c.98.52,1.8,1.31,2.34,2.28,1.14,2.19,1.14,4.8,0,7-.55.96-1.36,1.75-2.34,2.27-2.11,1.07-4.61,1.07-6.73,0-.99-.51-1.82-1.3-2.38-2.27-1.14-2.19-1.14-4.8,0-7,.56-.97,1.38-1.76,2.38-2.28,2.12-1.05,4.61-1.05,6.73,0ZM297.78,111.42c-1.25,1.64-1.25,3.91,0,5.55,1.28,1.28,3.34,1.28,4.62,0,0,0,0,0,0,0,1.26-1.64,1.26-3.92,0-5.55-1.28-1.27-3.34-1.27-4.62,0Z"/>
  </g>
  <g>
    <path class="cls-6" d="M182.06,32.35h20.29c0,11.21-9.08,20.29-20.29,20.29h0v-20.29h0Z"/>
    <path class="cls-4" d="M222.65,32.35h0v20.28h-20.29c0-11.2,9.09-20.28,20.29-20.28Z"/>
    <rect class="cls-1" x="202.35" y="52.63" width="20.29" height="40.58"/>
    <rect class="cls-5" x="222.65" y="32.35" width="20.29" height="20.29"/>
  </g>
  <g>
    <path class="cls-3" d="M188.49,344.59c0-1.53-.66-2.3-1.99-2.3-.75,0-1.29.26-1.64.78-.35.52-.54,1.33-.57,2.44h-4.68c.11-2.41.84-4.22,2.18-5.43,1.34-1.21,3.04-1.82,5.1-1.82s3.77.54,4.86,1.62c1.09,1.08,1.64,2.49,1.64,4.23,0,1.92-.74,3.8-2.21,5.64-1.47,1.84-3.24,3.39-5.29,4.66h7.81v3.86h-14.11v-3.58c5.94-4.24,8.9-7.61,8.9-10.11Z"/>
    <path class="cls-3" d="M195.66,348.4c0-3.08.63-5.52,1.88-7.32s3.25-2.7,5.99-2.7,4.72.9,5.98,2.7c1.26,1.8,1.89,4.24,1.89,7.32s-.63,5.55-1.89,7.36c-1.26,1.81-3.25,2.72-5.98,2.72s-4.74-.91-5.99-2.72-1.88-4.26-1.88-7.36ZM206.63,348.4c0-1.77-.21-3.13-.63-4.07s-1.25-1.41-2.48-1.41-2.09.48-2.52,1.43c-.43.95-.64,2.31-.64,4.06s.21,3.14.64,4.1c.43.96,1.27,1.44,2.52,1.44s2.06-.48,2.48-1.44c.42-.96.63-2.33.63-4.1Z"/>
    <path class="cls-3" d="M222.37,344.59c0-1.53-.66-2.3-1.99-2.3-.75,0-1.29.26-1.64.78s-.54,1.33-.57,2.44h-4.68c.11-2.41.84-4.22,2.18-5.43,1.34-1.21,3.04-1.82,5.1-1.82s3.77.54,4.86,1.62c1.09,1.08,1.64,2.49,1.64,4.23,0,1.92-.74,3.8-2.21,5.64-1.47,1.84-3.24,3.39-5.29,4.66h7.81v3.86h-14.11v-3.58c5.94-4.24,8.9-7.61,8.9-10.11Z"/>
    <path class="cls-3" d="M244.15,342.44h-8.9v4c.39-.45.94-.8,1.64-1.05.7-.25,1.46-.38,2.28-.38,1.33,0,2.44.29,3.33.88.9.59,1.56,1.38,1.99,2.37s.64,2.08.64,3.28c0,2.17-.61,3.88-1.82,5.14-1.21,1.26-2.92,1.89-5.12,1.89-1.49,0-2.79-.27-3.89-.8s-1.95-1.27-2.55-2.23-.91-2.05-.95-3.3h4.68c.09.64.35,1.16.77,1.57.42.41.99.62,1.72.62.84,0,1.47-.27,1.89-.81.42-.54.63-1.26.63-2.16s-.22-1.52-.67-1.99-1.07-.7-1.88-.7c-.62,0-1.13.14-1.54.41-.41.27-.69.62-.84,1.05h-4.65v-11.98h13.24v4.2Z"/>
  </g>
  <g>
    <polygon class="cls-4" points="425 168.41 402.52 199.04 425 229.67 310.58 229.67 310.58 168.41 425 168.41"/>
    <polygon class="cls-4" points="0 168.41 22.47 199.04 0 229.67 114.42 229.67 114.42 168.41 0 168.41"/>
    <polygon class="cls-1" points="114.42 210.06 114.42 229.81 37.8 210.06 114.42 210.06"/>
    <polygon class="cls-1" points="310.58 210.06 310.58 229.81 387.2 210.06 310.58 210.06"/>
    <rect class="cls-5" x="37.85" y="148.81" width="349.39" height="61.26"/>
  </g>
  <g>
    <path class="cls-3" d="M104.91,249.46l-5.75,24.05h-7.21l-3.84-16.09-3.88,16.09h-7.21l-5.75-24.05h6.33l3.1,17.42,4.22-17.42h6.36l4.22,17.42,3.13-17.42h6.29Z"/>
    <path class="cls-3" d="M125.83,265.07h-13.16c.07,1.43.43,2.46,1.09,3.08.66.62,1.5.94,2.52.94.86,0,1.58-.22,2.14-.65.57-.43.94-.99,1.12-1.67h6.16c-.25,1.34-.79,2.53-1.63,3.59s-1.9,1.88-3.2,2.48-2.73.9-4.32.9c-1.86,0-3.51-.39-4.95-1.17s-2.57-1.91-3.38-3.38c-.82-1.47-1.22-3.2-1.22-5.17s.4-3.72,1.21-5.19c.8-1.46,1.93-2.58,3.38-3.37,1.45-.78,3.11-1.17,4.97-1.17s3.54.39,4.97,1.16c1.43.77,2.53,1.85,3.32,3.25.78,1.39,1.17,3,1.17,4.81,0,.48-.06,1-.17,1.57ZM119.11,259.82c-.69-.62-1.55-.94-2.57-.94s-1.95.32-2.65.95c-.7.64-1.1,1.57-1.19,2.79h7.42c.02-1.25-.31-2.18-1-2.81Z"/>
    <path class="cls-3" d="M145.07,255.46c1.24.78,2.21,1.9,2.93,3.37s1.07,3.19,1.07,5.19-.36,3.7-1.07,5.17c-.71,1.47-1.69,2.6-2.93,3.38-1.24.78-2.64,1.17-4.2,1.17-1.45,0-2.7-.33-3.74-.99-1.04-.66-1.8-1.55-2.28-2.69v3.44h-5.82v-25.17h5.82v9.63c.48-1.13,1.24-2.03,2.28-2.69,1.04-.66,2.29-.99,3.74-.99,1.56,0,2.96.39,4.2,1.17ZM135.98,260.63c-.78.83-1.17,1.96-1.17,3.38s.39,2.53,1.17,3.37c.78.84,1.79,1.26,3.01,1.26s2.25-.41,3.01-1.22,1.14-1.95,1.14-3.4-.38-2.58-1.14-3.4-1.76-1.22-3.01-1.22-2.23.41-3.01,1.24Z"/>
    <path class="cls-3" d="M179.01,267.71c-1.01,1.83-2.46,3.25-4.35,4.27-1.89,1.02-4.12,1.53-6.68,1.53h-9.08v-24.05h9.08c2.58,0,4.82.5,6.7,1.5,1.88,1,3.33,2.4,4.34,4.22,1.01,1.82,1.51,3.9,1.51,6.26s-.5,4.45-1.51,6.28ZM172.75,266.5c1.26-1.2,1.89-2.89,1.89-5.07s-.63-3.87-1.89-5.07c-1.26-1.2-3.02-1.8-5.29-1.8h-2.76v13.74h2.76c2.27,0,4.03-.6,5.29-1.8Z"/>
    <path class="cls-3" d="M201.68,265.07h-13.16c.07,1.43.43,2.46,1.09,3.08.66.62,1.5.94,2.52.94.86,0,1.58-.22,2.14-.65.57-.43.94-.99,1.12-1.67h6.16c-.25,1.34-.79,2.53-1.63,3.59s-1.9,1.88-3.2,2.48-2.73.9-4.32.9c-1.86,0-3.51-.39-4.95-1.17s-2.57-1.91-3.38-3.38c-.82-1.47-1.22-3.2-1.22-5.17s.4-3.72,1.21-5.19c.8-1.46,1.93-2.58,3.38-3.37,1.45-.78,3.11-1.17,4.97-1.17s3.54.39,4.97,1.16c1.43.77,2.53,1.85,3.32,3.25.78,1.39,1.17,3,1.17,4.81,0,.48-.06,1-.17,1.57ZM194.97,259.82c-.69-.62-1.55-.94-2.57-.94s-1.95.32-2.65.95c-.7.64-1.1,1.57-1.19,2.79h7.42c.02-1.25-.31-2.18-1-2.81Z"/>
    <path class="cls-3" d="M213.66,267.83l4.12-13.3h6.19l-6.74,18.98h-7.21l-6.73-18.98h6.19l4.18,13.3Z"/>
    <path class="cls-3" d="M244.24,265.07h-13.16c.07,1.43.43,2.46,1.09,3.08.66.62,1.5.94,2.52.94.86,0,1.58-.22,2.14-.65.57-.43.94-.99,1.12-1.67h6.16c-.25,1.34-.79,2.53-1.63,3.59-.84,1.05-1.91,1.88-3.2,2.48-1.29.6-2.73.9-4.32.9-1.86,0-3.51-.39-4.95-1.17-1.44-.78-2.57-1.91-3.38-3.38-.82-1.47-1.22-3.2-1.22-5.17s.4-3.72,1.21-5.19c.8-1.46,1.93-2.58,3.38-3.37,1.45-.78,3.11-1.17,4.97-1.17s3.54.39,4.97,1.16c1.43.77,2.53,1.85,3.32,3.25.78,1.39,1.17,3,1.17,4.81,0,.48-.06,1-.17,1.57ZM237.52,259.82c-.69-.62-1.55-.94-2.57-.94s-1.95.32-2.65.95c-.7.64-1.1,1.57-1.19,2.79h7.42c.02-1.25-.31-2.18-1-2.81Z"/>
    <path class="cls-3" d="M253.25,248.34v25.17h-5.82v-25.17h5.82Z"/>
    <path class="cls-3" d="M271.19,255.46c1.48.78,2.65,1.91,3.5,3.38.85,1.47,1.28,3.2,1.28,5.17s-.43,3.7-1.28,5.17c-.85,1.47-2.02,2.6-3.5,3.38-1.49.78-3.17,1.17-5.05,1.17s-3.57-.39-5.07-1.17c-1.5-.78-2.67-1.91-3.52-3.38-.85-1.47-1.28-3.2-1.28-5.17s.42-3.7,1.28-5.17c.85-1.47,2.02-2.6,3.52-3.38,1.5-.78,3.19-1.17,5.07-1.17s3.57.39,5.05,1.17ZM263.34,260.53c-.76.8-1.14,1.97-1.14,3.49s.38,2.68,1.14,3.47c.76.79,1.69,1.19,2.81,1.19s2.04-.4,2.79-1.19c.75-.79,1.12-1.95,1.12-3.47s-.37-2.68-1.12-3.49c-.75-.8-1.68-1.21-2.79-1.21s-2.05.4-2.81,1.21Z"/>
    <path class="cls-3" d="M295.04,255.46c1.24.78,2.21,1.9,2.93,3.37s1.07,3.19,1.07,5.19-.36,3.7-1.07,5.17c-.71,1.47-1.69,2.6-2.93,3.38-1.24.78-2.64,1.17-4.2,1.17-1.45,0-2.7-.33-3.74-.99-1.04-.66-1.8-1.55-2.28-2.69v12.48h-5.82v-28.03h5.82v3.44c.48-1.13,1.24-2.03,2.28-2.69,1.04-.66,2.29-.99,3.74-.99,1.56,0,2.96.39,4.2,1.17ZM285.96,260.63c-.78.83-1.17,1.96-1.17,3.38s.39,2.53,1.17,3.37c.78.84,1.79,1.26,3.01,1.26s2.25-.41,3.01-1.22c.76-.82,1.14-1.95,1.14-3.4s-.38-2.58-1.14-3.4c-.76-.82-1.76-1.22-3.01-1.22s-2.23.41-3.01,1.24Z"/>
    <path class="cls-3" d="M319.92,265.07h-13.16c.07,1.43.43,2.46,1.09,3.08.66.62,1.5.94,2.52.94.86,0,1.58-.22,2.14-.65.57-.43.94-.99,1.12-1.67h6.16c-.25,1.34-.79,2.53-1.63,3.59-.84,1.05-1.91,1.88-3.2,2.48-1.29.6-2.73.9-4.32.9-1.86,0-3.51-.39-4.95-1.17-1.44-.78-2.57-1.91-3.38-3.38-.82-1.47-1.22-3.2-1.22-5.17s.4-3.72,1.21-5.19c.8-1.46,1.93-2.58,3.38-3.37,1.45-.78,3.11-1.17,4.97-1.17s3.54.39,4.97,1.16c1.43.77,2.53,1.85,3.32,3.25.78,1.39,1.17,3,1.17,4.81,0,.48-.06,1-.17,1.57ZM313.2,259.82c-.69-.62-1.55-.94-2.57-.94s-1.95.32-2.65.95c-.7.64-1.1,1.57-1.19,2.79h7.42c.02-1.25-.31-2.18-1-2.81Z"/>
    <path class="cls-3" d="M331.74,255.34c1.14-.68,2.39-1.02,3.72-1.02v6.22h-1.67c-1.54,0-2.74.33-3.59.99-.85.66-1.28,1.77-1.28,3.33v8.64h-5.82v-18.98h5.82v3.57c.73-1.16,1.66-2.08,2.81-2.75Z"/>
    <path class="cls-3" d="M350.59,256.09c1.44,1.2,2.34,2.79,2.7,4.76h-5.44c-.16-.77-.52-1.38-1.07-1.82s-1.25-.66-2.09-.66c-.66,0-1.16.14-1.5.42-.34.28-.51.69-.51,1.21,0,.59.31,1.03.93,1.33.62.29,1.6.59,2.94.88,1.45.34,2.64.69,3.57,1.04.93.35,1.73.92,2.42,1.72.68.79,1.02,1.86,1.02,3.2,0,1.09-.29,2.05-.88,2.89s-1.44,1.5-2.55,1.97c-1.11.48-2.43.71-3.95.71-2.56,0-4.61-.57-6.16-1.7-1.54-1.13-2.48-2.75-2.82-4.86h5.61c.09.82.44,1.44,1.04,1.87s1.38.65,2.33.65c.66,0,1.16-.15,1.5-.46.34-.31.51-.71.51-1.21,0-.66-.31-1.13-.93-1.41-.62-.28-1.64-.58-3.04-.9-1.41-.29-2.56-.61-3.47-.95s-1.69-.89-2.35-1.65c-.66-.76-.99-1.8-.99-3.11,0-1.7.65-3.08,1.94-4.13,1.29-1.05,3.12-1.58,5.48-1.58s4.33.6,5.77,1.8Z"/>
    <path class="cls-3" d="M128.14,288.99c.63-.58,1.47-.87,2.52-.87s1.88.29,2.52.87.95,1.31.95,2.19-.32,1.58-.95,2.16-1.47.87-2.52.87-1.88-.29-2.52-.87c-.64-.58-.95-1.3-.95-2.16s.32-1.62.95-2.19ZM133.55,296.53v18.98h-5.82v-18.98h5.82Z"/>
    <path class="cls-3" d="M154.79,298.5c1.28,1.45,1.92,3.45,1.92,5.99v11.02h-5.82v-10.34c0-1.27-.33-2.26-1-2.98-.67-.71-1.56-1.07-2.67-1.07-1.18,0-2.11.37-2.81,1.12-.69.75-1.04,1.82-1.04,3.2v10.07h-5.82v-18.98h5.82v3.47c.54-1.13,1.35-2.03,2.43-2.69,1.08-.66,2.34-.99,3.79-.99,2.18,0,3.91.73,5.19,2.18Z"/>
    <path class="cls-3" d="M178.11,310.51v5h-2.62c-2.22,0-3.95-.55-5.19-1.65-1.24-1.1-1.85-2.92-1.85-5.46v-6.97h-2.55v-4.9h2.55v-4.66h5.82v4.66h3.81v4.9h-3.81v7.08c0,.75.15,1.27.46,1.56.31.29.82.44,1.55.44h1.84Z"/>
    <path class="cls-3" d="M198.6,298.5c1.28,1.45,1.92,3.45,1.92,5.99v11.02h-5.82v-10.34c0-1.27-.33-2.26-1-2.98-.67-.71-1.56-1.07-2.67-1.07-1.18,0-2.11.37-2.81,1.12-.69.75-1.04,1.82-1.04,3.2v10.07h-5.82v-25.17h5.82v9.66c.54-1.13,1.35-2.03,2.43-2.69,1.08-.66,2.34-.99,3.79-.99,2.18,0,3.91.73,5.19,2.18Z"/>
    <path class="cls-3" d="M222.23,307.07h-13.16c.07,1.43.43,2.46,1.09,3.08.66.62,1.5.94,2.52.94.86,0,1.58-.22,2.14-.65.57-.43.94-.99,1.12-1.67h6.16c-.25,1.34-.79,2.53-1.63,3.59-.84,1.05-1.91,1.88-3.2,2.48-1.29.6-2.73.9-4.32.9-1.86,0-3.51-.39-4.95-1.17s-2.57-1.91-3.38-3.38c-.82-1.47-1.22-3.2-1.22-5.17s.4-3.72,1.21-5.19c.8-1.46,1.93-2.58,3.38-3.37,1.45-.78,3.11-1.17,4.97-1.17s3.54.39,4.97,1.16c1.43.77,2.53,1.85,3.32,3.25.78,1.39,1.17,3,1.17,4.81,0,.48-.06,1-.17,1.57ZM215.51,301.82c-.69-.62-1.55-.94-2.57-.94s-1.95.32-2.65.95c-.7.64-1.1,1.57-1.19,2.79h7.42c.02-1.25-.31-2.18-1-2.81Z"/>
    <path class="cls-3" d="M237.88,291.46v13.88c0,1.59.36,2.8,1.07,3.64.71.84,1.75,1.26,3.11,1.26s2.4-.42,3.11-1.26c.71-.84,1.07-2.05,1.07-3.64v-13.88h5.82v13.88c0,2.27-.44,4.18-1.33,5.73-.88,1.55-2.09,2.72-3.62,3.5-1.53.78-3.26,1.17-5.19,1.17s-3.63-.39-5.1-1.16c-1.47-.77-2.63-1.94-3.47-3.5-.84-1.56-1.26-3.48-1.26-5.75v-13.88h5.78Z"/>
    <path class="cls-3" d="M272.25,312.24c-.65,1.07-1.6,1.92-2.86,2.55s-2.78.95-4.58.95c-2.7,0-4.92-.66-6.67-1.97s-2.7-3.15-2.86-5.51h6.19c.09.91.41,1.62.97,2.14.56.52,1.26.78,2.13.78.75,0,1.34-.2,1.77-.61.43-.41.65-.95.65-1.63,0-.61-.2-1.12-.6-1.53-.4-.41-.89-.74-1.48-1-.59-.26-1.41-.57-2.45-.93-1.52-.52-2.76-1.03-3.72-1.51-.96-.49-1.79-1.21-2.48-2.18-.69-.96-1.04-2.22-1.04-3.76,0-1.43.36-2.66,1.09-3.71s1.73-1.84,3.01-2.4,2.75-.83,4.41-.83c2.67,0,4.8.63,6.38,1.9,1.58,1.27,2.47,3.02,2.67,5.24h-6.29c-.11-.79-.4-1.42-.87-1.89s-1.09-.7-1.89-.7c-.68,0-1.23.18-1.65.54-.42.36-.63.9-.63,1.6,0,.57.19,1.05.56,1.45.37.4.84.72,1.41.97.57.25,1.38.57,2.45.95,1.54.52,2.8,1.04,3.78,1.55.98.51,1.81,1.25,2.52,2.23.7.98,1.05,2.25,1.05,3.81,0,1.27-.32,2.44-.97,3.5Z"/>
    <path class="cls-3" d="M291.35,311.12h-9.01l-1.5,4.39h-6.12l8.81-23.88h6.7l8.81,23.88h-6.19l-1.5-4.39ZM289.85,306.7l-2.99-8.84-3.03,8.84h6.02Z"/>
  </g>
  <g>
    <path class="cls-3" d="M153.15,163.91v5.98h-8.45v25.12h-7.57v-25.12h-8.36v-5.98h24.38Z"/>
    <path class="cls-3" d="M179.08,165.48c2.39,1.36,4.27,3.26,5.65,5.68s2.07,5.16,2.07,8.21-.7,5.79-2.09,8.23c-1.39,2.44-3.29,4.33-5.68,5.7-2.39,1.36-5.04,2.05-7.94,2.05s-5.55-.68-7.94-2.05c-2.39-1.36-4.28-3.26-5.68-5.7-1.39-2.43-2.09-5.18-2.09-8.23s.7-5.79,2.09-8.21c1.39-2.42,3.29-4.31,5.68-5.68,2.39-1.36,5.04-2.05,7.94-2.05s5.59.68,7.99,2.05ZM165.22,172.82c-1.45,1.6-2.18,3.78-2.18,6.53s.73,4.9,2.18,6.51c1.45,1.61,3.41,2.42,5.87,2.42s4.38-.81,5.85-2.42c1.47-1.61,2.2-3.78,2.2-6.51s-.73-4.9-2.18-6.51-3.41-2.42-5.87-2.42-4.42.8-5.87,2.4Z"/>
    <path class="cls-3" d="M198.55,184.11v10.91h-7.52v-31.11h12.19c3.7,0,6.51.92,8.45,2.75,1.94,1.83,2.9,4.31,2.9,7.41,0,1.94-.43,3.66-1.3,5.17-.87,1.51-2.15,2.7-3.85,3.56-1.7.87-3.77,1.3-6.2,1.3h-4.66ZM206.91,174.08c0-2.73-1.51-4.09-4.53-4.09h-3.83v8.1h3.83c3.02,0,4.53-1.33,4.53-4Z"/>
    <path class="cls-3" d="M224.95,170.95v-7.04h12.58v31.11h-7.92v-24.07h-4.66Z"/>
    <path class="cls-3" d="M241.98,179.14c0-4.84.98-8.68,2.95-11.51,1.96-2.83,5.1-4.25,9.42-4.25s7.41,1.42,9.39,4.25c1.98,2.83,2.97,6.67,2.97,11.51s-.99,8.73-2.97,11.57c-1.98,2.85-5.11,4.27-9.39,4.27s-7.45-1.42-9.42-4.27c-1.97-2.84-2.95-6.7-2.95-11.57ZM259.23,179.14c0-2.79-.33-4.92-.99-6.4-.66-1.48-1.96-2.22-3.89-2.22s-3.29.75-3.96,2.24c-.68,1.5-1.01,3.62-1.01,6.38s.34,4.94,1.01,6.45c.67,1.51,1.99,2.27,3.96,2.27s3.23-.75,3.89-2.27c.66-1.51.99-3.66.99-6.45Z"/>
    <path class="cls-3" d="M270.31,179.14c0-4.84.98-8.68,2.95-11.51,1.96-2.83,5.1-4.25,9.42-4.25s7.41,1.42,9.39,4.25c1.98,2.83,2.97,6.67,2.97,11.51s-.99,8.73-2.97,11.57c-1.98,2.85-5.11,4.27-9.39,4.27s-7.45-1.42-9.42-4.27c-1.97-2.84-2.95-6.7-2.95-11.57ZM287.56,179.14c0-2.79-.33-4.92-.99-6.4-.66-1.48-1.96-2.22-3.89-2.22s-3.29.75-3.96,2.24c-.68,1.5-1.01,3.62-1.01,6.38s.34,4.94,1.01,6.45c.67,1.51,1.99,2.27,3.96,2.27s3.23-.75,3.89-2.27c.66-1.51.99-3.66.99-6.45Z"/>
  </g>
</svg>