<svg width="24" height="24" viewBox="0 0 24 24" fill="none" xmlns="http://www.w3.org/2000/svg">
<path d="M19.6667 12.6666H16V11.6666C16 10.38 14.9533 9.33331 13.6667 9.33331H10.3333C9.04667 9.33331 8 10.38 8 11.6666V14.6666H4.33333C3.04667 14.6666 2 15.7133 2 17V19C2 20.2866 3.04667 21.3333 4.33333 21.3333H19.6667C20.9533 21.3333 22 20.2866 22 19V15C22 13.7133 20.9533 12.6666 19.6667 12.6666ZM4 19V17C4 16.816 4.14933 16.6666 4.33333 16.6666H8V19.3333H4.33333C4.14933 19.3333 4 19.184 4 19ZM20 19C20 19.184 19.8507 19.3333 19.6667 19.3333H16V14.6666H19.6667C19.8507 14.6666 20 14.816 20 15V19Z" fill="#D1D5DB"/>
<path d="M9.75016 4.592L9.44616 6.35734C9.40349 6.608 9.50616 6.86 9.71149 7.00934C9.82749 7.09334 9.96483 7.13734 10.1035 7.13734C10.2102 7.13734 10.3155 7.112 10.4128 7.06L11.9982 6.22667L13.5822 7.06C13.8062 7.17867 14.0782 7.15867 14.2835 7.00934C14.4888 6.86 14.5915 6.60667 14.5488 6.35734L14.2448 4.592L15.5275 3.34134C15.7102 3.164 15.7755 2.89867 15.6968 2.65867C15.6182 2.41734 15.4102 2.24134 15.1595 2.20534L13.3875 1.948L12.5942 0.342671C12.3702 -0.113329 11.6222 -0.113329 11.3995 0.342671L10.6062 1.948L8.83283 2.20534C8.58216 2.24134 8.37283 2.41734 8.29549 2.65867C8.21683 2.9 8.28216 3.164 8.46483 3.34134L9.74749 4.592H9.75016Z" fill="#D1D5DB"/>
</svg>
