<svg width="24" height="24" viewBox="0 0 24 24" fill="none" xmlns="http://www.w3.org/2000/svg">
<g clip-path="url(#clip0_3514_972)">
<path d="M18.3059 22.2455C18.5323 22.3644 18.7967 22.3644 19.0231 22.2455C20.2193 21.6168 23.9977 19.3375 23.9977 15.6312C24.0036 14.0035 22.6995 12.6778 21.0823 12.668C20.1093 12.6805 19.2049 13.1746 18.6644 13.9889C18.1239 13.1746 17.2195 12.6805 16.2465 12.668C14.6293 12.6778 13.3252 14.0035 13.3311 15.6312C13.3311 19.3375 17.1096 21.6167 18.3059 22.2455Z" fill="#D1D5DB"/>
<path d="M12.5819 12.3243C11.5841 11.9006 10.4861 11.666 9.33248 11.666C6.08038 11.666 3.27009 13.5291 1.89876 16.2413C1.07298 17.8745 1.96984 19.7957 3.61778 20.368C5.0753 20.8741 7.02314 21.334 9.33248 21.334C10.8433 21.334 12.1996 21.1371 13.3651 20.8592C12.3491 19.6524 11.4444 18.0284 11.3408 16.0112C11.3303 15.8064 11.3239 15.5497 11.3429 15.2745C11.4207 14.1475 11.8745 13.1209 12.5819 12.3243Z" fill="#D1D5DB"/>
<path fill-rule="evenodd" clip-rule="evenodd" d="M5.66699 6.33396C5.66699 4.30838 7.30877 2.6673 9.33366 2.6673C11.3586 2.6673 13.0003 4.30838 13.0003 6.33396C13.0003 8.35955 11.3586 10.0006 9.33366 10.0006C7.30877 10.0006 5.66699 8.35955 5.66699 6.33396Z" fill="#D1D5DB"/>
<path d="M14.0664 9.4504C14.6276 9.79922 15.29 10.0006 15.9993 10.0006C18.0243 10.0006 19.666 8.35955 19.666 6.33396C19.666 4.30838 18.0243 2.6673 15.9993 2.6673C15.29 2.6673 14.6276 2.86871 14.0664 3.21751C14.6561 4.11152 14.9993 5.18254 14.9993 6.33396C14.9993 7.48538 14.6561 8.5564 14.0664 9.4504Z" fill="#D1D5DB"/>
</g>
<defs>
<clipPath id="clip0_3514_972">
<rect width="24" height="24" fill="white"/>
</clipPath>
</defs>
</svg>
