<svg xmlns="http://www.w3.org/2000/svg" width="18" height="18" viewBox="0 0 18 18" fill="none">
<path d="M11.0834 1.5L7.54999 1.5C5.86984 1.5 5.02976 1.5 4.38802 1.82698C3.82354 2.1146 3.36459 2.57355 3.07697 3.13804C2.74999 3.77978 2.75 4.61987 2.75001 6.30006C2.75002 8.28149 2.75003 9.71849 2.75004 11.6999C2.75005 13.3801 2.75005 14.2202 3.07703 14.862C3.36466 15.4265 3.82359 15.8854 4.38808 16.173C5.02982 16.5 5.8699 16.5 7.55006 16.5H10.45C12.1301 16.5 12.9702 16.5 13.612 16.173C14.1764 15.8854 14.6354 15.4265 14.923 14.862C15.25 14.2202 15.25 13.3802 15.25 11.7L15.25 5.78571M11.0834 1.5L11.0834 4.45238C11.0834 4.91909 11.0834 5.15245 11.1742 5.33071C11.2541 5.48751 11.3816 5.61499 11.5384 5.69489C11.7166 5.78571 11.95 5.78571 12.4167 5.78571L15.25 5.78571M11.0834 1.5L13.1667 3.64286L15.25 5.78571" stroke="#505967" stroke-width="1.2" stroke-linecap="round" stroke-linejoin="round"/>
<path d="M6.25 9.875H11.75" stroke="#505967" stroke-width="1.2" stroke-linecap="round" stroke-linejoin="round"/>
<path d="M6.25 12.7502H11.75" stroke="#505967" stroke-width="1.2" stroke-linecap="round" stroke-linejoin="round"/>
</svg>