<svg width="24" height="24" viewBox="0 0 24 24" fill="none" xmlns="http://www.w3.org/2000/svg">
<path d="M20.06 18.296L15.3333 9.09198V3.33331H16.3333C16.8853 3.33331 17.3333 2.88531 17.3333 2.33331C17.3333 1.78131 16.8853 1.33331 16.3333 1.33331H7.66663C7.11463 1.33331 6.66663 1.78131 6.66663 2.33331C6.66663 2.88531 7.11463 3.33331 7.66663 3.33331H8.66663V9.09198L3.93996 18.296C3.45863 19.2333 3.49863 20.3293 4.04796 21.2293C4.59729 22.1293 5.55463 22.6666 6.60796 22.6666H17.3906C18.4453 22.6666 19.4026 22.1293 19.9506 21.2293C20.5 20.3293 20.54 19.2333 20.0586 18.296H20.06ZM10.556 9.79065C10.6293 9.64931 10.6666 9.49198 10.6666 9.33331V3.33331H13.3333V9.33331C13.3333 9.49198 13.3706 9.64931 13.444 9.79065L15.6053 14H8.39463L10.556 9.79065Z" fill="#D1D5DB"/>
</svg>
