<svg width="20" height="19" fill="none" xmlns="http://www.w3.org/2000/svg"><path d="M10 2.035H7.966c-1.9 0-2.85 0-3.576.37a3.393 3.393 0 0 0-1.483 1.483c-.37.726-.37 1.676-.37 3.576v4.071c0 1.9 0 2.85.37 3.576a3.393 3.393 0 0 0 1.483 1.483c.726.37 1.676.37 3.576.37H10m0-14.929h2.035c1.9 0 2.85 0 3.576.37a3.392 3.392 0 0 1 1.483 1.483c.37.726.37 1.676.37 3.576v4.071c0 1.9 0 2.85-.37 3.576a3.393 3.393 0 0 1-1.483 1.483c-.726.37-1.675.37-3.576.37h-2.035m0-14.929v14.929M10 11.365H2.536M17.465 7.634H10" stroke="currentColor" stroke-width="1.493" stroke-linecap="round" stroke-linejoin="round"></path></svg>